<svg width="65" height="66" viewBox="0 0 65 66" fill="none" xmlns="http://www.w3.org/2000/svg">
<path d="M32.4996 65.8232C23.8226 65.8232 15.6522 62.4453 9.52143 56.3018C3.3771 50.1702 0 41.9998 0 33.3228C0 24.6459 3.3771 16.4755 9.52143 10.3447C15.6522 4.20034 23.8226 0.823242 32.4996 0.823242C41.1765 0.823242 49.347 4.20034 55.4777 10.3447C61.6221 16.4882 64.9992 24.6459 64.9992 33.3228C64.9992 41.9998 61.6221 50.1702 55.4777 56.3018C49.347 62.4453 41.1765 65.8232 32.4996 65.8232ZM32.4996 2.7714C24.3419 2.7714 16.6653 5.95368 10.8979 11.7211C5.13044 17.4885 1.94816 25.1659 1.94816 33.3228C1.94816 41.4805 5.13044 49.1571 10.8979 54.9245C16.6653 60.692 24.3419 63.8742 32.4996 63.8742C40.6573 63.8742 48.3339 60.692 54.1013 54.9245C59.8687 49.1571 63.051 41.4805 63.051 33.3228C63.051 25.1659 59.8687 17.4885 54.1013 11.7211C48.3339 5.95368 40.6573 2.7714 32.4996 2.7714Z" fill="white"/>
<path d="M39.1469 19.2385C39.0156 19.1166 38.8106 19.1242 38.6887 19.2555L36.0561 22.0972L35.8757 21.9312L38.5091 19.0894C38.6311 18.9582 38.6234 18.7532 38.4921 18.6312C38.3609 18.5092 38.1559 18.5169 38.0331 18.6481L35.4005 21.4908L35.2209 21.3239L37.8543 18.4821C37.9755 18.3508 37.9678 18.1459 37.8365 18.0239C37.7061 17.9028 37.5003 17.9104 37.3783 18.0417L34.7457 20.8834L34.5662 20.7166L37.1987 17.8757C37.3207 17.7435 37.3131 17.5385 37.1818 17.4166C37.0505 17.2954 36.8455 17.3031 36.7235 17.4344L34.091 20.2761L34.0893 20.2753L34.0071 20.3608C33.9343 20.4405 33.8682 20.5201 33.8089 20.6014L33.8064 20.6039C33.5836 20.9063 33.4566 21.2214 33.4574 21.589C33.4583 21.9761 33.5938 22.3412 33.8411 22.6419C33.6751 22.8181 32.9339 23.5406 32.0412 24.4071C30.9739 23.2729 30.0312 22.2658 29.8415 22.0447C30.1176 21.7389 30.2802 21.3578 30.2997 20.9487C30.3183 20.5582 30.1989 20.2185 29.9787 19.8882H29.9795L29.9753 19.884C29.9168 19.795 29.8508 19.7078 29.7779 19.6197L29.6949 19.5257L29.6932 19.5265L29.3705 19.1894C27.5917 17.6359 26.7075 17.5013 26.1899 17.9451C25.5834 18.4643 25.3776 19.3673 26.7379 21.451L27.0369 21.8499L27.0378 21.8508L27.07 21.8897C27.4342 22.331 27.7849 22.5809 28.2897 22.6444C28.6734 22.6919 29.0529 22.6097 29.3883 22.414C29.5772 22.6436 30.4361 23.7693 31.3957 25.0322C30.0761 26.3104 28.6497 27.6876 28.2795 28.0552C28.0195 28.3034 27.8764 28.472 27.8764 28.472C27.6239 28.7439 27.6417 29.1708 27.9162 29.4249C28.1906 29.6798 28.6175 29.6646 28.8699 29.3927C28.8699 29.3927 29.0486 29.2038 29.2053 29.02L29.2062 29.0208C29.4366 28.7557 30.7224 27.2133 31.9421 25.7513C33.0856 27.259 34.2206 28.7574 34.4374 29.0302V29.0285C34.595 29.2309 34.7745 29.4401 34.7745 29.4401C35.0286 29.7417 35.4801 29.7781 35.7833 29.5223C36.0866 29.2656 36.1264 28.8142 35.8723 28.5143C35.8723 28.5143 35.7291 28.328 35.4657 28.0527C35.1167 27.6724 33.8377 26.3163 32.5833 24.9839C33.4007 24.0081 34.0859 23.1933 34.2519 23.0103C34.5585 23.2094 34.9126 23.3034 35.276 23.2746C35.7545 23.2373 36.0951 23.018 36.4576 22.6182L36.4898 22.5817L36.4915 22.5809L39.1647 19.6959C39.2858 19.5646 39.2782 19.3596 39.1469 19.2385Z" fill="white"/>
<path d="M22.8372 33.6318C23.4961 33.6318 24.0747 33.7962 24.5719 34.1231L24.1517 34.9972C23.9213 34.8617 23.674 34.7516 23.4097 34.6652C23.1455 34.5797 22.9227 34.5365 22.7423 34.5365C22.4187 34.5365 22.2578 34.644 22.2578 34.8583C22.2578 34.9964 22.3366 35.1074 22.495 35.1904C22.655 35.2742 22.849 35.3462 23.0777 35.4072C23.3081 35.4682 23.5368 35.5419 23.7655 35.6274C23.9933 35.7138 24.1865 35.8536 24.3449 36.0476C24.5049 36.2398 24.5854 36.4829 24.5854 36.776C24.5854 37.1987 24.4194 37.5282 24.0874 37.7653C23.757 38.0025 23.3361 38.1211 22.8236 38.1211C22.4594 38.1211 22.0994 38.0592 21.7428 37.9347C21.3853 37.8085 21.0762 37.6357 20.8145 37.4164L21.2481 36.5558C21.4692 36.748 21.7301 36.9064 22.0308 37.0301C22.3332 37.1546 22.6017 37.2165 22.8372 37.2165C23.0176 37.2165 23.1573 37.1843 23.2573 37.1182C23.3589 37.053 23.4097 36.9581 23.4097 36.8336C23.4097 36.7116 23.3521 36.61 23.237 36.5287C23.1218 36.4457 22.9778 36.3847 22.8067 36.3457C22.6347 36.3051 22.4484 36.2525 22.2476 36.1865C22.046 36.1187 21.8588 36.0459 21.6852 35.9662C21.5133 35.8849 21.3701 35.7579 21.2549 35.5834C21.1397 35.4097 21.0821 35.2022 21.0821 34.96C21.0821 34.5559 21.2422 34.2341 21.5632 33.9944C21.8834 33.753 22.3086 33.6318 22.8372 33.6318Z" fill="white"/>
<path d="M29.5958 33.6829V36.2341C29.5958 36.8169 29.4145 37.2802 29.0537 37.6232C28.6945 37.9646 28.2067 38.1348 27.59 38.1348C26.9683 38.1348 26.4753 37.9646 26.1094 37.6232C25.7435 37.2802 25.5605 36.8169 25.5605 36.2341V33.6829H26.6786V36.2341C26.6786 36.528 26.7633 36.7618 26.9327 36.9354C27.1021 37.1099 27.3232 37.1963 27.5968 37.1963C27.8653 37.1963 28.0796 37.1108 28.2405 36.9388C28.4032 36.7677 28.4845 36.5323 28.4845 36.2341V33.6829H29.5958Z" fill="white"/>
<path d="M30.8408 33.6829H32.7585C33.3209 33.6829 33.7563 33.8167 34.0663 34.0827C34.3755 34.3495 34.5305 34.7281 34.5305 35.2177C34.5305 35.7327 34.3755 36.1325 34.0663 36.4171C33.7563 36.7017 33.3209 36.844 32.7585 36.844H31.9589V38.084H30.8408V33.6829ZM31.9589 34.5638V35.9664H32.7009C32.9491 35.9664 33.1397 35.9055 33.2735 35.7835C33.409 35.6615 33.4768 35.4853 33.4768 35.2549C33.4768 35.0296 33.409 34.8577 33.2735 34.74C33.1397 34.6231 32.9491 34.5638 32.7009 34.5638H31.9589Z" fill="white"/>
<path d="M39.0014 34.5638H36.6737V35.4379H38.7744V36.3154H36.6737V37.2031H39.0691V38.084H35.5557V33.6829H39.0014V34.5638Z" fill="white"/>
<path d="M42.8873 38.084L42.2334 36.844H41.3525V38.084H40.2344V33.6829H42.2029C42.7856 33.6829 43.2362 33.8167 43.5547 34.0827C43.8732 34.3495 44.0324 34.7281 44.0324 35.2177C44.0324 35.8953 43.7656 36.3662 43.2329 36.6305L44.1578 38.084H42.8873ZM41.3525 35.9664H42.2029C42.4443 35.9664 42.6315 35.9055 42.7653 35.7835C42.9008 35.6615 42.9686 35.4853 42.9686 35.2549C42.9686 35.0296 42.9008 34.8577 42.7653 34.74C42.6315 34.6231 42.4443 34.5638 42.2029 34.5638H41.3525V35.9664Z" fill="white"/>
<path d="M26.1983 41.8819H24.0536V42.8983H26.0289V43.7792H24.0536V45.4021H22.9355V41.001H26.1983V41.8819Z" fill="white"/>
<path d="M29.2608 40.9639C29.9452 40.9639 30.5127 41.1765 30.965 41.6008C31.419 42.026 31.646 42.558 31.646 43.1966C31.646 43.8387 31.4173 44.3748 30.9616 44.806C30.5076 45.238 29.9401 45.4531 29.2608 45.4531C28.5806 45.4531 28.0148 45.2388 27.5634 44.8094C27.1111 44.3782 26.8857 43.8404 26.8857 43.1966C26.8857 42.5554 27.1111 42.0235 27.5634 41.6008C28.0148 41.1765 28.5806 40.9639 29.2608 40.9639ZM29.2744 41.899C28.9305 41.899 28.6374 42.0243 28.3934 42.2751C28.1495 42.5241 28.0275 42.8333 28.0275 43.2034C28.0275 43.5719 28.1495 43.8827 28.3934 44.1351C28.6391 44.3884 28.9322 44.5146 29.271 44.5146C29.6115 44.5146 29.9012 44.3884 30.1383 44.1351C30.3755 43.8827 30.4941 43.5719 30.4941 43.2034C30.4941 42.8333 30.3755 42.5241 30.1383 42.2751C29.9012 42.0243 29.6132 41.899 29.2744 41.899Z" fill="white"/>
<path d="M34.7598 40.9636C35.4442 40.9636 36.0117 41.1762 36.464 41.6006C36.9181 42.0258 37.1451 42.5577 37.1451 43.1964C37.1451 43.8384 36.9164 44.3746 36.4607 44.8057C36.0067 45.2377 35.4391 45.4529 34.7598 45.4529C34.0797 45.4529 33.5139 45.2386 33.0624 44.8091C32.6101 44.378 32.3848 43.8401 32.3848 43.1964C32.3848 42.5552 32.6101 42.0233 33.0624 41.6006C33.5139 41.1762 34.0797 40.9636 34.7598 40.9636ZM34.7734 41.8987C34.4295 41.8987 34.1364 42.0241 33.8925 42.2748C33.6485 42.5238 33.5266 42.833 33.5266 43.2032C33.5266 43.5716 33.6485 43.8825 33.8925 44.1349C34.1381 44.3882 34.4312 44.5144 34.77 44.5144C35.1105 44.5144 35.4002 44.3882 35.6373 44.1349C35.8745 43.8825 35.9931 43.5716 35.9931 43.2032C35.9931 42.833 35.8745 42.5238 35.6373 42.2748C35.4002 42.0241 35.1122 41.8987 34.7734 41.8987Z" fill="white"/>
<path d="M38.1748 41.001H40.0688C40.7599 41.001 41.3224 41.2043 41.756 41.6108C42.1897 42.0174 42.4066 42.5476 42.4066 43.1999C42.4066 43.8504 42.1863 44.3806 41.7459 44.7889C41.3054 45.198 40.7311 45.4021 40.0247 45.4021H38.1748V41.001ZM39.2929 41.892V44.5077H40.0925C40.4355 44.5077 40.7167 44.3882 40.9361 44.1485C41.1572 43.9071 41.2681 43.5946 41.2681 43.21C41.2681 42.8238 41.153 42.5078 40.9226 42.2614C40.6922 42.0157 40.3983 41.892 40.0417 41.892H39.2929Z" fill="white"/>
<path d="M26.6216 49.168C26.8588 49.168 27.0706 49.2306 27.2586 49.3543L27.1332 49.6254C26.9477 49.5127 26.769 49.456 26.5979 49.456C26.5073 49.456 26.4353 49.4729 26.3811 49.5068C26.3286 49.539 26.3032 49.5847 26.3032 49.6457C26.3032 49.7067 26.3269 49.7592 26.3743 49.8015C26.4234 49.8422 26.4844 49.8727 26.5573 49.893C26.6293 49.9134 26.708 49.9396 26.7944 49.971C26.88 50.0006 26.9588 50.0319 27.0316 50.0658C27.1036 50.0997 27.1637 50.1531 27.2112 50.2251C27.2586 50.2979 27.2823 50.3843 27.2823 50.4859C27.2823 50.6469 27.2179 50.7739 27.0892 50.8688C26.9621 50.9637 26.7987 51.0111 26.5979 51.0111C26.4573 51.0111 26.3218 50.9857 26.1913 50.9332C26.0626 50.8815 25.9491 50.8112 25.8525 50.7231L25.9847 50.4554C26.077 50.5418 26.1778 50.6079 26.2862 50.6553C26.3963 50.7011 26.5014 50.7231 26.6013 50.7231C26.7097 50.7231 26.7927 50.7045 26.852 50.6655C26.913 50.6249 26.9435 50.5706 26.9435 50.5029C26.9435 50.4402 26.9181 50.3868 26.869 50.3436C26.8215 50.3013 26.7606 50.2708 26.686 50.2522C26.6132 50.2318 26.5344 50.2073 26.4488 50.1776C26.365 50.1488 26.2862 50.1183 26.2117 50.0861C26.1388 50.0548 26.0778 50.004 26.0287 49.9337C25.9813 49.8617 25.9576 49.7744 25.9576 49.6728C25.9576 49.5195 26.0186 49.3975 26.1405 49.3069C26.2625 49.2146 26.4226 49.168 26.6216 49.168Z" fill="white"/>
<path d="M29.1262 49.4558H28.1301V49.9471H29.0212V50.2215H28.1301V50.7263H29.1567V51.0008H27.8252V49.178H29.1262V49.4558Z" fill="white"/>
<path d="M30.0178 51.0008H29.7129V49.178H30.0178V51.0008Z" fill="white"/>
<path d="M31.9261 49.4558H31.3467V51.0008H31.0418V49.4558H30.4658V49.178H31.9261V49.4558Z" fill="white"/>
<path d="M33.6816 51.0008H33.3733V49.4524H33.0176V49.178H33.6816V51.0008Z" fill="white"/>
<path d="M34.8766 51.0145C34.6775 51.0145 34.4971 50.9687 34.3345 50.8756L34.4531 50.6452C34.57 50.7223 34.7046 50.7604 34.8563 50.7604C35.0274 50.7604 35.1561 50.7019 35.2425 50.5842C35.328 50.4648 35.3687 50.303 35.3645 50.0997C35.2671 50.2716 35.101 50.3572 34.8664 50.3572C34.6835 50.3572 34.5395 50.3055 34.4361 50.2013C34.3319 50.0955 34.2803 49.954 34.2803 49.7778C34.2803 49.5906 34.3379 49.4424 34.4531 49.334C34.57 49.2239 34.7258 49.168 34.9206 49.168C35.151 49.168 35.3314 49.2459 35.4627 49.4017C35.5957 49.5576 35.6626 49.7744 35.6626 50.0523C35.6626 50.3436 35.5915 50.5774 35.4492 50.7536C35.3069 50.9281 35.1154 51.0145 34.8766 51.0145ZM34.924 50.1166C35.0434 50.1166 35.1383 50.0845 35.2086 50.0184C35.2806 49.9506 35.3153 49.8685 35.3136 49.7711C35.3153 49.683 35.284 49.605 35.2188 49.5373C35.1527 49.4678 35.0595 49.4322 34.9376 49.4322C34.8241 49.4322 34.7343 49.4627 34.6665 49.5237C34.6004 49.5847 34.5683 49.6711 34.5683 49.7812C34.5683 49.8854 34.5996 49.9676 34.6631 50.0285C34.7258 50.0878 34.8131 50.1166 34.924 50.1166Z" fill="white"/>
<path d="M36.6598 51.0145C36.4607 51.0145 36.2803 50.9687 36.1177 50.8756L36.2363 50.6452C36.3532 50.7223 36.4878 50.7604 36.6395 50.7604C36.8106 50.7604 36.9393 50.7019 37.0257 50.5842C37.1112 50.4648 37.1519 50.303 37.1477 50.0997C37.0503 50.2716 36.8842 50.3572 36.6496 50.3572C36.4667 50.3572 36.3227 50.3055 36.2193 50.2013C36.1151 50.0955 36.0635 49.954 36.0635 49.7778C36.0635 49.5906 36.1211 49.4424 36.2363 49.334C36.3532 49.2239 36.509 49.168 36.7038 49.168C36.9342 49.168 37.1146 49.2459 37.2459 49.4017C37.3789 49.5576 37.4458 49.7744 37.4458 50.0523C37.4458 50.3436 37.3747 50.5774 37.2324 50.7536C37.0901 50.9281 36.8986 51.0145 36.6598 51.0145ZM36.7072 50.1166C36.8266 50.1166 36.9215 50.0845 36.9918 50.0184C37.0638 49.9506 37.0985 49.8685 37.0968 49.7711C37.0985 49.683 37.0672 49.605 37.002 49.5373C36.9359 49.4678 36.8427 49.4322 36.7208 49.4322C36.6073 49.4322 36.5175 49.4627 36.4497 49.5237C36.3837 49.5847 36.3515 49.6711 36.3515 49.7812C36.3515 49.8854 36.3828 49.9676 36.4463 50.0285C36.509 50.0878 36.5963 50.1166 36.7072 50.1166Z" fill="white"/>
<path d="M38.4863 49.168C38.66 49.168 38.7997 49.2103 38.9065 49.2933C39.0123 49.3746 39.0657 49.4856 39.0657 49.6254C39.0657 49.7838 38.9547 49.9828 38.7337 50.2217L38.2593 50.7265H39.1504V51.0009H37.8561V50.7773L38.527 50.0557C38.6735 49.9049 38.7472 49.7761 38.7472 49.6694C38.7472 49.5974 38.7201 49.5407 38.6659 49.5C38.6117 49.4577 38.5372 49.4356 38.4423 49.4356C38.2771 49.4356 38.1111 49.5119 37.9442 49.6626L37.8223 49.4255C38.0366 49.2544 38.2576 49.168 38.4863 49.168Z" fill="white"/>
</svg>
