<svg width="75" height="66" viewBox="0 0 75 66" fill="none" xmlns="http://www.w3.org/2000/svg">
<path d="M1.82471 65.7388H0V58.5703H1.82471V65.7388Z" fill="white"/>
<path d="M12.2268 65.7388H10.6168L7.32006 61.3304V65.7388H5.61035V58.5703H7.22039L10.5248 62.9941V58.5703H12.2268V65.7388Z" fill="white"/>
<path d="M28.6131 65.7389H27.0031L26.9954 61.0851L25.278 65.0259H24.0897L22.3723 61.0851V65.7389H20.7393V58.5627H22.7403L24.68 62.8332L26.6274 58.5627H28.6131V65.7389Z" fill="white"/>
<path d="M35.8132 58.509C36.921 58.509 37.8449 58.8579 38.5809 59.5517C39.3207 60.2417 39.6926 61.1062 39.6926 62.1431C39.6926 63.1916 39.3207 64.0675 38.5809 64.7728C37.8391 65.4744 36.9134 65.8232 35.8055 65.8232C34.7015 65.8232 33.7815 65.4744 33.0454 64.7728C32.3094 64.0732 31.9414 63.1973 31.9414 62.1431C31.9414 61.1004 32.3094 60.2341 33.0454 59.5441C33.7815 58.854 34.7034 58.509 35.8132 58.509ZM35.8285 60.0347C35.2707 60.0347 34.7935 60.2398 34.3948 60.6481C34 61.0525 33.8045 61.5566 33.8045 62.1585C33.8045 62.7565 34.0038 63.2625 34.4025 63.6765C34.8011 64.0905 35.2765 64.2975 35.8285 64.2975C36.3805 64.2975 36.8482 64.0905 37.2315 63.6765C37.6187 63.2625 37.8142 62.7565 37.8142 62.1585C37.8142 61.5566 37.6187 61.0525 37.2315 60.6481C36.8482 60.2398 36.3805 60.0347 35.8285 60.0347Z" fill="white"/>
<path d="M48.4862 60.0348H46.3241V65.7389H44.4994V60.0348H42.3604V58.5627H48.4862V60.0348Z" fill="white"/>
<path d="M53.438 65.7388H51.6133V58.5703H53.438V65.7388Z" fill="white"/>
<path d="M60.6257 58.509C61.7335 58.509 62.6574 58.8579 63.3934 59.5517C64.1332 60.2417 64.5051 61.1062 64.5051 62.1431C64.5051 63.1916 64.1332 64.0675 63.3934 64.7728C62.6516 65.4744 61.7259 65.8232 60.618 65.8232C59.514 65.8232 58.594 65.4744 57.8579 64.7728C57.1219 64.0732 56.7539 63.1973 56.7539 62.1431C56.7539 61.1004 57.1219 60.2341 57.8579 59.5441C58.594 58.854 59.5159 58.509 60.6257 58.509ZM60.641 60.0347C60.0832 60.0347 59.606 60.2398 59.2073 60.6481C58.8125 61.0525 58.617 61.5566 58.617 62.1585C58.617 62.7565 58.8163 63.2625 59.215 63.6765C59.6136 64.0905 60.089 64.2975 60.641 64.2975C61.193 64.2975 61.6607 64.0905 62.044 63.6765C62.4312 63.2625 62.6267 62.7565 62.6267 62.1585C62.6267 61.5566 62.4312 61.0525 62.044 60.6481C61.6607 60.2398 61.193 60.0347 60.641 60.0347Z" fill="white"/>
<path d="M74.4349 65.7388H72.8248L69.5281 61.3304V65.7388H67.8184V58.5703H69.4284L72.7328 62.9941V58.5703H74.4349V65.7388Z" fill="white"/>
<path d="M52.6227 46.4141H14.4609V8.21973H52.6227V46.4141ZM15.0705 45.8045H52.0132V8.82924H15.0705V45.8045Z" fill="white"/>
<path d="M56.071 42.5539H17.9111V4.35962H56.071V42.5539ZM18.5187 41.9444H55.4614V4.96913H18.5187V41.9444Z" fill="white"/>
<path d="M59.7243 39.0195H21.5645V0.823242H59.7243V39.0195ZM22.174 38.41H59.1167V1.43276H22.174V38.41Z" fill="white"/>
<path d="M26.6992 25.6965H35.1385V34.1377H26.6992V25.6965Z" fill="white"/>
</svg>
