<svg width="70" height="66" viewBox="0 0 70 66" fill="none" xmlns="http://www.w3.org/2000/svg">
<path d="M0 55.939H1.0865V47.2908H0V55.939Z" fill="white"/>
<path d="M11.7483 47.2908V53.9623L6.90472 47.2908H5.91699V55.939H6.97974V49.1937L11.8959 55.939H12.8098V47.2908H11.7483Z" fill="white"/>
<path d="M23.4367 47.2908L20.6823 54.3211L17.8892 47.2908H16.6914L20.1872 55.939H21.1887L24.6232 47.2908H23.4367Z" fill="white"/>
<path d="M28.5391 55.939H29.6256V47.2908H28.5391V55.939Z" fill="white"/>
<path d="M37.0384 56.0502C38.755 56.0502 40.0903 55.1237 40.0903 53.4921C40.0903 51.6892 38.5575 51.3303 37.1984 50.9965C36.0869 50.7377 35.0867 50.4902 35.0867 49.5512C35.0867 48.7235 35.8768 48.2296 36.9271 48.2296C37.9773 48.2296 38.7675 48.786 38.7675 49.7487H39.8428C39.8428 48.1809 38.7437 47.1919 36.9521 47.1919C35.1604 47.1919 34.0114 48.0934 34.0114 49.5887C34.0114 51.3178 35.4817 51.6767 36.8158 51.9855C37.9398 52.2568 38.965 52.4919 38.965 53.5046C38.965 54.4198 38.1136 54.9874 37.0259 54.9874C35.8281 54.9874 34.9504 54.3573 34.9504 53.2833H33.8389C33.8389 54.9874 35.1354 56.0502 37.0384 56.0502Z" fill="white"/>
<path d="M44.3037 55.939H45.3902V47.2908H44.3037V55.939Z" fill="white"/>
<path d="M54.1627 56.0879C56.7821 56.0879 58.6838 54.1724 58.6838 51.6268C58.6838 49.07 56.7821 47.1545 54.1627 47.1545C51.5434 47.1545 49.6279 49.07 49.6279 51.6268C49.6279 54.1724 51.5434 56.0879 54.1627 56.0879ZM54.1627 55.0251C52.1985 55.0251 50.7407 53.5548 50.7407 51.6268C50.7407 49.6876 52.1985 48.2173 54.1627 48.2173C56.1269 48.2173 57.5848 49.6751 57.5848 51.6268C57.5848 53.5673 56.1269 55.0251 54.1627 55.0251Z" fill="white"/>
<path d="M68.7649 47.2908V53.9623L63.9213 47.2908H62.9336V55.939H63.9963V49.1937L68.9125 55.939H69.8264V47.2908H68.7649Z" fill="white"/>
<path d="M16.7823 65.4568C17.46 65.4568 17.9876 65.0917 17.9876 64.4478C17.9876 63.7351 17.3825 63.5938 16.8461 63.4613C16.4072 63.3588 16.0121 63.2613 16.0121 62.8912C16.0121 62.5649 16.3235 62.3686 16.7386 62.3686C17.1537 62.3686 17.465 62.5886 17.465 62.9687H17.8901C17.8901 62.3498 17.455 61.9597 16.7486 61.9597C16.0409 61.9597 15.587 62.316 15.587 62.9062C15.587 63.5888 16.1672 63.7301 16.6948 63.8527C17.1387 63.9589 17.5437 64.0514 17.5437 64.4515C17.5437 64.8129 17.2062 65.0379 16.7773 65.0379C16.3047 65.0379 15.9584 64.7891 15.9584 64.364H15.5195C15.5195 65.0379 16.0309 65.4568 16.7823 65.4568Z" fill="white"/>
<path d="M25.9833 65.8232L25.3194 65.0568C25.6958 64.7355 25.9196 64.2616 25.9196 63.7102C25.9196 62.7012 25.1681 61.9448 24.1342 61.9448C23.1002 61.9448 22.3438 62.7012 22.3438 63.7102C22.3438 64.7155 23.1002 65.4719 24.1342 65.4719C24.4467 65.4719 24.7393 65.4031 24.9881 65.2768L25.457 65.8232H25.9833ZM24.1342 65.0518C23.359 65.0518 22.7839 64.4717 22.7839 63.7102C22.7839 62.9451 23.359 62.3649 24.1342 62.3649C24.9106 62.3649 25.4857 62.9401 25.4857 63.7102C25.4857 64.1253 25.3144 64.4867 25.0369 64.7255L24.4217 64.0128H23.9004L24.7005 64.9405C24.5293 65.013 24.3392 65.0518 24.1342 65.0518Z" fill="white"/>
<path d="M31.825 65.4718C32.5914 65.4718 33.1615 64.9205 33.1615 64.1453V61.9985H32.7327V64.1103C32.7327 64.6767 32.3526 65.0517 31.825 65.0517C31.2936 65.0517 30.9185 64.6767 30.9185 64.1103V61.9985H30.4834V64.1453C30.4834 64.9205 31.0548 65.4718 31.825 65.4718Z" fill="white"/>
<path d="M40.3428 65.4131H40.8066L39.3726 61.9985H38.9725L37.5771 65.4131H38.031L38.3623 64.5979H40.0065L40.3428 65.4131ZM39.1775 62.5887L39.8464 64.2028H38.5236L39.1775 62.5887Z" fill="white"/>
<path d="M47.25 65.4131H47.7338L46.9136 64.0278C47.3625 63.9015 47.67 63.5251 47.67 63.0425C47.67 62.4374 47.1974 61.9985 46.5573 61.9985H45.2607V65.4131H45.6896V64.0815H46.4648L47.25 65.4131ZM45.6896 62.4086H46.5335C46.9524 62.4086 47.2312 62.6762 47.2312 63.0425C47.2312 63.4076 46.9524 63.6714 46.5335 63.6714H45.6896V62.4086Z" fill="white"/>
<path d="M52.7335 65.003V63.8565H54.1089V63.4614H52.7335V62.4086H54.2364V61.9985H52.3047V65.4131H54.2901V65.003H52.7335Z" fill="white"/>
<path d="M19.402 3.62012H27.5426L26.4723 4.66036H19.9221V11.2031L18.8818 12.2809V3.62012H19.402ZM30.5045 3.62012H39.324L40.3643 4.66036H29.4643L30.5045 3.62012ZM42.316 3.62012H50.9767V12.2809L49.9065 11.2106V4.66036H43.3637L42.316 3.62012ZM50.9767 15.244V24.0623L49.9065 25.1026V14.2038L50.9767 15.244ZM50.9767 27.0555V35.7163H42.316L43.3562 34.646H49.899V28.1033L50.9767 27.0555ZM39.324 35.7163H30.5045L29.4643 34.646H40.3643L39.324 35.7163ZM27.5426 35.7163H18.8818V27.0555L19.9221 28.0957V34.6385H26.4648L27.5426 35.7163ZM18.8818 24.0623V15.244L19.9221 14.2038V25.1026L18.8818 24.0623Z" fill="white"/>
<path d="M38.9315 0.98953L53.7736 15.8317V23.5122L38.7664 38.5119H31.0922L16.085 23.5047C16.085 20.9341 16.085 18.3648 16.085 15.8242C21.0674 10.8193 26.0798 5.80689 31.0922 0.823242H38.7739L38.9315 0.98953ZM52.7034 16.253L38.3138 1.86348H31.5148L17.1252 16.253V23.0521L31.5073 37.4342H38.3063L52.6884 23.0521V16.253H52.7034Z" fill="white"/>
<path d="M35.2831 3.9827L39.0902 7.78858H37.5899L34.9293 5.09046L32.2312 7.78858H30.7683L34.9293 3.62012L35.2831 3.9827ZM41.2082 9.90656L44.6903 13.3899V14.8515L39.7079 9.90656H41.2082ZM46.8083 15.5003L50.9767 19.6676L46.8083 23.836V22.3369L49.4776 19.6676L46.8083 16.9694V15.5003ZM44.6903 25.9465L41.2082 29.4298H39.7079L44.6903 24.4474V25.9465ZM39.0977 31.5478L34.9293 35.7163L30.7608 31.5478H32.2237L34.9293 34.2159L37.5974 31.5478H39.0977ZM28.6503 29.4298L25.1683 25.9465V24.4474L30.1132 29.4298H28.6503ZM23.0503 23.836L18.8818 19.6676L23.0503 15.5003V16.9619L20.3509 19.6676L23.0503 22.3369V23.836ZM25.1683 13.3899L28.6503 9.90656H30.1132L25.1683 14.8515V13.3899Z" fill="white"/>
<path d="M46.258 12.4098V27.1232L42.5422 30.8615L42.1508 30.9903H27.67L27.3162 30.8615L23.5703 27.1157V12.1835L27.4437 8.30884H42.3834L46.258 12.1835V12.4098ZM45.2103 26.7006V12.6361L41.9545 9.34908H27.8963L24.6106 12.6361V26.6931L27.8963 29.9501H41.9545L45.2103 26.7006Z" fill="white"/>
<path d="M35.2828 8.89649L39.2862 12.8999L34.9289 17.2934L30.5342 12.8999L34.9289 8.53516L35.2828 8.89649ZM37.8234 12.8999L34.9289 9.96674L31.997 12.8999L34.9289 15.8318L37.8234 12.8999Z" fill="white"/>
<path d="M45.6997 20.0225L41.6675 24.0247L37.3027 19.6674L41.6675 15.2739L46.061 19.6674L45.6997 20.0225ZM41.6675 22.6006L44.5994 19.6674L41.6675 16.7355L38.7656 19.6674L41.6675 22.6006Z" fill="white"/>
<path d="M34.5744 30.4401L30.541 26.4067L34.9358 22.0432L39.3005 26.4067L34.9283 30.8015L34.5744 30.4401ZM31.9964 26.4067L34.9283 29.3386L37.8227 26.4067L34.9283 23.5048L31.9964 26.4067Z" fill="white"/>
<path d="M24.1575 19.3137L28.1597 15.2815L32.5544 19.6763L28.1597 24.0398L23.7949 19.6675L24.1575 19.3137ZM28.1597 16.7356L25.2278 19.6675L28.1597 22.6007L31.0916 19.6675L28.1597 16.7356Z" fill="white"/>
<path d="M35.2822 16.1555L38.7955 19.6676L34.9284 23.5422L31.0537 19.6676L34.9284 15.7942L35.2822 16.1555ZM37.3402 19.6676L34.9284 17.2558L32.5165 19.6676L34.9284 22.0806L37.3402 19.6676Z" fill="white"/>
</svg>
