<svg width="106" height="31" viewBox="0 0 106 31" fill="none" xmlns="http://www.w3.org/2000/svg">
<path fill-rule="evenodd" clip-rule="evenodd" d="M0 0.823242H105.298V30.8232H0V0.823242ZM1.42857 2.25181V29.3947H103.869V2.25181H1.42857Z" fill="white"/>
<path d="M3.52148 4.22534H52.6271V27.4396H3.52148V4.22534Z" fill="white"/>
<path d="M9.73938 19.7531H10.6539L13.7526 11.9514H12.7156L11.4119 15.2392L10.1967 18.3378L8.97053 15.2392L7.67775 11.9514H6.62988L9.73938 19.7531Z" fill="#090909"/>
<path d="M15.9229 19.7531H16.9041V11.9514H15.9229V19.7531Z" fill="#090909"/>
<path d="M22.6218 19.8974C24.3269 19.8974 25.4305 19.0619 25.4305 17.7025C25.4305 16.5539 24.6617 15.8641 22.6667 15.3727C21.1507 15.0053 20.6485 14.6038 20.6485 13.9574C20.6485 13.2103 21.3181 12.7422 22.4326 12.7422C23.5797 12.7422 24.2928 13.3219 24.316 14.2582H25.2848C25.274 12.7422 24.1812 11.8059 22.4326 11.8059C20.726 11.8059 19.6456 12.643 19.6456 13.9574C19.6456 15.1619 20.5043 15.83 22.4202 16.2872C23.8246 16.6205 24.4152 17.0111 24.4152 17.7366C24.4152 18.5054 23.7254 18.9612 22.6218 18.9612C21.4065 18.9612 20.5601 18.3597 20.5369 17.3568H19.5557C19.5681 18.8837 20.7601 19.8974 22.6218 19.8974Z" fill="#090909"/>
<path d="M28.0801 19.7531H29.0613V11.9514H28.0801V19.7531Z" fill="#090909"/>
<path d="M35.7253 19.8974C38.1001 19.8974 39.7711 18.2264 39.7711 15.8517C39.7711 13.4785 38.1001 11.8059 35.7253 11.8059C33.3506 11.8059 31.6904 13.4785 31.6904 15.8517C31.6904 18.2264 33.3506 19.8974 35.7253 19.8974ZM32.6933 15.8517C32.6933 14.035 33.9303 12.7871 35.7253 12.7871C37.5204 12.7871 38.7573 14.035 38.7573 15.8517C38.7573 17.6684 37.5204 18.9178 35.7253 18.9178C33.9303 18.9178 32.6933 17.6684 32.6933 15.8517Z" fill="#090909"/>
<path d="M42.3867 19.7531H43.3571V13.6457L47.671 19.7531H48.584V11.9514H47.6261V18.0588L43.3121 11.9514H42.3867V19.7531Z" fill="#090909"/>
<path d="M59.8072 19.6831C61.7463 19.6831 62.8934 18.7685 62.8934 17.2308C62.8934 15.9381 62.0579 15.1801 60.1637 14.7569C59.1608 14.5337 58.7934 14.2888 58.7934 13.8873C58.7934 13.5075 59.1267 13.2734 59.6506 13.2734C60.2753 13.2734 60.6318 13.5974 60.6318 14.188H62.7492C62.7492 12.5836 61.5231 11.5466 59.6056 11.5466C57.7672 11.5466 56.631 12.4612 56.631 13.9322C56.631 15.2467 57.4882 16.0605 59.2491 16.3953C60.1962 16.5845 60.6535 16.8743 60.6535 17.3208C60.6535 17.7098 60.3202 17.933 59.7731 17.933C59.1267 17.933 58.7484 17.5874 58.7484 16.9859H56.5752C56.5752 18.6693 57.7781 19.6831 59.8072 19.6831Z" fill="white"/>
<path d="M65.9929 19.5158H68.2328V13.7974H70.6076V11.7141H63.6182V13.7974H65.9929V19.5158Z" fill="white"/>
<path d="M75.0969 19.6832C77.2034 19.6832 78.5086 18.4012 78.5086 16.3055V11.7141H76.2672V16.1613C76.2672 17.0868 75.8781 17.5766 75.0969 17.5766C74.3172 17.5766 73.9265 17.0868 73.9265 16.1613V11.7141H71.6758V16.3055C71.6758 18.4012 72.9903 19.6832 75.0969 19.6832Z" fill="white"/>
<path d="M80.1016 19.5158H83.4126C85.9315 19.5158 87.6025 17.9672 87.6025 15.6142C87.6025 13.2735 85.9315 11.7141 83.4126 11.7141H80.1016V19.5158ZM82.3523 17.4991V13.7308H83.3444C84.5379 13.7308 85.3068 14.4671 85.3068 15.6142C85.3068 16.7628 84.5379 17.4991 83.3444 17.4991H82.3523Z" fill="white"/>
<path d="M88.8057 19.5158H91.0564V11.7141H88.8057V19.5158Z" fill="white"/>
<path d="M96.507 19.6831C98.9918 19.6831 100.753 17.9997 100.753 15.6141C100.753 13.23 98.9918 11.5466 96.507 11.5466C94.0222 11.5466 92.2598 13.23 92.2598 15.6141C92.2598 17.9997 94.0222 19.6831 96.507 19.6831ZM94.5446 15.6141C94.5446 14.4438 95.3584 13.6315 96.507 13.6315C97.6665 13.6315 98.4679 14.4438 98.4679 15.6141C98.4679 16.7844 97.6665 17.5982 96.507 17.5982C95.3584 17.5982 94.5446 16.7844 94.5446 15.6141Z" fill="white"/>
</svg>
