<svg width="75" height="66" viewBox="0 0 75 66" fill="none" xmlns="http://www.w3.org/2000/svg">
<path d="M37.4733 1.79315C28.3017 1.79315 20.84 9.25486 20.84 18.4264C20.84 27.5979 28.3017 35.058 37.4733 35.058C46.6448 35.058 54.1049 27.5979 54.1049 18.4264C54.1049 9.25486 46.6448 1.79315 37.4733 1.79315ZM37.4733 36.0295C27.7677 36.0295 19.8701 28.1319 19.8701 18.4264C19.8701 8.72085 27.7677 0.823242 37.4733 0.823242C47.1788 0.823242 55.0764 8.72085 55.0764 18.4264C55.0764 28.1319 47.1788 36.0295 37.4733 36.0295Z" fill="white"/>
<path d="M37.4727 3.93392C29.4818 3.93392 22.9803 10.4354 22.9803 18.4263C22.9803 26.4172 29.4818 32.9186 37.4727 32.9186C45.4636 32.9186 51.965 26.4172 51.965 18.4263C51.965 10.4354 45.4636 3.93392 37.4727 3.93392ZM37.4727 33.8885C28.9461 33.8885 22.0088 26.9528 22.0088 18.4263C22.0088 9.89975 28.9461 2.9624 37.4727 2.9624C45.9992 2.9624 52.9349 9.89975 52.9349 18.4263C52.9349 26.9528 45.9992 33.8885 37.4727 33.8885Z" fill="white"/>
<path d="M37.4734 6.07318C30.6615 6.07318 25.1203 11.6144 25.1203 18.4263C25.1203 25.2382 30.6615 30.7793 37.4734 30.7793C44.2853 30.7793 49.8265 25.2382 49.8265 18.4263C49.8265 11.6144 44.2853 6.07318 37.4734 6.07318ZM37.4734 31.7493C30.1275 31.7493 24.1504 25.7722 24.1504 18.4263C24.1504 11.0804 30.1275 5.10327 37.4734 5.10327C44.8193 5.10327 50.7964 11.0804 50.7964 18.4263C50.7964 25.7722 44.8193 31.7493 37.4734 31.7493Z" fill="white"/>
<path d="M37.4728 8.21259C31.8415 8.21259 27.259 12.7951 27.259 18.4264C27.259 24.0577 31.8415 28.6402 37.4728 28.6402C43.104 28.6402 47.6866 24.0577 47.6866 18.4264C47.6866 12.7951 43.104 8.21259 37.4728 8.21259ZM37.4728 29.6101C31.3059 29.6101 26.2891 24.5933 26.2891 18.4264C26.2891 12.2595 31.3059 7.24268 37.4728 7.24268C43.6397 7.24268 48.6565 12.2595 48.6565 18.4264C48.6565 24.5933 43.6397 29.6101 37.4728 29.6101Z" fill="white"/>
<path d="M37.4741 10.3534C33.0219 10.3534 29.4012 13.974 29.4012 18.4263C29.4012 22.8785 33.0219 26.4992 37.4741 26.4992C41.9264 26.4992 45.5471 22.8785 45.5471 18.4263C45.5471 13.974 41.9264 10.3534 37.4741 10.3534ZM37.4741 27.4707C32.4879 27.4707 28.4297 23.4126 28.4297 18.4263C28.4297 13.4384 32.4879 9.38184 37.4741 9.38184C42.4604 9.38184 46.5186 13.4384 46.5186 18.4263C46.5186 23.4126 42.4604 27.4707 37.4741 27.4707Z" fill="white"/>
<path d="M37.4739 12.4928C34.2022 12.4928 31.5402 15.1548 31.5402 18.4264C31.5402 21.6981 34.2022 24.3601 37.4739 24.3601C40.7455 24.3601 43.4075 21.6981 43.4075 18.4264C43.4075 15.1548 40.7455 12.4928 37.4739 12.4928ZM37.4739 25.33C33.6666 25.33 30.5703 22.2337 30.5703 18.4264C30.5703 14.6192 33.6666 11.5212 37.4739 11.5212C41.2811 11.5212 44.3775 14.6192 44.3775 18.4264C44.3775 22.2337 41.2811 25.33 37.4739 25.33Z" fill="white"/>
<path d="M37.4743 14.632C35.3816 14.632 33.6799 16.3338 33.6799 18.4264C33.6799 20.5174 35.3816 22.2208 37.4743 22.2208C39.5669 22.2208 41.2687 20.5174 41.2687 18.4264C41.2687 16.3338 39.5669 14.632 37.4743 14.632ZM37.4743 23.1907C34.8476 23.1907 32.71 21.053 32.71 18.4264C32.71 15.7998 34.8476 13.6621 37.4743 13.6621C40.1009 13.6621 42.2386 15.7998 42.2386 18.4264C42.2386 21.053 40.1009 23.1907 37.4743 23.1907Z" fill="white"/>
<path d="M37.4746 16.7712C36.5626 16.7712 35.8195 17.5143 35.8195 18.4263C35.8195 19.3383 36.5626 20.0798 37.4746 20.0798C38.3866 20.0798 39.1298 19.3383 39.1298 18.4263C39.1298 17.5143 38.3866 16.7712 37.4746 16.7712ZM37.4746 21.0513C36.027 21.0513 34.8496 19.8739 34.8496 18.4263C34.8496 16.9787 36.027 15.8013 37.4746 15.8013C38.9223 15.8013 40.0997 16.9787 40.0997 18.4263C40.0997 19.8739 38.9223 21.0513 37.4746 21.0513Z" fill="white"/>
<path d="M4.85116 54.026C3.13974 54.026 1.88031 53.6754 1.07446 52.9709C0.357081 52.35 0 51.5007 0 50.4231C0 49.347 0.357081 48.4961 1.07446 47.8688C1.88031 47.1707 3.13974 46.8201 4.85116 46.8201C5.85485 46.8201 6.68482 46.9359 7.34108 47.1675C7.99733 47.3959 8.50561 47.7079 8.86591 48.1068C9.22942 48.5057 9.4723 48.9626 9.59294 49.4773H6.53684C6.23123 48.9416 5.66987 48.673 4.85116 48.673C4.14665 48.673 3.63033 48.8757 3.30059 49.2778C3.03841 49.5995 2.90812 49.9823 2.90812 50.4231C2.90812 50.8654 3.03841 51.2466 3.30059 51.5683C3.63033 51.972 4.14665 52.1731 4.85116 52.1731C5.66987 52.1731 6.23123 51.9028 6.53684 51.3624H9.59294C9.4723 51.8819 9.22942 52.3404 8.86591 52.7393C8.50561 53.1382 7.99733 53.4534 7.34108 53.685C6.68482 53.9118 5.85485 54.026 4.85116 54.026Z" fill="white"/>
<path d="M20.1985 53.878H17.4576C17.3289 53.7026 17.2389 53.479 17.1874 53.2088C17.144 53.0029 17.078 52.8003 16.9879 52.5976C16.8979 52.3965 16.7402 52.2293 16.5183 52.0958C16.2995 51.9639 15.973 51.8899 15.5403 51.877H13.6552V53.878H10.7471V46.9551H15.4695C16.6019 46.9551 17.5123 47.0387 18.204 47.206C18.8988 47.3733 19.4039 47.6403 19.7224 48.0038C20.0392 48.3641 20.1985 48.837 20.1985 49.4193C20.1985 49.905 20.0891 50.3136 19.8703 50.6481C19.6516 50.9795 19.3042 51.2401 18.828 51.4331C19.2865 51.6229 19.584 51.8497 19.7224 52.1151C19.8591 52.3821 19.9427 52.6732 19.9733 52.9901C20.0071 53.2732 20.0827 53.5691 20.1985 53.878ZM13.6552 50.172L15.3151 50.1656C15.7784 50.1656 16.1419 50.1463 16.4089 50.1077C16.6743 50.0659 16.8689 50.008 16.9944 49.934C17.1231 49.8616 17.2035 49.7828 17.2389 49.6959C17.2775 49.6058 17.2968 49.5142 17.2968 49.4193C17.2968 49.326 17.2775 49.2327 17.2389 49.1426C17.2035 49.0525 17.1231 48.9721 16.9944 48.8981C16.8689 48.8257 16.6743 48.7694 16.4089 48.7308C16.1419 48.689 15.7784 48.6665 15.3151 48.6665H13.6552V50.172Z" fill="white"/>
<path d="M29.6909 53.878H21.3525V46.9551H29.3113V48.6665H24.2607V49.7538H28.5263V51.0856H24.2607V52.1665H29.6909V53.878Z" fill="white"/>
<path d="M41.7043 53.878H38.7576L38.1077 52.7456H33.7391L33.0893 53.878H30.1426L34.5755 46.9551H37.2713L41.7043 53.878ZM37.1298 51.0277L35.9267 48.9303L34.7171 51.0277H37.1298Z" fill="white"/>
<path d="M47.6744 53.8782H44.7727V48.6667H42.0576V46.9553H50.3895V48.6667H47.6744V53.8782Z" fill="white"/>
<path d="M54.3515 53.878H51.4434V46.9551H54.3515V53.878Z" fill="white"/>
<path d="M61.7704 53.878H59.0681L55.1885 46.9551H58.1352L60.4192 51.9027L62.7033 46.9551H65.65L61.7704 53.878Z" fill="white"/>
<path d="M74.8256 53.8782H66.4873V46.9553H74.446V48.6667H69.3954V49.7541H73.6611V51.0859H69.3954V52.1668H74.8256V53.8782Z" fill="white"/>
<path d="M15.0879 65.8232C14.1517 65.8232 13.3974 65.7219 12.8231 65.5208C12.2521 65.3198 11.8162 65.0431 11.5171 64.6909C11.2163 64.3402 11.0152 63.9349 10.9123 63.4749H14.0006C14.2273 63.8014 14.5893 63.9638 15.0879 63.9638C15.5849 63.9638 15.95 63.8014 16.1816 63.4749C16.1977 63.4411 16.2074 63.4105 16.2074 63.3848C16.2074 63.2995 16.0916 63.2352 15.8599 63.1918C15.6315 63.15 15.2889 63.1178 14.8305 63.0953C14.2547 63.0695 13.6499 63.0084 13.0162 62.9087C11.6039 62.6899 10.8994 62.1221 10.8994 61.2037C10.8994 61.1265 10.9026 61.0461 10.9123 60.9592C11.0152 60.5008 11.2163 60.0955 11.5171 59.7432C11.8162 59.3926 12.2521 59.1159 12.8231 58.9132C13.3974 58.7122 14.1517 58.6108 15.0879 58.6108C16.0224 58.6108 16.7752 58.7122 17.3462 58.9132C17.9204 59.1159 18.3579 59.3926 18.6587 59.7432C18.9579 60.0955 19.1605 60.5008 19.2635 60.9592H16.1816C15.95 60.6343 15.5849 60.4702 15.0879 60.4702C14.5893 60.4702 14.2273 60.6343 14.0006 60.9592C13.9829 60.9849 13.9748 61.0091 13.9748 61.03C13.9748 61.1072 14.0842 61.1651 14.3029 61.2037C14.5249 61.2423 14.8514 61.2745 15.2809 61.3002C15.7088 61.3259 16.1656 61.3694 16.6513 61.4289C17.1355 61.4852 17.5907 61.5833 18.0153 61.7248C18.4399 61.8664 18.7697 62.0787 19.0061 62.3618C19.1943 62.5773 19.2892 62.8492 19.2892 63.1789C19.2892 63.2738 19.2796 63.3719 19.2635 63.4749C19.1605 63.9349 18.9579 64.3402 18.6587 64.6909C18.3579 65.0431 17.9204 65.3198 17.3462 65.5208C16.7752 65.7219 16.0224 65.8232 15.0879 65.8232Z" fill="white"/>
<path d="M25.5748 65.6753H22.6731V60.4639H19.958V58.7524H28.2899V60.4639H25.5748V65.6753Z" fill="white"/>
<path d="M33.4437 65.8233C31.7532 65.8233 30.5645 65.4743 29.8793 64.7746C29.3003 64.1826 29.0107 63.3318 29.0107 62.2203V58.7524H31.9124V62.2203C31.9124 62.7012 31.9929 63.0825 32.1569 63.3655C32.3918 63.7644 32.8212 63.9639 33.4437 63.9639C34.0694 63.9639 34.4989 63.7644 34.7305 63.3655C34.8929 63.0744 34.975 62.6932 34.975 62.2203V58.7524H37.8831V62.2589C37.8831 63.3446 37.5952 64.1826 37.0209 64.7746C36.3261 65.4743 35.1326 65.8233 33.4437 65.8233Z" fill="white"/>
<path d="M43.7135 65.6753H39.0811V58.7524H43.7135C45.6082 58.7524 46.9706 59.0162 47.799 59.5438C48.4681 59.9733 48.8493 60.5571 48.9442 61.2938C48.986 61.6123 49.0086 61.9179 49.0086 62.2139C49.0086 62.5066 48.986 62.8122 48.9442 63.1339C48.9056 63.4556 48.7978 63.7677 48.6225 64.0668C48.4504 64.3676 48.1754 64.6378 47.799 64.8775C47.421 65.1188 46.9015 65.3118 46.242 65.4566C45.5857 65.6029 44.7429 65.6753 43.7135 65.6753ZM43.4368 63.9639C44.9166 63.9639 45.753 63.5907 45.946 62.8444C45.9975 62.6353 46.0232 62.4246 46.0232 62.2139C46.0232 62.0048 45.9943 61.7957 45.9396 61.5898C45.8881 61.3807 45.7755 61.1909 45.605 61.0236C45.4329 60.8531 45.174 60.718 44.8265 60.6183C44.4823 60.5153 44.0191 60.4639 43.4368 60.4639H41.9892V63.9639H43.4368Z" fill="white"/>
<path d="M53.0683 65.6753H50.1602V58.7524H53.0683V65.6753Z" fill="white"/>
<path d="M59.0719 65.8232C57.3604 65.8232 56.101 65.4726 55.2952 64.7681C54.5778 64.1424 54.2207 63.2915 54.2207 62.2138C54.2207 61.1426 54.5778 60.2933 55.2952 59.666C56.101 58.9631 57.3604 58.6108 59.0719 58.6108C60.7833 58.6108 62.0411 58.9631 62.8486 59.666C63.5643 60.2933 63.923 61.1426 63.923 62.2138C63.923 63.2915 63.5643 64.1424 62.8486 64.7681C62.0411 65.4726 60.7833 65.8232 59.0719 65.8232ZM59.0719 63.9638C59.7699 63.9638 60.2847 63.7644 60.616 63.3655C60.8766 63.0406 61.0085 62.6562 61.0085 62.2138C61.0085 61.7731 60.8766 61.3903 60.616 61.0686C60.2847 60.6665 59.7699 60.4638 59.0719 60.4638C58.3673 60.4638 57.851 60.6665 57.5213 61.0686C57.2591 61.3903 57.1288 61.7731 57.1288 62.2138C57.1288 62.6562 57.2591 63.0406 57.5213 63.3655C57.851 63.7644 58.3673 63.9638 59.0719 63.9638Z" fill="white"/>
</svg>
