<svg width="50" height="44" viewBox="0 0 50 44" fill="none" xmlns="http://www.w3.org/2000/svg">
<path d="M49.9935 22.261V22.248C49.9974 22.2311 50 22.2142 50 22.1959C50 22.179 49.9974 22.1621 49.9935 22.1451C49.9935 22.1451 49.9935 22.136 49.9935 22.1321C49.9896 22.1191 49.9844 22.1074 49.9792 22.0957C49.9792 22.0931 49.9792 22.0892 49.9792 22.0865L37.582 0.677694V0.671183C37.5755 0.659464 37.5664 0.649048 37.5573 0.639933C37.5547 0.636027 37.5521 0.632121 37.5482 0.629517C37.5352 0.617798 37.5208 0.606079 37.5065 0.598267C37.4883 0.589152 37.4701 0.582642 37.4505 0.578735C37.4466 0.577433 37.4427 0.577433 37.4375 0.578735C37.4245 0.576131 37.4115 0.576131 37.3984 0.578735H12.5977C12.5833 0.576131 12.5703 0.576131 12.5573 0.578735C12.5534 0.577433 12.5482 0.577433 12.5443 0.578735C12.5273 0.582642 12.5117 0.589152 12.4961 0.598267C12.4805 0.606079 12.4674 0.617798 12.4544 0.629517C12.4505 0.633423 12.4479 0.636027 12.444 0.639933C12.4349 0.649048 12.4271 0.660767 12.4206 0.671183V0.677694L0.0221354 22.0865C0.0221354 22.0892 0.0221354 22.0931 0.0221354 22.0957C0.0156248 22.1074 0.0104168 22.1191 0.0078125 22.1321C0.0078125 22.1321 0.0078125 22.1399 0.0078125 22.1451C0.00260417 22.1621 0 22.179 0 22.1959C0 22.2142 0.00260417 22.2311 0.0078125 22.248V22.261C0.0104168 22.274 0.0156248 22.2871 0.0221354 22.2988C0.0221354 22.2988 0.0221354 22.304 0.0221354 22.3066L12.4141 43.7155V43.7233C12.4219 43.7337 12.4297 43.7441 12.4388 43.7545L12.4492 43.7649C12.4609 43.7767 12.4753 43.7871 12.4909 43.7962C12.5065 43.804 12.5221 43.8105 12.5391 43.8157C12.5586 43.8209 12.5768 43.8235 12.5964 43.8235H37.3854C37.4049 43.8235 37.4232 43.8209 37.4427 43.8157C37.4596 43.8105 37.4753 43.804 37.4909 43.7962C37.5065 43.7871 37.5195 43.7767 37.5326 43.7649L37.5417 43.7545C37.5508 43.7441 37.5586 43.7337 37.5664 43.7233V43.7155L49.9753 22.3066C49.9753 22.3066 49.9753 22.3014 49.9753 22.2988C49.9831 22.2871 49.9883 22.274 49.9935 22.261ZM37.3919 43.1673L25.3828 22.416H49.3997L37.3919 43.1673ZM12.6068 1.22717L24.6146 21.9772H0.595052L12.6068 1.22717ZM25.0013 21.7571L12.9935 1.00842H37.0104L25.0013 21.7571ZM25.0013 22.636L37.0104 43.386H12.9935L25.0013 22.636ZM25.3841 21.9772L26.0312 20.8587C26.0339 20.8717 26.0365 20.8847 26.0417 20.8977C26.069 20.9615 26.1185 20.9941 26.1888 20.9941C26.2578 20.9941 26.3073 20.9615 26.3346 20.8977C26.3424 20.8782 26.3464 20.8574 26.3464 20.8365C26.3464 20.804 26.3372 20.7754 26.319 20.748C26.2878 20.7011 26.2448 20.6777 26.1888 20.6777C26.1667 20.6777 26.1471 20.6829 26.1276 20.6907L27.7799 17.8339C27.7878 17.8352 27.7943 17.8352 27.8021 17.8339C27.8385 17.8261 27.8698 17.8079 27.8932 17.7793C27.9167 17.7506 27.9284 17.7168 27.9284 17.679C27.9284 17.6556 27.9219 17.6321 27.9115 17.6113L30.0794 13.8652C30.1016 13.8756 30.125 13.8808 30.1497 13.8821C30.194 13.8821 30.2318 13.8665 30.2617 13.8352C30.293 13.804 30.3086 13.7675 30.3086 13.7233C30.3086 13.6673 30.2852 13.623 30.2383 13.5918L32.3997 9.85608C32.431 9.90165 32.474 9.92379 32.5299 9.92379C32.5716 9.92249 32.6068 9.90686 32.6354 9.87821C32.6654 9.84827 32.681 9.81311 32.6823 9.77144C32.6836 9.72978 32.6719 9.69332 32.6445 9.66207C32.6172 9.63082 32.5833 9.61259 32.5417 9.60868L34.2135 6.72196C34.2461 6.69592 34.2656 6.66207 34.2708 6.6191L34.7539 5.78707C34.7539 5.79358 34.7539 5.80009 34.7539 5.8066C34.7539 5.84957 34.7695 5.88733 34.8008 5.91858C34.832 5.94853 34.8685 5.96415 34.9128 5.96415C34.957 5.96415 34.9935 5.94853 35.0247 5.91858C35.056 5.88733 35.0716 5.84957 35.0716 5.8066C35.0716 5.76233 35.056 5.72587 35.0247 5.69462C34.9935 5.66337 34.957 5.64775 34.9128 5.64775C34.8776 5.64775 34.8464 5.65816 34.8177 5.6803L36.4857 2.79879H36.4987C36.5651 2.79879 36.612 2.77014 36.6419 2.71155C36.6706 2.65426 36.6654 2.59827 36.6263 2.54618L37.3919 1.22717L38.1198 2.48629C38.1081 2.48499 38.0951 2.48499 38.0833 2.48629C38.043 2.48499 38.0065 2.49931 37.9766 2.52665C37.9453 2.554 37.9284 2.58785 37.9245 2.62821C37.9206 2.66858 37.9297 2.70504 37.9544 2.73889C37.9792 2.77144 38.0117 2.79098 38.0521 2.79879C38.0924 2.8066 38.1302 2.80009 38.1654 2.77926C38.1992 2.75712 38.2227 2.72717 38.2344 2.68811L40.4128 6.44983H40.401C40.3372 6.47848 40.3047 6.52665 40.3047 6.59696C40.3047 6.66598 40.3372 6.71545 40.401 6.7428C40.4206 6.75061 40.4414 6.75452 40.4635 6.75452C40.4948 6.75452 40.5247 6.7454 40.5508 6.72848C40.5573 6.72848 40.5625 6.71806 40.5677 6.71415L42.7266 10.4498C42.6797 10.5006 42.6706 10.5579 42.6979 10.6204C42.7253 10.6842 42.7734 10.7155 42.8424 10.7155C42.8542 10.7181 42.8659 10.7181 42.8776 10.7155L45.0677 14.4967C45.0599 14.5254 45.0625 14.5527 45.0755 14.58C45.0938 14.6191 45.1224 14.6464 45.1628 14.6634L46.8151 17.5267H46.8047C46.7826 17.5267 46.763 17.5306 46.7422 17.5397C46.6784 17.567 46.6458 17.6152 46.6458 17.6855C46.6458 17.7545 46.6784 17.804 46.7422 17.8313C46.763 17.8392 46.7826 17.8431 46.8047 17.8431C46.8359 17.8431 46.8659 17.8339 46.8932 17.817C46.9167 17.8001 46.9349 17.7793 46.9466 17.7545L49.1146 21.4993C49.0391 21.5358 49.0104 21.5957 49.0286 21.6777C49.0482 21.7584 49.1003 21.8001 49.1836 21.7988C49.2161 21.7988 49.2461 21.7897 49.2721 21.7727L49.3984 21.9928L25.3841 21.9772Z" fill="white"/>
<path d="M48.3953 20.6763C48.338 20.6776 48.2938 20.701 48.2625 20.7466C48.2313 20.7948 48.226 20.8442 48.2469 20.8963C48.2742 20.9601 48.3237 20.9927 48.3927 20.9927C48.463 20.9927 48.5112 20.9601 48.5398 20.8963C48.5477 20.8768 48.5529 20.856 48.5529 20.8351C48.5529 20.8026 48.5438 20.7739 48.5255 20.7466C48.4943 20.701 48.45 20.6776 48.3953 20.6763Z" fill="white"/>
<path d="M47.6019 19.8877C47.5589 19.8877 47.5212 19.902 47.4899 19.9333C47.46 19.9645 47.4443 20.001 47.4443 20.0452C47.4443 20.0882 47.4587 20.126 47.4899 20.1572C47.5212 20.1885 47.5576 20.2028 47.6019 20.2041C47.6449 20.2041 47.6826 20.1885 47.7139 20.1585C47.7451 20.1273 47.7607 20.0895 47.7607 20.0465C47.762 20.0023 47.7464 19.9645 47.7152 19.9333C47.6839 19.9033 47.6462 19.8877 47.6019 19.8877Z" fill="white"/>
<path d="M46.8973 20.7048C46.8712 20.6879 46.8413 20.6775 46.8087 20.6775C46.7827 20.6775 46.7579 20.684 46.7345 20.697C46.7111 20.71 46.6915 20.727 46.6772 20.7491C46.6629 20.7712 46.6538 20.7947 46.6512 20.8207C46.6486 20.8481 46.6525 20.8728 46.6629 20.8975C46.6798 20.9366 46.7072 20.9653 46.7475 20.9822C46.7671 20.99 46.7879 20.9939 46.8087 20.9939C46.8413 20.9939 46.8699 20.9861 46.8973 20.9679C46.9233 20.9496 46.9428 20.9262 46.9546 20.8975C46.9637 20.878 46.9676 20.8572 46.9676 20.8363C46.9676 20.8038 46.9585 20.7751 46.9402 20.7478C46.9285 20.7309 46.9142 20.7166 46.8973 20.7048Z" fill="white"/>
<path d="M46.8975 19.1228C46.8714 19.1046 46.8415 19.0955 46.8089 19.0955C46.7881 19.0955 46.7673 19.0994 46.7477 19.1085C46.6826 19.1358 46.6514 19.184 46.6514 19.2543C46.6514 19.3233 46.6826 19.3728 46.7477 19.4001C46.7673 19.408 46.7881 19.4132 46.8089 19.4132C46.8415 19.4132 46.8714 19.4041 46.8975 19.3858C46.9196 19.3702 46.9365 19.352 46.9495 19.3285C46.9613 19.3051 46.9678 19.2804 46.9678 19.2543C46.9678 19.2283 46.9613 19.2035 46.9495 19.1801C46.9365 19.1567 46.9196 19.1371 46.8975 19.1228Z" fill="white"/>
<path d="M47.6019 21.4697C47.5589 21.4697 47.5212 21.4854 47.4899 21.5153C47.46 21.5465 47.4443 21.5843 47.4443 21.6273C47.4443 21.6715 47.4587 21.708 47.4899 21.7393C47.5212 21.7705 47.5576 21.7861 47.6019 21.7861C47.6449 21.7861 47.6826 21.7705 47.7139 21.7406C47.7451 21.7093 47.7607 21.6729 47.7607 21.6286C47.762 21.5843 47.7464 21.5479 47.7152 21.5166C47.6839 21.4854 47.6462 21.4697 47.6019 21.4697Z" fill="white"/>
<path d="M44.4294 13.5577C44.3851 13.5577 44.3473 13.5734 44.3174 13.6033C44.2861 13.6346 44.2705 13.6723 44.2705 13.7153C44.2705 13.7596 44.2861 13.796 44.3174 13.8273C44.3473 13.8585 44.3851 13.8741 44.4294 13.8741C44.4723 13.8741 44.5101 13.8585 44.5413 13.8273C44.5726 13.796 44.5869 13.7596 44.5869 13.7153C44.5869 13.6723 44.5726 13.6346 44.5413 13.6033C44.5101 13.5734 44.4723 13.5577 44.4294 13.5577Z" fill="white"/>
<path d="M43.6359 14.3481C43.6098 14.3481 43.5851 14.3547 43.5617 14.3677C43.5382 14.3807 43.52 14.3976 43.5044 14.4198C43.49 14.4419 43.4809 14.4653 43.4783 14.4927C43.4757 14.5187 43.4796 14.5435 43.49 14.5682C43.5174 14.632 43.5656 14.6646 43.6359 14.6646C43.7062 14.6646 43.7544 14.632 43.7817 14.5682C43.7908 14.5487 43.7947 14.5278 43.7947 14.507C43.7947 14.4744 43.7856 14.4458 43.7674 14.4185C43.7361 14.3729 43.6932 14.3494 43.6359 14.3481Z" fill="white"/>
<path d="M43.6351 12.7649C43.5921 12.7649 43.5544 12.7805 43.5231 12.8118C43.4932 12.843 43.4775 12.8795 43.4775 12.9237C43.4775 12.9667 43.4932 13.0045 43.5231 13.0357C43.5544 13.0657 43.5921 13.0813 43.6351 13.0813C43.6794 13.0813 43.7171 13.0657 43.7484 13.0357C43.7783 13.0045 43.7939 12.9667 43.7939 12.9237C43.7939 12.8795 43.7783 12.843 43.7484 12.8118C43.7171 12.7805 43.6794 12.7649 43.6351 12.7649Z" fill="white"/>
<path d="M45.2223 17.5134C45.1781 17.5134 45.1403 17.5291 45.1104 17.559C45.0791 17.5903 45.0635 17.628 45.0635 17.671C45.0635 17.7153 45.0791 17.7517 45.1104 17.783C45.1403 17.8142 45.1781 17.8298 45.2223 17.8298C45.2666 17.8298 45.3031 17.8142 45.3343 17.783C45.3656 17.7517 45.3812 17.7153 45.3812 17.671C45.3812 17.628 45.3656 17.5903 45.3343 17.559C45.3031 17.5291 45.2666 17.5134 45.2223 17.5134Z" fill="white"/>
<path d="M45.2223 15.9314C45.1781 15.9314 45.1403 15.9457 45.1104 15.977C45.0791 16.0082 45.0635 16.046 45.0635 16.0889C45.0635 16.1332 45.0791 16.1697 45.1104 16.2009C45.1403 16.2322 45.1781 16.2478 45.2223 16.2478C45.2666 16.2478 45.3031 16.2322 45.3343 16.2009C45.3656 16.1697 45.3812 16.1332 45.3812 16.0889C45.3812 16.046 45.3656 16.0082 45.3343 15.977C45.3031 15.9457 45.2666 15.9314 45.2223 15.9314Z" fill="white"/>
<path d="M44.4294 16.7212C44.3851 16.7212 44.3473 16.7368 44.3174 16.7681C44.2861 16.7993 44.2705 16.8358 44.2705 16.88C44.2705 16.923 44.2861 16.9608 44.3174 16.992C44.3473 17.022 44.3851 17.0376 44.4294 17.0376C44.4723 17.0376 44.5101 17.022 44.5413 16.992C44.5726 16.9608 44.5869 16.923 44.5869 16.88C44.5869 16.8358 44.5726 16.7993 44.5413 16.7681C44.5101 16.7368 44.4723 16.7212 44.4294 16.7212Z" fill="white"/>
<path d="M46.0153 16.7212C45.971 16.7212 45.9346 16.7368 45.9033 16.7681C45.8721 16.7993 45.8564 16.8358 45.8564 16.88C45.8564 16.923 45.8721 16.9608 45.9033 16.992C45.9346 17.022 45.971 17.0376 46.0153 17.0376C46.0596 17.0376 46.096 17.022 46.1273 16.992C46.1585 16.9608 46.1742 16.923 46.1742 16.88C46.1742 16.8358 46.1585 16.7993 46.1273 16.7681C46.096 16.7368 46.0596 16.7212 46.0153 16.7212Z" fill="white"/>
<path d="M44.4294 15.1398C44.3851 15.1398 44.3473 15.1554 44.3174 15.1866C44.2861 15.2166 44.2705 15.2544 44.2705 15.2973C44.2705 15.3416 44.2861 15.3794 44.3174 15.4093C44.3473 15.4406 44.3851 15.4562 44.4294 15.4562C44.4723 15.4562 44.5101 15.4406 44.5413 15.4093C44.5726 15.3794 44.5869 15.3416 44.5869 15.2973C44.5869 15.2544 44.5726 15.2166 44.5413 15.1866C44.5101 15.1554 44.4723 15.1398 44.4294 15.1398Z" fill="white"/>
<path d="M43.6351 17.5134C43.5921 17.5134 43.5544 17.5291 43.5231 17.559C43.4932 17.5903 43.4775 17.628 43.4775 17.671C43.4775 17.7153 43.4932 17.7517 43.5231 17.783C43.5544 17.8142 43.5921 17.8298 43.6351 17.8298C43.6794 17.8298 43.7171 17.8142 43.7484 17.783C43.7783 17.7517 43.7939 17.7153 43.7939 17.671C43.7939 17.628 43.7783 17.5903 43.7484 17.559C43.7171 17.5291 43.6794 17.5134 43.6351 17.5134Z" fill="white"/>
<path d="M43.6351 15.9314C43.5921 15.9314 43.5544 15.9457 43.5231 15.977C43.4932 16.0082 43.4775 16.046 43.4775 16.0889C43.4775 16.1332 43.4932 16.1697 43.5231 16.2009C43.5544 16.2322 43.5921 16.2478 43.6351 16.2478C43.6794 16.2478 43.7171 16.2322 43.7484 16.2009C43.7783 16.1697 43.7939 16.1332 43.7939 16.0889C43.7939 16.046 43.7783 16.0082 43.7484 15.977C43.7171 15.9457 43.6794 15.9314 43.6351 15.9314Z" fill="white"/>
<path d="M45.2226 20.6763C45.1666 20.6776 45.1223 20.701 45.0898 20.7466C45.0585 20.7948 45.0546 20.8442 45.0755 20.8963C45.1028 20.9601 45.1523 20.9927 45.2213 20.9927C45.2916 20.9927 45.3411 20.9601 45.3684 20.8963C45.3763 20.8768 45.3815 20.856 45.3815 20.8351C45.3815 20.8026 45.3723 20.7739 45.3541 20.7466C45.3216 20.701 45.2786 20.6776 45.2226 20.6763Z" fill="white"/>
<path d="M45.223 19.0955C45.1787 19.0955 45.141 19.1111 45.1097 19.141C45.0785 19.1723 45.0615 19.21 45.0615 19.2543C45.0615 19.2986 45.0771 19.3363 45.1084 19.3676C45.1396 19.3988 45.1774 19.4145 45.2217 19.4145C45.266 19.4145 45.3037 19.3988 45.335 19.3663C45.3662 19.335 45.3818 19.2973 45.3818 19.2543C45.3818 19.21 45.3662 19.1723 45.335 19.1423C45.3037 19.1111 45.2673 19.0955 45.223 19.0955Z" fill="white"/>
<path d="M44.4294 19.8877C44.3851 19.8877 44.3473 19.902 44.3174 19.9333C44.2861 19.9645 44.2705 20.001 44.2705 20.0452C44.2705 20.0882 44.2861 20.126 44.3161 20.1572C44.3473 20.1885 44.3851 20.2028 44.4281 20.2041C44.4723 20.2041 44.5088 20.1885 44.54 20.1585C44.5713 20.1273 44.5869 20.0895 44.5869 20.0465C44.5882 20.0023 44.5726 19.9645 44.5413 19.9333C44.5101 19.9033 44.4723 19.8877 44.4294 19.8877Z" fill="white"/>
<path d="M46.0153 19.8877C45.971 19.8877 45.9346 19.902 45.9033 19.9333C45.8721 19.9645 45.8564 20.001 45.8564 20.0452C45.8564 20.0882 45.8721 20.126 45.9033 20.1572C45.9333 20.1885 45.971 20.2028 46.0153 20.2041C46.0583 20.2041 46.096 20.1885 46.1273 20.1585C46.1585 20.1273 46.1742 20.0895 46.1742 20.0465C46.1742 20.0023 46.1585 19.9645 46.1286 19.9333C46.0973 19.9033 46.0596 19.8877 46.0153 19.8877Z" fill="white"/>
<path d="M44.4294 18.3038C44.3851 18.3038 44.3473 18.3195 44.3174 18.3507C44.2861 18.382 44.2705 18.4184 44.2705 18.4627C44.2705 18.5057 44.2861 18.5434 44.3174 18.5747C44.3473 18.6059 44.3851 18.6202 44.4294 18.6202C44.4723 18.6202 44.5101 18.6059 44.5413 18.5747C44.5726 18.5434 44.5869 18.5057 44.5869 18.4627C44.5869 18.4184 44.5726 18.382 44.5413 18.3507C44.5101 18.3195 44.4723 18.3038 44.4294 18.3038Z" fill="white"/>
<path d="M46.0153 18.3038C45.971 18.3038 45.9346 18.3195 45.9033 18.3507C45.8721 18.382 45.8564 18.4184 45.8564 18.4627C45.8564 18.5057 45.8721 18.5434 45.9033 18.5747C45.9346 18.6059 45.971 18.6202 46.0153 18.6202C46.0596 18.6202 46.096 18.6059 46.1273 18.5747C46.1585 18.5434 46.1742 18.5057 46.1742 18.4627C46.1742 18.4184 46.1585 18.382 46.1273 18.3507C46.096 18.3195 46.0596 18.3038 46.0153 18.3038Z" fill="white"/>
<path d="M43.6349 20.6763C43.579 20.6776 43.5347 20.701 43.5034 20.7466C43.4722 20.7948 43.467 20.8442 43.4891 20.8963C43.5165 20.9601 43.5646 20.9927 43.6349 20.9927C43.7053 20.9927 43.7534 20.9601 43.7808 20.8963C43.7899 20.8768 43.7938 20.856 43.7938 20.8351C43.7938 20.8026 43.7847 20.7739 43.7665 20.7466C43.7352 20.701 43.6922 20.6776 43.6349 20.6763Z" fill="white"/>
<path d="M43.6357 19.0955C43.5915 19.0955 43.5537 19.1111 43.5225 19.141C43.4912 19.1723 43.4756 19.21 43.4756 19.2543C43.4756 19.2986 43.4912 19.3363 43.5225 19.3676C43.5537 19.3988 43.5915 19.4145 43.6357 19.4145C43.68 19.4145 43.7178 19.3988 43.749 19.3663C43.7803 19.335 43.7959 19.2973 43.7946 19.2543C43.7946 19.21 43.779 19.1723 43.749 19.1423C43.7178 19.1111 43.68 19.0955 43.6357 19.0955Z" fill="white"/>
<path d="M44.4294 21.4697C44.3851 21.4697 44.3473 21.4854 44.3174 21.5153C44.2861 21.5465 44.2705 21.5843 44.2705 21.6273C44.2705 21.6715 44.2861 21.708 44.3161 21.7393C44.3473 21.7705 44.3851 21.7861 44.4281 21.7861C44.4723 21.7861 44.5088 21.7705 44.54 21.7406C44.5713 21.7093 44.5869 21.6729 44.5869 21.6286C44.5882 21.5843 44.5726 21.5479 44.5413 21.5166C44.5101 21.4854 44.4723 21.4697 44.4294 21.4697Z" fill="white"/>
<path d="M46.0153 21.4697C45.971 21.4697 45.9346 21.4854 45.9033 21.5153C45.8721 21.5465 45.8564 21.5843 45.8564 21.6273C45.8564 21.6715 45.8721 21.708 45.9033 21.7393C45.9333 21.7705 45.971 21.7861 46.0153 21.7861C46.0583 21.7861 46.096 21.7705 46.1273 21.7406C46.1585 21.7093 46.1742 21.6729 46.1742 21.6286C46.1742 21.5843 46.1585 21.5479 46.1286 21.5166C46.0973 21.4854 46.0596 21.4697 46.0153 21.4697Z" fill="white"/>
<path d="M40.5508 8.04744C40.5247 8.02791 40.4948 8.0188 40.4635 8.0188C40.4414 8.0188 40.4206 8.02401 40.401 8.03182C40.3724 8.04354 40.349 8.06307 40.3307 8.08911C40.3138 8.11645 40.3047 8.1451 40.3047 8.17765C40.3047 8.19849 40.3086 8.21932 40.3164 8.23885C40.3333 8.27922 40.362 8.30656 40.401 8.32349C40.4206 8.3313 40.4414 8.33651 40.4635 8.33521C40.4948 8.33651 40.5247 8.32739 40.5508 8.30786C40.5781 8.29093 40.5964 8.2688 40.6081 8.23885C40.6172 8.21932 40.6224 8.19849 40.6211 8.17765C40.6224 8.1451 40.6133 8.11645 40.5938 8.08911C40.5833 8.07218 40.569 8.05786 40.5508 8.04744Z" fill="white"/>
<path d="M42.0495 11.1841C42.0052 11.1841 41.9687 11.1997 41.9375 11.2297C41.9062 11.2609 41.8906 11.2987 41.8906 11.3416C41.8906 11.3859 41.9062 11.4237 41.9375 11.4536C41.9687 11.4849 42.0052 11.5005 42.0495 11.5005C42.0938 11.5005 42.1302 11.4849 42.1615 11.4536C42.1927 11.4237 42.2083 11.3859 42.2083 11.3416C42.2083 11.2987 42.1927 11.2609 42.1615 11.2297C42.1302 11.1997 42.0938 11.1841 42.0495 11.1841Z" fill="white"/>
<path d="M42.0495 9.60205C42.0052 9.60205 41.9687 9.61768 41.9375 9.64762C41.9062 9.67887 41.8906 9.71663 41.8906 9.7596C41.8906 9.80387 41.9062 9.84033 41.9375 9.87158C41.9687 9.90283 42.0052 9.91846 42.0495 9.91846C42.0938 9.91846 42.1302 9.90283 42.1615 9.87158C42.1927 9.84033 42.2083 9.80387 42.2083 9.7596C42.2083 9.71663 42.1927 9.67887 42.1615 9.64762C42.1302 9.61768 42.0938 9.60205 42.0495 9.60205Z" fill="white"/>
<path d="M41.2569 10.3931C41.2126 10.3944 41.1762 10.41 41.1449 10.4412C41.115 10.4725 41.0994 10.509 41.1007 10.5532C41.1007 10.5962 41.1163 10.634 41.1475 10.6639C41.1788 10.6951 41.2165 10.7095 41.2595 10.7095C41.3038 10.7095 41.3402 10.6938 41.3715 10.6639C41.4027 10.6326 41.4171 10.5949 41.4171 10.5519C41.4171 10.5076 41.4014 10.4699 41.3702 10.4386C41.3389 10.4074 41.3012 10.3931 41.2569 10.3931Z" fill="white"/>
<path d="M41.2569 8.8092C41.2126 8.81051 41.1762 8.82613 41.1462 8.85738C41.115 8.88863 41.0994 8.92509 41.1007 8.96936C41.1007 9.01233 41.1163 9.04879 41.1475 9.08004C41.1775 9.10999 41.2152 9.12561 41.2595 9.12561C41.3025 9.12561 41.3402 9.10999 41.3702 9.08004C41.4014 9.04879 41.4171 9.01233 41.4171 8.96936C41.4184 8.92509 41.4027 8.88603 41.3702 8.85478C41.3389 8.82353 41.3012 8.8092 41.2569 8.8092Z" fill="white"/>
<path d="M40.5508 11.2114C40.5247 11.1932 40.4948 11.1841 40.4635 11.1841C40.4414 11.1841 40.4206 11.188 40.401 11.1971C40.3372 11.2244 40.3047 11.2726 40.3047 11.3429C40.3047 11.4119 40.3372 11.4614 40.401 11.4888C40.4206 11.4966 40.4414 11.5005 40.4635 11.5005C40.4948 11.5005 40.5247 11.4914 40.5508 11.4744C40.5729 11.4588 40.5898 11.4406 40.6029 11.4172C40.6146 11.3937 40.6211 11.369 40.6211 11.3429C40.6211 11.3169 40.6146 11.2922 40.6029 11.2687C40.5898 11.2453 40.5729 11.2257 40.5508 11.2114Z" fill="white"/>
<path d="M40.5508 9.62939C40.5247 9.61117 40.4948 9.60205 40.4635 9.60205C40.4414 9.60205 40.4206 9.60596 40.401 9.61507C40.3372 9.64242 40.3047 9.69059 40.3047 9.7609C40.3047 9.82992 40.3372 9.87809 40.401 9.90544C40.4206 9.91455 40.4414 9.91846 40.4635 9.91846C40.4948 9.91846 40.5247 9.90934 40.5508 9.89111C40.599 9.85986 40.6224 9.81689 40.6211 9.7596C40.6224 9.70361 40.599 9.65934 40.5508 9.62939Z" fill="white"/>
<path d="M42.0499 14.3481C42.0239 14.3481 41.9992 14.3547 41.9757 14.3677C41.9523 14.3807 41.9327 14.3976 41.9184 14.4198C41.9041 14.4419 41.895 14.4653 41.8924 14.4927C41.8898 14.5187 41.8937 14.5435 41.9041 14.5682C41.9314 14.632 41.9796 14.6646 42.0499 14.6646C42.1189 14.6646 42.1684 14.632 42.1958 14.5682C42.2049 14.5487 42.2088 14.5278 42.2088 14.507C42.2088 14.4744 42.1997 14.4458 42.1814 14.4185C42.1502 14.3729 42.1059 14.3494 42.0499 14.3481Z" fill="white"/>
<path d="M42.0495 12.7649C42.0052 12.7649 41.9687 12.7805 41.9375 12.8118C41.9062 12.843 41.8906 12.8795 41.8906 12.9237C41.8906 12.9667 41.9062 13.0045 41.9375 13.0357C41.9687 13.0657 42.0052 13.0813 42.0495 13.0813C42.0938 13.0813 42.1302 13.0657 42.1615 13.0357C42.1927 13.0045 42.2083 12.9667 42.2083 12.9237C42.2083 12.8795 42.1927 12.843 42.1615 12.8118C42.1302 12.7805 42.0938 12.7649 42.0495 12.7649Z" fill="white"/>
<path d="M41.2565 13.5577C41.2122 13.5577 41.1745 13.5734 41.1445 13.6033C41.1133 13.6346 41.0977 13.6723 41.0977 13.7153C41.0977 13.7596 41.1133 13.796 41.1445 13.8273C41.1745 13.8585 41.2122 13.8741 41.2565 13.8741C41.3008 13.8741 41.3372 13.8585 41.3685 13.8273C41.3997 13.796 41.4154 13.7596 41.4154 13.7153C41.4154 13.6723 41.3997 13.6346 41.3685 13.6033C41.3372 13.5734 41.2995 13.5577 41.2565 13.5577Z" fill="white"/>
<path d="M42.8424 13.5577C42.7995 13.5577 42.7617 13.5734 42.7305 13.6033C42.6992 13.6346 42.6836 13.6723 42.6836 13.7153C42.6836 13.7596 42.6992 13.796 42.7305 13.8273C42.7617 13.8585 42.7995 13.8741 42.8424 13.8741C42.8867 13.8741 42.9245 13.8585 42.9544 13.8273C42.9857 13.796 43.0013 13.7596 43.0013 13.7153C43.0013 13.6723 42.9857 13.6346 42.9544 13.6033C42.9245 13.5734 42.8867 13.5577 42.8424 13.5577Z" fill="white"/>
<path d="M41.2565 11.9751C41.2122 11.9751 41.1745 11.9907 41.1445 12.022C41.1133 12.0532 41.0977 12.0897 41.0977 12.134C41.0977 12.1782 41.1133 12.2147 41.1445 12.2459C41.1745 12.2772 41.2122 12.2928 41.2565 12.2928C41.3008 12.2928 41.3372 12.2772 41.3685 12.2459C41.3997 12.2147 41.4154 12.1782 41.4154 12.134C41.4154 12.0897 41.3997 12.0532 41.3685 12.022C41.3372 11.9907 41.2995 11.9751 41.2565 11.9751Z" fill="white"/>
<path d="M42.8424 11.9751C42.7995 11.9751 42.7617 11.9907 42.7305 12.022C42.6992 12.0532 42.6836 12.0897 42.6836 12.134C42.6836 12.1782 42.6992 12.2147 42.7305 12.2459C42.7617 12.2772 42.7995 12.2928 42.8424 12.2928C42.8867 12.2928 42.9245 12.2772 42.9544 12.2459C42.9857 12.2147 43.0013 12.1782 43.0013 12.134C43.0013 12.0897 42.9857 12.0532 42.9544 12.022C42.9245 11.9907 42.8867 11.9751 42.8424 11.9751Z" fill="white"/>
<path d="M40.5508 14.3755C40.5247 14.3573 40.4948 14.3481 40.4635 14.3481C40.4414 14.3481 40.4206 14.3534 40.401 14.3612C40.3724 14.3742 40.349 14.3924 40.3307 14.4185C40.3138 14.4458 40.3047 14.4744 40.3047 14.507C40.3047 14.5278 40.3086 14.5487 40.3164 14.5682C40.3333 14.6086 40.362 14.6359 40.401 14.6528C40.4206 14.6606 40.4414 14.6646 40.4635 14.6646C40.4948 14.6646 40.5247 14.6567 40.5508 14.6385C40.5781 14.6216 40.5964 14.5981 40.6081 14.5682C40.6172 14.5487 40.6224 14.5278 40.6211 14.507C40.6224 14.4744 40.6133 14.4458 40.5938 14.4185C40.5833 14.4015 40.569 14.3872 40.5508 14.3755Z" fill="white"/>
<path d="M40.5508 12.7935C40.5247 12.7752 40.4948 12.7661 40.4635 12.7661C40.4414 12.7661 40.4206 12.77 40.401 12.7791C40.3372 12.8065 40.3047 12.8547 40.3047 12.925C40.3047 12.9953 40.3372 13.0435 40.401 13.0708C40.4206 13.0786 40.4414 13.0825 40.4635 13.0825C40.4948 13.0825 40.5247 13.0734 40.5508 13.0565C40.5729 13.0422 40.5898 13.0226 40.6029 12.9992C40.6146 12.9757 40.6211 12.951 40.6211 12.925C40.6211 12.8989 40.6146 12.8742 40.6029 12.8507C40.5898 12.8273 40.5729 12.8078 40.5508 12.7935Z" fill="white"/>
<path d="M42.0495 17.5134C42.0052 17.5134 41.9687 17.5291 41.9375 17.559C41.9062 17.5903 41.8906 17.628 41.8906 17.671C41.8906 17.7153 41.9062 17.7517 41.9375 17.783C41.9687 17.8142 42.0052 17.8298 42.0495 17.8298C42.0938 17.8298 42.1302 17.8142 42.1615 17.783C42.1927 17.7517 42.2083 17.7153 42.2083 17.671C42.2083 17.628 42.1927 17.5903 42.1615 17.559C42.1302 17.5291 42.0938 17.5134 42.0495 17.5134Z" fill="white"/>
<path d="M42.0495 15.9314C42.0052 15.9314 41.9687 15.9457 41.9375 15.977C41.9062 16.0082 41.8906 16.046 41.8906 16.0889C41.8906 16.1332 41.9062 16.1697 41.9375 16.2009C41.9687 16.2322 42.0052 16.2478 42.0495 16.2478C42.0938 16.2478 42.1302 16.2322 42.1615 16.2009C42.1927 16.1697 42.2083 16.1332 42.2083 16.0889C42.2083 16.046 42.1927 16.0082 42.1615 15.977C42.1302 15.9457 42.0938 15.9314 42.0495 15.9314Z" fill="white"/>
<path d="M41.2565 16.7212C41.2122 16.7212 41.1745 16.7368 41.1445 16.7681C41.1133 16.7993 41.0977 16.8358 41.0977 16.88C41.0977 16.923 41.1133 16.9608 41.1445 16.992C41.1745 17.022 41.2122 17.0376 41.2565 17.0376C41.3008 17.0376 41.3372 17.022 41.3685 16.992C41.3997 16.9608 41.4154 16.923 41.4154 16.88C41.4154 16.8358 41.3997 16.7993 41.3685 16.7681C41.3372 16.7368 41.2995 16.7212 41.2565 16.7212Z" fill="white"/>
<path d="M42.8424 16.7212C42.7995 16.7212 42.7617 16.7368 42.7305 16.7681C42.6992 16.7993 42.6836 16.8358 42.6836 16.88C42.6836 16.923 42.6992 16.9608 42.7305 16.992C42.7617 17.022 42.7995 17.0376 42.8424 17.0376C42.8867 17.0376 42.9245 17.022 42.9544 16.992C42.9857 16.9608 43.0013 16.923 43.0013 16.88C43.0013 16.8358 42.9857 16.7993 42.9544 16.7681C42.9245 16.7368 42.8867 16.7212 42.8424 16.7212Z" fill="white"/>
<path d="M41.2565 15.1398C41.2122 15.1398 41.1745 15.1554 41.1445 15.1866C41.1133 15.2166 41.0977 15.2544 41.0977 15.2973C41.0977 15.3416 41.1133 15.3794 41.1445 15.4093C41.1745 15.4406 41.2122 15.4562 41.2565 15.4562C41.3008 15.4562 41.3372 15.4406 41.3685 15.4093C41.3997 15.3794 41.4154 15.3416 41.4154 15.2973C41.4154 15.2544 41.3997 15.2166 41.3685 15.1866C41.3372 15.1554 41.2995 15.1398 41.2565 15.1398Z" fill="white"/>
<path d="M42.8424 15.1398C42.7995 15.1398 42.7617 15.1554 42.7305 15.1866C42.6992 15.2166 42.6836 15.2544 42.6836 15.2973C42.6836 15.3416 42.6992 15.3794 42.7305 15.4093C42.7617 15.4406 42.7995 15.4562 42.8424 15.4562C42.8867 15.4562 42.9245 15.4406 42.9544 15.4093C42.9857 15.3794 43.0013 15.3416 43.0013 15.2973C43.0013 15.2544 42.9857 15.2166 42.9544 15.1866C42.9245 15.1554 42.8867 15.1398 42.8424 15.1398Z" fill="white"/>
<path d="M40.5508 17.5408C40.5247 17.5225 40.4948 17.5134 40.4635 17.5134C40.4414 17.5134 40.4206 17.5173 40.401 17.5264C40.3372 17.5538 40.3047 17.602 40.3047 17.6723C40.3047 17.7413 40.3372 17.7908 40.401 17.8181C40.4206 17.8259 40.4414 17.8298 40.4635 17.8298C40.4948 17.8298 40.5247 17.8207 40.5508 17.8038C40.5729 17.7882 40.5898 17.7699 40.6029 17.7465C40.6146 17.7231 40.6211 17.6983 40.6211 17.6723C40.6211 17.6449 40.6146 17.6202 40.6029 17.5981C40.5898 17.5746 40.5729 17.5551 40.5508 17.5408Z" fill="white"/>
<path d="M40.5508 15.9589C40.5247 15.9394 40.4948 15.9303 40.4635 15.9316C40.4414 15.9303 40.4206 15.9355 40.401 15.9446C40.3372 15.972 40.3047 16.0201 40.3047 16.0891C40.3047 16.1595 40.3372 16.2076 40.401 16.235C40.4206 16.2441 40.4414 16.248 40.4635 16.248C40.4948 16.248 40.5247 16.2389 40.5508 16.2207C40.5729 16.2063 40.5898 16.1868 40.6029 16.1647C40.6146 16.1412 40.6211 16.1165 40.6211 16.0891C40.6211 16.0631 40.6146 16.0384 40.6029 16.0149C40.5898 15.9915 40.5729 15.9733 40.5508 15.9589Z" fill="white"/>
<path d="M42.05 20.6763C41.994 20.6776 41.9497 20.701 41.9185 20.7466C41.8872 20.7948 41.882 20.8442 41.9042 20.8963C41.9315 20.9601 41.9797 20.9927 42.05 20.9927C42.119 20.9927 42.1685 20.9601 42.1958 20.8963C42.2049 20.8768 42.2088 20.856 42.2088 20.8351C42.2088 20.8026 42.1997 20.7739 42.1815 20.7466C42.1502 20.701 42.106 20.6776 42.05 20.6763Z" fill="white"/>
<path d="M42.0499 19.0955C42.0056 19.0955 41.9678 19.1111 41.9366 19.141C41.9053 19.1723 41.8897 19.21 41.8897 19.2543C41.8884 19.2986 41.904 19.3363 41.9353 19.3676C41.9665 19.3988 42.0056 19.4145 42.0486 19.4145C42.0928 19.4145 42.1306 19.3988 42.1619 19.3663C42.1931 19.335 42.2087 19.2973 42.2087 19.2543C42.2087 19.21 42.1931 19.1723 42.1619 19.1423C42.1306 19.1111 42.0942 19.0955 42.0499 19.0955Z" fill="white"/>
<path d="M41.2565 19.8877C41.2122 19.8877 41.1758 19.902 41.1445 19.9333C41.1133 19.9645 41.0977 20.001 41.0977 20.0452C41.0977 20.0882 41.1133 20.126 41.1432 20.1572C41.1745 20.1885 41.2122 20.2028 41.2552 20.2041C41.2995 20.2041 41.3372 20.1885 41.3685 20.1585C41.3984 20.1273 41.4141 20.0895 41.4154 20.0465C41.4154 20.0023 41.3997 19.9645 41.3685 19.9333C41.3372 19.9033 41.3008 19.8877 41.2565 19.8877Z" fill="white"/>
<path d="M42.8424 19.8877C42.7995 19.8877 42.7617 19.902 42.7305 19.9333C42.6992 19.9645 42.6836 20.001 42.6836 20.0452C42.6836 20.0882 42.6992 20.126 42.7305 20.1572C42.7604 20.1885 42.7982 20.2028 42.8424 20.2041C42.8854 20.2041 42.9232 20.1885 42.9544 20.1585C42.9857 20.1273 43.0013 20.0895 43.0013 20.0465C43.0013 20.0023 42.987 19.9645 42.9557 19.9333C42.9245 19.9033 42.8867 19.8877 42.8424 19.8877Z" fill="white"/>
<path d="M41.2565 18.3038C41.2122 18.3038 41.1745 18.3195 41.1445 18.3507C41.1133 18.382 41.0977 18.4184 41.0977 18.4627C41.0977 18.5057 41.1133 18.5434 41.1445 18.5747C41.1745 18.6059 41.2122 18.6202 41.2565 18.6202C41.3008 18.6202 41.3372 18.6059 41.3685 18.5747C41.3997 18.5434 41.4154 18.5057 41.4154 18.4627C41.4154 18.4184 41.3997 18.382 41.3685 18.3507C41.3372 18.3195 41.2995 18.3038 41.2565 18.3038Z" fill="white"/>
<path d="M42.8424 18.3038C42.7995 18.3038 42.7617 18.3195 42.7305 18.3507C42.6992 18.382 42.6836 18.4184 42.6836 18.4627C42.6836 18.5057 42.6992 18.5434 42.7305 18.5747C42.7617 18.6059 42.7995 18.6202 42.8424 18.6202C42.8867 18.6202 42.9245 18.6059 42.9544 18.5747C42.9857 18.5434 43.0013 18.5057 43.0013 18.4627C43.0013 18.4184 42.9857 18.382 42.9544 18.3507C42.9245 18.3195 42.8867 18.3038 42.8424 18.3038Z" fill="white"/>
<path d="M40.5504 20.7048C40.5244 20.6879 40.4944 20.6775 40.4632 20.6775C40.4358 20.6775 40.4111 20.684 40.3877 20.697C40.3642 20.71 40.346 20.727 40.3304 20.7491C40.316 20.7712 40.3082 20.7947 40.3056 20.8207C40.303 20.8481 40.3056 20.8728 40.316 20.8975C40.333 20.9366 40.3616 20.9653 40.4007 20.9822C40.4202 20.99 40.441 20.9939 40.4632 20.9939C40.4944 20.9939 40.5244 20.9861 40.5504 20.9679C40.5778 20.9496 40.596 20.9262 40.6077 20.8975C40.6168 20.878 40.622 20.8572 40.6207 20.8363C40.622 20.8038 40.6116 20.7751 40.5934 20.7478C40.583 20.7309 40.5686 20.7166 40.5504 20.7048Z" fill="white"/>
<path d="M40.5508 19.1228C40.5247 19.1046 40.4948 19.0955 40.4635 19.0955C40.4414 19.0955 40.4206 19.0994 40.401 19.1085C40.3372 19.1358 40.3047 19.184 40.3047 19.2543C40.3047 19.3233 40.3372 19.3728 40.401 19.4001C40.4206 19.408 40.4414 19.4132 40.4635 19.4132C40.4948 19.4132 40.5247 19.4041 40.5508 19.3858C40.5729 19.3702 40.5898 19.352 40.6029 19.3285C40.6146 19.3051 40.6211 19.2804 40.6211 19.2543C40.6211 19.2283 40.6146 19.2035 40.6029 19.1801C40.5898 19.1567 40.5729 19.1371 40.5508 19.1228Z" fill="white"/>
<path d="M41.2565 21.4697C41.2122 21.4697 41.1758 21.4854 41.1445 21.5153C41.1133 21.5465 41.0977 21.5843 41.0977 21.6273C41.0977 21.6715 41.1133 21.708 41.1432 21.7393C41.1745 21.7705 41.2122 21.7861 41.2552 21.7861C41.2995 21.7861 41.3372 21.7705 41.3685 21.7406C41.3984 21.7093 41.4141 21.6729 41.4154 21.6286C41.4154 21.5843 41.3997 21.5479 41.3685 21.5166C41.3372 21.4854 41.3008 21.4697 41.2565 21.4697Z" fill="white"/>
<path d="M42.8424 21.4697C42.7995 21.4697 42.7617 21.4854 42.7305 21.5153C42.6992 21.5465 42.6836 21.5843 42.6836 21.6273C42.6836 21.6715 42.6992 21.708 42.7305 21.7393C42.7604 21.7705 42.7982 21.7861 42.8424 21.7861C42.8854 21.7861 42.9232 21.7705 42.9544 21.7406C42.9857 21.7093 43.0013 21.6729 43.0013 21.6286C43.0013 21.5843 42.987 21.5479 42.9557 21.5166C42.9245 21.4854 42.8867 21.4697 42.8424 21.4697Z" fill="white"/>
<path d="M37.3785 1.71814C37.3512 1.69861 37.3225 1.68949 37.29 1.6908C37.234 1.68949 37.1897 1.71293 37.1572 1.75981C37.1259 1.80668 37.122 1.85746 37.1429 1.90955C37.1702 1.97465 37.2197 2.0072 37.29 2.0072C37.3225 2.0072 37.3512 1.99809 37.3785 1.97986C37.4046 1.96163 37.4241 1.93949 37.4358 1.90955C37.4436 1.89001 37.4488 1.87048 37.4488 1.84835C37.4488 1.8158 37.4397 1.78585 37.4215 1.75981C37.4098 1.74288 37.3955 1.72856 37.3785 1.71814Z" fill="white"/>
<path d="M38.8766 4.85352C38.8337 4.85352 38.7959 4.86914 38.7646 4.90039C38.7334 4.93034 38.7178 4.9681 38.7178 5.01237C38.7178 5.05534 38.7334 5.0931 38.7646 5.12435C38.7959 5.1543 38.8337 5.16992 38.8766 5.16992C38.9209 5.16992 38.9587 5.1543 38.9886 5.12435C39.0199 5.0931 39.0355 5.05534 39.0355 5.01237C39.0355 4.9681 39.0199 4.93034 38.9886 4.90039C38.9587 4.86914 38.9209 4.85352 38.8766 4.85352Z" fill="white"/>
<path d="M38.0837 4.06311C38.0394 4.06311 38.0029 4.07874 37.9717 4.10999C37.9404 4.14124 37.9248 4.17769 37.9248 4.22196C37.9248 4.26493 37.9404 4.30269 37.9717 4.33394C38.0029 4.36519 38.0394 4.37952 38.0837 4.37952C38.1279 4.37952 38.1644 4.36519 38.1956 4.33394C38.2269 4.30269 38.2425 4.26493 38.2425 4.22196C38.2425 4.17769 38.2269 4.14124 38.1956 4.10999C38.1657 4.07874 38.1279 4.06311 38.0837 4.06311Z" fill="white"/>
<path d="M37.3792 4.88208C37.3519 4.86385 37.3232 4.85474 37.2907 4.85474C37.2464 4.85474 37.2087 4.87036 37.1787 4.90161C37.1475 4.93156 37.1318 4.96932 37.1318 5.01359C37.1318 5.05656 37.1475 5.09432 37.1787 5.12427C37.2087 5.15552 37.2464 5.17114 37.2907 5.17114C37.3232 5.17114 37.3519 5.16203 37.3792 5.1438C37.4001 5.12948 37.4183 5.10994 37.43 5.08651C37.443 5.06437 37.4482 5.03963 37.4482 5.01359C37.4482 4.98625 37.443 4.96151 37.43 4.93937C37.4183 4.91593 37.4001 4.8964 37.3792 4.88208Z" fill="white"/>
<path d="M37.3787 3.30005C37.3513 3.28182 37.3227 3.27271 37.2901 3.27271C37.2458 3.27271 37.2094 3.28833 37.1781 3.31958C37.1482 3.35083 37.1326 3.38859 37.1339 3.43156C37.1339 3.47583 37.1495 3.51229 37.1807 3.54354C37.212 3.57349 37.2497 3.58911 37.2927 3.58911C37.337 3.58911 37.3734 3.57349 37.4047 3.54224C37.4359 3.51099 37.4503 3.47453 37.4503 3.43026C37.4503 3.37427 37.4255 3.33 37.3787 3.30005Z" fill="white"/>
<path d="M38.8766 8.0188C38.8206 8.0188 38.7764 8.04224 38.7451 8.08911C38.7269 8.11645 38.7178 8.1451 38.7178 8.17765C38.7178 8.19849 38.7217 8.21932 38.7308 8.23885C38.7581 8.30265 38.8076 8.33521 38.8766 8.33521C38.9469 8.33521 38.9951 8.30265 39.0238 8.23885C39.0316 8.21932 39.0355 8.19849 39.0355 8.17765C39.0355 8.1451 39.0264 8.11645 39.0081 8.08911C38.9769 8.04354 38.9326 8.0201 38.8766 8.0188Z" fill="white"/>
<path d="M38.8766 6.43677C38.8337 6.43677 38.7959 6.45239 38.7646 6.48364C38.7334 6.51489 38.7178 6.55135 38.7178 6.59562C38.7178 6.63859 38.7334 6.67635 38.7646 6.7076C38.7959 6.73755 38.8337 6.75317 38.8766 6.75317C38.9209 6.75317 38.9587 6.73755 38.9886 6.7076C39.0199 6.67635 39.0355 6.63859 39.0355 6.59562C39.0355 6.55135 39.0199 6.51489 38.9886 6.48364C38.9587 6.45239 38.9209 6.43677 38.8766 6.43677Z" fill="white"/>
<path d="M38.0837 7.229C38.0394 7.229 38.0029 7.24463 37.9717 7.27458C37.9404 7.30583 37.9248 7.34359 37.9248 7.38656C37.9248 7.43083 37.9404 7.46859 37.9717 7.49854C38.0029 7.52979 38.0394 7.54541 38.0837 7.54541C38.1279 7.54541 38.1644 7.52979 38.1956 7.49854C38.2269 7.46859 38.2425 7.43083 38.2425 7.38656C38.2425 7.34359 38.2269 7.30583 38.1956 7.27458C38.1644 7.24463 38.1279 7.229 38.0837 7.229Z" fill="white"/>
<path d="M39.6693 7.229C39.6263 7.229 39.5885 7.24463 39.5573 7.27458C39.5273 7.30583 39.5117 7.34359 39.5117 7.38656C39.5117 7.43083 39.5273 7.46859 39.5573 7.49854C39.5885 7.52979 39.6263 7.54541 39.6693 7.54541C39.7135 7.54541 39.7513 7.52979 39.7826 7.49854C39.8125 7.46859 39.8281 7.43083 39.8281 7.38656C39.8281 7.34359 39.8125 7.30583 39.7826 7.27458C39.7513 7.24463 39.7135 7.229 39.6693 7.229Z" fill="white"/>
<path d="M38.0837 5.64583C38.0394 5.64583 38.0029 5.66015 37.9717 5.6914C37.9404 5.72265 37.9248 5.76041 37.9248 5.80338C37.9248 5.84765 37.9404 5.88411 37.9717 5.91536C38.0029 5.94661 38.0394 5.96223 38.0837 5.96223C38.1279 5.96223 38.1644 5.94661 38.1956 5.91536C38.2269 5.88411 38.2425 5.84765 38.2425 5.80338C38.2425 5.75911 38.2269 5.72265 38.1956 5.6914C38.1657 5.66015 38.1279 5.64453 38.0837 5.64583Z" fill="white"/>
<path d="M39.6693 5.64583C39.6263 5.64583 39.5885 5.66015 39.5573 5.6914C39.5273 5.72265 39.5117 5.76041 39.5117 5.80338C39.5117 5.84765 39.5273 5.88411 39.5573 5.91536C39.5885 5.94661 39.6263 5.96223 39.6693 5.96223C39.7135 5.96223 39.7513 5.94661 39.7826 5.91536C39.8125 5.88411 39.8281 5.84765 39.8281 5.80338C39.8294 5.75911 39.8138 5.72265 39.7826 5.6914C39.7513 5.66015 39.7135 5.64453 39.6693 5.64583Z" fill="white"/>
<path d="M37.3792 8.04744C37.3519 8.02791 37.3232 8.0188 37.2907 8.0188C37.2334 8.0188 37.1891 8.04224 37.1579 8.08911C37.141 8.11645 37.1318 8.1451 37.1318 8.17765C37.1318 8.19849 37.1357 8.21932 37.1436 8.23885C37.1709 8.30395 37.2204 8.33651 37.2907 8.33521C37.3232 8.33651 37.3519 8.32739 37.3792 8.30786C37.4053 8.29093 37.4248 8.2688 37.4365 8.23885C37.4443 8.21932 37.4495 8.19849 37.4495 8.17765C37.4495 8.1451 37.4404 8.11645 37.4222 8.08911C37.4105 8.07218 37.3962 8.05786 37.3792 8.04744Z" fill="white"/>
<path d="M37.3787 6.46411C37.3513 6.44588 37.3227 6.43677 37.2901 6.43677C37.2458 6.43807 37.2094 6.45369 37.1781 6.48494C37.1482 6.51619 37.1326 6.55265 37.1339 6.59692C37.1339 6.63989 37.1495 6.67765 37.1807 6.7076C37.212 6.73885 37.2497 6.75317 37.2927 6.75317C37.337 6.75317 37.3734 6.73755 37.4047 6.7063C37.4359 6.67635 37.4503 6.63859 37.4503 6.59562C37.4503 6.53833 37.4255 6.49536 37.3787 6.46411Z" fill="white"/>
<path d="M38.8766 11.1841C38.8337 11.1841 38.7959 11.1997 38.7646 11.2297C38.7334 11.2609 38.7178 11.2987 38.7178 11.3416C38.7178 11.3859 38.7334 11.4237 38.7646 11.4536C38.7959 11.4849 38.8337 11.5005 38.8766 11.5005C38.9209 11.5005 38.9587 11.4849 38.9886 11.4536C39.0199 11.4237 39.0355 11.3859 39.0355 11.3416C39.0355 11.2987 39.0199 11.2609 38.9886 11.2297C38.9587 11.1997 38.9209 11.1841 38.8766 11.1841Z" fill="white"/>
<path d="M38.8766 9.60205C38.8337 9.60205 38.7959 9.61768 38.7646 9.64762C38.7334 9.67887 38.7178 9.71663 38.7178 9.7596C38.7178 9.80387 38.7334 9.84033 38.7646 9.87158C38.7959 9.90283 38.8337 9.91846 38.8766 9.91846C38.9209 9.91846 38.9587 9.90283 38.9886 9.87158C39.0199 9.84033 39.0355 9.80387 39.0355 9.7596C39.0355 9.71663 39.0199 9.67887 38.9886 9.64762C38.9587 9.61768 38.9209 9.60205 38.8766 9.60205Z" fill="white"/>
<path d="M38.0837 10.3931C38.0394 10.3931 38.0029 10.4087 37.9717 10.4399C37.9404 10.4712 37.9248 10.5076 37.9248 10.5519C37.9248 10.5949 37.9404 10.6326 37.9717 10.6639C38.0029 10.6938 38.0394 10.7095 38.0837 10.7095C38.1279 10.7095 38.1644 10.6938 38.1956 10.6639C38.2269 10.6326 38.2425 10.5949 38.2425 10.5519C38.2425 10.5076 38.2269 10.4712 38.1956 10.4399C38.1644 10.4087 38.1279 10.3931 38.0837 10.3931Z" fill="white"/>
<path d="M39.6693 10.3931C39.6263 10.3931 39.5885 10.4087 39.5573 10.4399C39.5273 10.4712 39.5117 10.5076 39.5117 10.5519C39.5117 10.5949 39.5273 10.6326 39.5573 10.6639C39.5885 10.6938 39.6263 10.7095 39.6693 10.7095C39.7135 10.7095 39.7513 10.6938 39.7826 10.6639C39.8125 10.6326 39.8281 10.5949 39.8281 10.5519C39.8281 10.5076 39.8125 10.4712 39.7826 10.4399C39.7513 10.4087 39.7135 10.3931 39.6693 10.3931Z" fill="white"/>
<path d="M38.0837 8.8092C38.0394 8.8092 38.0029 8.82483 37.9717 8.85608C37.9404 8.88733 37.9248 8.92379 37.9248 8.96806C37.9248 9.01103 37.9404 9.04879 37.9717 9.08004C38.0029 9.10999 38.0394 9.12561 38.0837 9.12561C38.1279 9.12561 38.1644 9.10999 38.1956 9.08004C38.2269 9.04879 38.2425 9.01103 38.2425 8.96806C38.2425 8.92379 38.2269 8.88733 38.1956 8.85608C38.1644 8.82483 38.1279 8.8092 38.0837 8.8092Z" fill="white"/>
<path d="M39.6693 8.8092C39.6263 8.8092 39.5885 8.82483 39.5573 8.85608C39.5273 8.88733 39.5117 8.92379 39.5117 8.96806C39.5117 9.01103 39.5273 9.04879 39.5573 9.08004C39.5885 9.10999 39.6263 9.12561 39.6693 9.12561C39.7135 9.12561 39.7513 9.10999 39.7826 9.08004C39.8125 9.04879 39.8281 9.01103 39.8281 8.96806C39.8281 8.92379 39.8125 8.88733 39.7826 8.85608C39.7513 8.82483 39.7135 8.8092 39.6693 8.8092Z" fill="white"/>
<path d="M37.3787 11.2114C37.3514 11.1932 37.3228 11.1841 37.2902 11.1841C37.2642 11.1841 37.2394 11.1893 37.216 11.201C37.1925 11.2127 37.1743 11.2284 37.1587 11.2492C37.1431 11.27 37.134 11.2935 37.1287 11.3195C37.1248 11.3442 37.1274 11.3703 37.1353 11.395C37.1431 11.4185 37.1561 11.4406 37.1756 11.4588C37.1939 11.4771 37.216 11.4901 37.2407 11.4979C37.2655 11.5057 37.2902 11.507 37.3162 11.5018C37.341 11.4979 37.3644 11.4875 37.3853 11.4718C37.4061 11.4562 37.4217 11.4367 37.4334 11.4146C37.4439 11.3911 37.4491 11.3664 37.4491 11.3403C37.4478 11.3143 37.4412 11.2896 37.4295 11.2674C37.4165 11.244 37.3996 11.2257 37.3787 11.2114Z" fill="white"/>
<path d="M37.3787 9.62939C37.3513 9.61117 37.3227 9.60205 37.2901 9.60205C37.2458 9.60205 37.2094 9.61768 37.1781 9.64893C37.1482 9.68018 37.1326 9.71794 37.1339 9.7609C37.1339 9.80518 37.1495 9.84163 37.1807 9.87288C37.212 9.90283 37.2497 9.91846 37.2927 9.91846C37.337 9.91846 37.3734 9.90283 37.4047 9.87158C37.4359 9.84033 37.4503 9.80387 37.4503 9.7596C37.4503 9.70361 37.4255 9.65934 37.3787 9.62939Z" fill="white"/>
<path d="M38.8761 14.3481C38.8501 14.3481 38.8253 14.3547 38.8019 14.3677C38.7785 14.3807 38.7589 14.3976 38.7446 14.4198C38.7303 14.4419 38.7212 14.4653 38.7186 14.4927C38.716 14.5187 38.7199 14.5435 38.7303 14.5682C38.7576 14.632 38.8071 14.6646 38.8761 14.6646C38.9464 14.6646 38.9946 14.632 39.0232 14.5682C39.0311 14.5487 39.035 14.5278 39.035 14.507C39.035 14.4744 39.0258 14.4458 39.0076 14.4185C38.9764 14.3729 38.9321 14.3494 38.8761 14.3481Z" fill="white"/>
<path d="M38.8766 12.7649C38.8337 12.7649 38.7959 12.7805 38.7646 12.8118C38.7334 12.843 38.7178 12.8795 38.7178 12.9237C38.7178 12.9667 38.7334 13.0045 38.7646 13.0357C38.7959 13.0657 38.8337 13.0813 38.8766 13.0813C38.9209 13.0813 38.9587 13.0657 38.9886 13.0357C39.0199 13.0045 39.0355 12.9667 39.0355 12.9237C39.0355 12.8795 39.0199 12.843 38.9886 12.8118C38.9587 12.7805 38.9209 12.7649 38.8766 12.7649Z" fill="white"/>
<path d="M38.0837 13.5577C38.0394 13.5577 38.0029 13.5734 37.9717 13.6033C37.9404 13.6346 37.9248 13.6723 37.9248 13.7153C37.9248 13.7596 37.9404 13.796 37.9717 13.8273C38.0029 13.8585 38.0394 13.8741 38.0837 13.8741C38.1279 13.8741 38.1644 13.8585 38.1956 13.8273C38.2269 13.796 38.2425 13.7596 38.2425 13.7153C38.2425 13.6723 38.2269 13.6346 38.1956 13.6033C38.1644 13.5734 38.1279 13.5577 38.0837 13.5577Z" fill="white"/>
<path d="M39.6693 13.5577C39.6263 13.5577 39.5885 13.5734 39.5573 13.6033C39.5273 13.6346 39.5117 13.6723 39.5117 13.7153C39.5117 13.7596 39.5273 13.796 39.5573 13.8273C39.5885 13.8585 39.6263 13.8741 39.6693 13.8741C39.7135 13.8741 39.7513 13.8585 39.7826 13.8273C39.8125 13.796 39.8281 13.7596 39.8281 13.7153C39.8281 13.6723 39.8125 13.6346 39.7826 13.6033C39.7513 13.5734 39.7135 13.5577 39.6693 13.5577Z" fill="white"/>
<path d="M38.0837 11.9751C38.0394 11.9751 38.0029 11.9907 37.9717 12.022C37.9404 12.0532 37.9248 12.0897 37.9248 12.134C37.9248 12.1782 37.9404 12.2147 37.9717 12.2459C38.0029 12.2772 38.0394 12.2928 38.0837 12.2928C38.1279 12.2928 38.1644 12.2772 38.1956 12.2459C38.2269 12.2147 38.2425 12.1782 38.2425 12.134C38.2425 12.0897 38.2269 12.0532 38.1956 12.022C38.1644 11.9907 38.1279 11.9751 38.0837 11.9751Z" fill="white"/>
<path d="M39.6693 11.9751C39.6263 11.9751 39.5885 11.9907 39.5573 12.022C39.5273 12.0532 39.5117 12.0897 39.5117 12.134C39.5117 12.1782 39.5273 12.2147 39.5573 12.2459C39.5885 12.2772 39.6263 12.2928 39.6693 12.2928C39.7135 12.2928 39.7513 12.2772 39.7826 12.2459C39.8125 12.2147 39.8281 12.1782 39.8281 12.134C39.8281 12.0897 39.8125 12.0532 39.7826 12.022C39.7513 11.9907 39.7135 11.9751 39.6693 11.9751Z" fill="white"/>
<path d="M37.3787 14.3755C37.3514 14.3573 37.3227 14.3481 37.2902 14.3481C37.2628 14.3481 37.2381 14.3547 37.2147 14.3677C37.1925 14.3807 37.173 14.3976 37.1587 14.4198C37.143 14.4419 37.1352 14.4653 37.1326 14.4927C37.13 14.5187 37.1339 14.5435 37.143 14.5682C37.1626 14.6138 37.1964 14.6437 37.2446 14.658C37.2915 14.6724 37.3371 14.6659 37.3787 14.6385C37.4048 14.6216 37.423 14.5981 37.436 14.5682C37.4438 14.5487 37.449 14.5278 37.449 14.507C37.449 14.4744 37.4399 14.4458 37.4217 14.4185C37.41 14.4015 37.3956 14.3872 37.3787 14.3755Z" fill="white"/>
<path d="M37.3787 12.7935C37.3514 12.7752 37.3228 12.7661 37.2902 12.7661C37.2642 12.7661 37.2394 12.7713 37.216 12.783C37.1925 12.7948 37.1743 12.8104 37.1587 12.8312C37.1431 12.8534 37.134 12.8755 37.1287 12.9015C37.1248 12.9276 37.1274 12.9523 37.1353 12.9771C37.1431 13.0018 37.1561 13.0226 37.1756 13.0409C37.1939 13.0591 37.216 13.0721 37.2407 13.0799C37.2655 13.0877 37.2902 13.089 37.3162 13.0851C37.341 13.0799 37.3644 13.0708 37.3853 13.0552C37.4061 13.0396 37.4217 13.02 37.4334 12.9966C37.4439 12.9731 37.4491 12.9484 37.4491 12.9224C37.4478 12.8963 37.4412 12.8716 37.4295 12.8494C37.4165 12.8273 37.3996 12.8078 37.3787 12.7935Z" fill="white"/>
<path d="M38.8766 17.5134C38.8337 17.5134 38.7959 17.5291 38.7646 17.559C38.7334 17.5903 38.7178 17.628 38.7178 17.671C38.7178 17.7153 38.7334 17.7517 38.7646 17.783C38.7959 17.8142 38.8337 17.8298 38.8766 17.8298C38.9209 17.8298 38.9587 17.8142 38.9886 17.783C39.0199 17.7517 39.0355 17.7153 39.0355 17.671C39.0355 17.628 39.0199 17.5903 38.9886 17.559C38.9587 17.5291 38.9209 17.5134 38.8766 17.5134Z" fill="white"/>
<path d="M38.8766 15.9314C38.8337 15.9314 38.7959 15.9457 38.7646 15.977C38.7334 16.0082 38.7178 16.046 38.7178 16.0889C38.7178 16.1332 38.7334 16.1697 38.7646 16.2009C38.7959 16.2322 38.8337 16.2478 38.8766 16.2478C38.9209 16.2478 38.9587 16.2322 38.9886 16.2009C39.0199 16.1697 39.0355 16.1332 39.0355 16.0889C39.0355 16.046 39.0199 16.0082 38.9886 15.977C38.9587 15.9457 38.9209 15.9314 38.8766 15.9314Z" fill="white"/>
<path d="M38.0837 16.7212C38.0394 16.7212 38.0029 16.7368 37.9717 16.7681C37.9404 16.7993 37.9248 16.8358 37.9248 16.88C37.9248 16.923 37.9404 16.9608 37.9717 16.992C38.0029 17.022 38.0394 17.0376 38.0837 17.0376C38.1279 17.0376 38.1644 17.022 38.1956 16.992C38.2269 16.9608 38.2425 16.923 38.2425 16.88C38.2425 16.8358 38.2269 16.7993 38.1956 16.7681C38.1644 16.7368 38.1279 16.7212 38.0837 16.7212Z" fill="white"/>
<path d="M39.6693 16.7212C39.6263 16.7212 39.5885 16.7368 39.5573 16.7681C39.5273 16.7993 39.5117 16.8358 39.5117 16.88C39.5117 16.923 39.5273 16.9608 39.5573 16.992C39.5885 17.022 39.6263 17.0376 39.6693 17.0376C39.7135 17.0376 39.7513 17.022 39.7826 16.992C39.8125 16.9608 39.8281 16.923 39.8281 16.88C39.8281 16.8358 39.8125 16.7993 39.7826 16.7681C39.7513 16.7368 39.7135 16.7212 39.6693 16.7212Z" fill="white"/>
<path d="M38.0837 15.1398C38.0394 15.1398 38.0029 15.1554 37.9717 15.1866C37.9404 15.2166 37.9248 15.2544 37.9248 15.2973C37.9248 15.3416 37.9404 15.3794 37.9717 15.4093C38.0029 15.4406 38.0394 15.4562 38.0837 15.4562C38.1279 15.4562 38.1644 15.4406 38.1956 15.4093C38.2269 15.3794 38.2425 15.3416 38.2425 15.2973C38.2425 15.2544 38.2269 15.2166 38.1956 15.1866C38.1644 15.1554 38.1279 15.1398 38.0837 15.1398Z" fill="white"/>
<path d="M39.6693 15.1398C39.6263 15.1398 39.5885 15.1554 39.5573 15.1866C39.5273 15.2166 39.5117 15.2544 39.5117 15.2973C39.5117 15.3416 39.5273 15.3794 39.5573 15.4093C39.5885 15.4406 39.6263 15.4562 39.6693 15.4562C39.7135 15.4562 39.7513 15.4406 39.7826 15.4093C39.8125 15.3794 39.8281 15.3416 39.8281 15.2973C39.8281 15.2544 39.8125 15.2166 39.7826 15.1866C39.7513 15.1554 39.7135 15.1398 39.6693 15.1398Z" fill="white"/>
<path d="M37.3787 17.5408C37.3514 17.5225 37.3228 17.5134 37.2902 17.5134C37.2642 17.5134 37.2394 17.5186 37.216 17.5304C37.1925 17.5421 37.1743 17.5577 37.1587 17.5785C37.1431 17.5994 37.134 17.6228 37.1287 17.6488C37.1248 17.6736 37.1274 17.6996 37.1353 17.7231C37.1431 17.7478 37.1561 17.7699 37.1756 17.7882C37.1939 17.8064 37.216 17.8194 37.2407 17.8272C37.2655 17.8337 37.2902 17.8363 37.3162 17.8311C37.341 17.8272 37.3644 17.8168 37.3853 17.8012C37.4061 17.7856 37.4217 17.766 37.4334 17.7426C37.4439 17.7192 37.4491 17.6957 37.4491 17.6697C37.4478 17.6436 37.4412 17.6189 37.4295 17.5968C37.4165 17.5733 37.3996 17.5551 37.3787 17.5408Z" fill="white"/>
<path d="M37.3787 15.9589C37.3514 15.9394 37.3228 15.9303 37.2902 15.9316C37.2642 15.9303 37.2394 15.9368 37.216 15.9485C37.1925 15.9589 37.1743 15.9758 37.1587 15.9967C37.1431 16.0175 37.134 16.0409 37.1287 16.0657C37.1248 16.0917 37.1274 16.1165 37.1353 16.1412C37.1431 16.1659 37.1561 16.1881 37.1756 16.2063C37.1939 16.2232 37.216 16.2362 37.2407 16.2441C37.2655 16.2519 37.2902 16.2545 37.3162 16.2493C37.341 16.2454 37.3644 16.2349 37.3853 16.2193C37.4061 16.2037 37.4217 16.1842 37.4334 16.1607C37.4439 16.1373 37.4491 16.1126 37.4491 16.0865C37.4478 16.0618 37.4412 16.037 37.4295 16.0136C37.4165 15.9915 37.3996 15.9732 37.3787 15.9589Z" fill="white"/>
<path d="M38.8762 20.6763C38.8202 20.6776 38.7759 20.701 38.7446 20.7466C38.7134 20.7948 38.7082 20.8442 38.7303 20.8963C38.7577 20.9601 38.8071 20.9927 38.8762 20.9927C38.9465 20.9927 38.9946 20.9601 39.0233 20.8963C39.0311 20.8768 39.035 20.856 39.035 20.8351C39.035 20.8026 39.0259 20.7739 39.0077 20.7466C38.9764 20.701 38.9321 20.6776 38.8762 20.6763Z" fill="white"/>
<path d="M38.876 19.0955C38.8317 19.0955 38.7939 19.1111 38.7627 19.141C38.7314 19.1723 38.7158 19.21 38.7158 19.2543C38.7158 19.2986 38.7314 19.3363 38.7627 19.3676C38.7939 19.3988 38.8317 19.4145 38.876 19.4145C38.9202 19.4145 38.958 19.3988 38.9893 19.3663C39.0192 19.335 39.0348 19.2973 39.0348 19.2543C39.0348 19.21 39.0192 19.1723 38.988 19.1423C38.958 19.1111 38.9202 19.0955 38.876 19.0955Z" fill="white"/>
<path d="M38.0837 19.8877C38.0394 19.8877 38.0029 19.902 37.9717 19.9333C37.9404 19.9645 37.9248 20.001 37.9248 20.0452C37.9248 20.0882 37.9404 20.126 37.9717 20.1572C38.0016 20.1885 38.0394 20.2028 38.0824 20.2041C38.1266 20.2041 38.1644 20.1885 38.1956 20.1585C38.2269 20.1273 38.2425 20.0895 38.2425 20.0465C38.2425 20.0023 38.2269 19.9645 38.1969 19.9333C38.1657 19.9033 38.1279 19.8877 38.0837 19.8877Z" fill="white"/>
<path d="M39.6693 19.8877C39.6263 19.8877 39.5885 19.902 39.5573 19.9333C39.5273 19.9645 39.5117 20.001 39.5117 20.0452C39.5117 20.0882 39.526 20.126 39.5573 20.1572C39.5885 20.1885 39.625 20.2028 39.6693 20.2041C39.7122 20.2041 39.75 20.1885 39.7812 20.1585C39.8125 20.1273 39.8281 20.0895 39.8281 20.0465C39.8294 20.0023 39.8138 19.9645 39.7826 19.9333C39.7513 19.9033 39.7135 19.8877 39.6693 19.8877Z" fill="white"/>
<path d="M38.0837 18.3038C38.0394 18.3038 38.0029 18.3195 37.9717 18.3507C37.9404 18.382 37.9248 18.4184 37.9248 18.4627C37.9248 18.5057 37.9404 18.5434 37.9717 18.5747C38.0029 18.6059 38.0394 18.6202 38.0837 18.6202C38.1279 18.6202 38.1644 18.6059 38.1956 18.5747C38.2269 18.5434 38.2425 18.5057 38.2425 18.4627C38.2425 18.4184 38.2269 18.382 38.1956 18.3507C38.1644 18.3195 38.1279 18.3038 38.0837 18.3038Z" fill="white"/>
<path d="M39.6693 18.3038C39.6263 18.3038 39.5885 18.3195 39.5573 18.3507C39.5273 18.382 39.5117 18.4184 39.5117 18.4627C39.5117 18.5057 39.5273 18.5434 39.5573 18.5747C39.5885 18.6059 39.6263 18.6202 39.6693 18.6202C39.7135 18.6202 39.7513 18.6059 39.7826 18.5747C39.8125 18.5434 39.8281 18.5057 39.8281 18.4627C39.8281 18.4184 39.8125 18.382 39.7826 18.3507C39.7513 18.3195 39.7135 18.3038 39.6693 18.3038Z" fill="white"/>
<path d="M37.3785 20.7051C37.3421 20.6804 37.3017 20.6726 37.2587 20.6804C37.2158 20.6895 37.1819 20.7116 37.1572 20.7481C37.1259 20.7963 37.122 20.8458 37.1429 20.8978C37.1624 20.9434 37.1962 20.9734 37.2444 20.9877C37.2913 21.002 37.3369 20.9955 37.3785 20.9682C37.4046 20.9499 37.4228 20.9265 37.4358 20.8978C37.4436 20.8783 37.4488 20.8575 37.4488 20.8366C37.4488 20.8041 37.4397 20.7755 37.4215 20.7481C37.4098 20.7312 37.3955 20.7169 37.3785 20.7051Z" fill="white"/>
<path d="M37.3792 19.1228C37.3519 19.1046 37.3232 19.0955 37.2907 19.0955C37.249 19.0994 37.2139 19.1163 37.1865 19.1462C37.1579 19.1762 37.1436 19.2126 37.1436 19.2543C37.1436 19.296 37.1579 19.3311 37.1865 19.3624C37.2139 19.3923 37.249 19.4093 37.2907 19.4132C37.3232 19.4132 37.3519 19.4041 37.3792 19.3858C37.4001 19.3702 37.4183 19.352 37.43 19.3285C37.443 19.3051 37.4482 19.2804 37.4482 19.2543C37.4482 19.2283 37.443 19.2035 37.43 19.1801C37.4183 19.1567 37.4001 19.1371 37.3792 19.1228Z" fill="white"/>
<path d="M38.0837 21.4697C38.0394 21.4697 38.0029 21.4854 37.9717 21.5153C37.9404 21.5465 37.9248 21.5843 37.9248 21.6273C37.9248 21.6715 37.9404 21.708 37.9717 21.7393C38.0016 21.7705 38.0394 21.7861 38.0824 21.7861C38.1266 21.7861 38.1644 21.7705 38.1956 21.7406C38.2269 21.7093 38.2425 21.6729 38.2425 21.6286C38.2425 21.5843 38.2269 21.5479 38.1969 21.5166C38.1657 21.4854 38.1279 21.4697 38.0837 21.4697Z" fill="white"/>
<path d="M39.6693 21.4697C39.6263 21.4697 39.5885 21.4854 39.5573 21.5153C39.5273 21.5465 39.5117 21.5843 39.5117 21.6273C39.5117 21.6715 39.526 21.708 39.5573 21.7393C39.5885 21.7705 39.625 21.7861 39.6693 21.7861C39.7122 21.7861 39.75 21.7705 39.7812 21.7406C39.8125 21.7093 39.8281 21.6729 39.8281 21.6286C39.8294 21.5843 39.8138 21.5479 39.7826 21.5166C39.7513 21.4854 39.7135 21.4697 39.6693 21.4697Z" fill="white"/>
<path d="M35.7035 4.85352C35.6605 4.85352 35.6227 4.86914 35.5915 4.90039C35.5615 4.93034 35.5459 4.9681 35.5459 5.01237C35.5459 5.05534 35.5615 5.0931 35.5915 5.12435C35.6227 5.1543 35.6605 5.16992 35.7035 5.16992C35.7477 5.16992 35.7855 5.1543 35.8167 5.12435C35.8467 5.0931 35.8623 5.05534 35.8623 5.01237C35.8623 4.9681 35.8467 4.93034 35.8167 4.90039C35.7855 4.86914 35.7477 4.85352 35.7035 4.85352Z" fill="white"/>
<path d="M36.4977 4.06311C36.4535 4.06311 36.4157 4.07874 36.3844 4.10999C36.3545 4.14124 36.3389 4.17769 36.3389 4.22196C36.3389 4.26493 36.3545 4.30269 36.3844 4.33394C36.4157 4.36519 36.4535 4.37952 36.4977 4.37952C36.5407 4.37952 36.5785 4.36519 36.6097 4.33394C36.641 4.30269 36.6553 4.26493 36.6553 4.22196C36.6566 4.17769 36.641 4.14124 36.6097 4.10999C36.5785 4.07874 36.5407 4.06311 36.4977 4.06311Z" fill="white"/>
<path d="M35.7035 8.0188C35.6475 8.0188 35.6032 8.04224 35.5719 8.08911C35.5537 8.11645 35.5459 8.1451 35.5459 8.17765C35.5459 8.19849 35.5498 8.21932 35.5576 8.23885C35.585 8.30265 35.6344 8.33521 35.7035 8.33521C35.7738 8.33521 35.8232 8.30265 35.8506 8.23885C35.8584 8.21932 35.8623 8.19849 35.8623 8.17765C35.8623 8.1451 35.8532 8.11645 35.835 8.08911C35.8037 8.04354 35.7607 8.0201 35.7035 8.0188Z" fill="white"/>
<path d="M35.7035 6.43677C35.6605 6.43677 35.6227 6.45239 35.5915 6.48364C35.5615 6.51489 35.5459 6.55135 35.5459 6.59562C35.5459 6.63859 35.5615 6.67635 35.5915 6.7076C35.6227 6.73755 35.6605 6.75317 35.7035 6.75317C35.7477 6.75317 35.7855 6.73755 35.8167 6.7076C35.8467 6.67635 35.8623 6.63859 35.8623 6.59562C35.8623 6.55135 35.8467 6.51489 35.8167 6.48364C35.7855 6.45239 35.7477 6.43677 35.7035 6.43677Z" fill="white"/>
<path d="M34.9098 7.229C34.8669 7.229 34.8291 7.24463 34.7979 7.27458C34.7666 7.30583 34.751 7.34359 34.751 7.38656C34.751 7.43083 34.7666 7.46859 34.7979 7.49854C34.8291 7.52979 34.8669 7.54541 34.9098 7.54541C34.9541 7.54541 34.9919 7.52979 35.0218 7.49854C35.0531 7.46859 35.0687 7.43083 35.0687 7.38656C35.0687 7.34359 35.0531 7.30583 35.0218 7.27458C34.9919 7.24463 34.9541 7.229 34.9098 7.229Z" fill="white"/>
<path d="M36.4977 7.229C36.4535 7.229 36.4157 7.24463 36.3844 7.27458C36.3545 7.30583 36.3389 7.34359 36.3389 7.38656C36.3389 7.43083 36.3545 7.46859 36.3844 7.49854C36.4157 7.52979 36.4535 7.54541 36.4977 7.54541C36.5407 7.54541 36.5785 7.52979 36.6097 7.49854C36.641 7.46859 36.6553 7.43083 36.6553 7.38656C36.6553 7.34359 36.641 7.30583 36.6097 7.27458C36.5785 7.24463 36.5407 7.229 36.4977 7.229Z" fill="white"/>
<path d="M36.4977 5.64583C36.4535 5.64583 36.4157 5.66015 36.3844 5.6914C36.3545 5.72265 36.3389 5.76041 36.3389 5.80338C36.3389 5.84765 36.3545 5.88411 36.3844 5.91536C36.4157 5.94661 36.4535 5.96223 36.4977 5.96223C36.5407 5.96223 36.5785 5.94661 36.6097 5.91536C36.641 5.88411 36.6553 5.84765 36.6553 5.80338C36.6566 5.75911 36.641 5.72265 36.6097 5.6914C36.5785 5.66015 36.5407 5.64453 36.4977 5.64583Z" fill="white"/>
<path d="M34.1462 8.02222C34.1357 8.02091 34.1253 8.02091 34.1149 8.02222C34.0928 8.02222 34.0719 8.02612 34.0524 8.03394C34.0238 8.04696 34.0003 8.06649 33.9821 8.09253C33.9639 8.11857 33.9561 8.14852 33.9561 8.17977C33.9561 8.2019 33.96 8.22274 33.9678 8.24227C33.9847 8.28133 34.0133 8.30998 34.0524 8.3269C34.0719 8.33472 34.0928 8.33862 34.1149 8.33862C34.1253 8.33992 34.1357 8.33992 34.1462 8.33862C34.1995 8.3269 34.236 8.29565 34.2568 8.24487C34.266 8.22534 34.2699 8.20581 34.2699 8.18368C34.2699 8.15112 34.2607 8.12248 34.2425 8.09644C34.2204 8.05737 34.1878 8.03394 34.1462 8.02222Z" fill="white"/>
<path d="M35.7035 11.1841C35.6605 11.1841 35.6227 11.1997 35.5915 11.2297C35.5615 11.2609 35.5459 11.2987 35.5459 11.3416C35.5459 11.3859 35.5615 11.4237 35.5915 11.4536C35.6227 11.4849 35.6605 11.5005 35.7035 11.5005C35.7477 11.5005 35.7855 11.4849 35.8167 11.4536C35.8467 11.4237 35.8623 11.3859 35.8623 11.3416C35.8623 11.2987 35.8467 11.2609 35.8167 11.2297C35.7855 11.1997 35.7477 11.1841 35.7035 11.1841Z" fill="white"/>
<path d="M35.7035 9.60205C35.6605 9.60205 35.6227 9.61768 35.5915 9.64762C35.5615 9.67887 35.5459 9.71663 35.5459 9.7596C35.5459 9.80387 35.5615 9.84033 35.5915 9.87158C35.6227 9.90283 35.6605 9.91846 35.7035 9.91846C35.7477 9.91846 35.7855 9.90283 35.8167 9.87158C35.8467 9.84033 35.8623 9.80387 35.8623 9.7596C35.8623 9.71663 35.8467 9.67887 35.8167 9.64762C35.7855 9.61768 35.7477 9.60205 35.7035 9.60205Z" fill="white"/>
<path d="M34.9098 10.3931C34.8669 10.3931 34.8291 10.4087 34.7979 10.4399C34.7666 10.4712 34.751 10.5076 34.751 10.5519C34.751 10.5949 34.7666 10.6326 34.7979 10.6639C34.8291 10.6938 34.8669 10.7095 34.9098 10.7095C34.9541 10.7095 34.9919 10.6938 35.0218 10.6639C35.0531 10.6326 35.0687 10.5949 35.0687 10.5519C35.0687 10.5076 35.0531 10.4712 35.0218 10.4399C34.9919 10.4087 34.9541 10.3931 34.9098 10.3931Z" fill="white"/>
<path d="M36.4977 10.3931C36.4535 10.3931 36.4157 10.4087 36.3844 10.4399C36.3545 10.4712 36.3389 10.5076 36.3389 10.5519C36.3389 10.5949 36.3545 10.6326 36.3844 10.6639C36.4157 10.6938 36.4535 10.7095 36.4977 10.7095C36.5407 10.7095 36.5785 10.6938 36.6097 10.6639C36.641 10.6326 36.6553 10.5949 36.6553 10.5519C36.6553 10.5076 36.641 10.4712 36.6097 10.4399C36.5785 10.4087 36.5407 10.3931 36.4977 10.3931Z" fill="white"/>
<path d="M34.9098 8.8092C34.8669 8.8092 34.8291 8.82483 34.7979 8.85608C34.7666 8.88733 34.751 8.92379 34.751 8.96806C34.751 9.01103 34.7666 9.04879 34.7979 9.08004C34.8291 9.10999 34.8669 9.12561 34.9098 9.12561C34.9541 9.12561 34.9919 9.10999 35.0218 9.08004C35.0531 9.04879 35.0687 9.01103 35.0687 8.96806C35.0687 8.92379 35.0531 8.88733 35.0218 8.85608C34.9919 8.82483 34.9541 8.8092 34.9098 8.8092Z" fill="white"/>
<path d="M36.4977 8.8092C36.4535 8.8092 36.4157 8.82483 36.3844 8.85608C36.3545 8.88733 36.3389 8.92379 36.3389 8.96806C36.3389 9.01103 36.3545 9.04879 36.3844 9.08004C36.4157 9.10999 36.4535 9.12561 36.4977 9.12561C36.5407 9.12561 36.5785 9.10999 36.6097 9.08004C36.641 9.04879 36.6553 9.01103 36.6553 8.96806C36.6553 8.92379 36.641 8.88733 36.6097 8.85608C36.5785 8.82483 36.5407 8.8092 36.4977 8.8092Z" fill="white"/>
<path d="M34.1462 11.1871C34.1357 11.1871 34.1253 11.1871 34.1149 11.1871C34.0928 11.1871 34.0719 11.1923 34.0524 11.2015C33.9886 11.2288 33.9561 11.277 33.9561 11.346C33.9561 11.4163 33.9886 11.4645 34.0524 11.4918C34.0719 11.4996 34.0928 11.5035 34.1149 11.5035C34.1253 11.5048 34.1357 11.5048 34.1462 11.5035C34.1826 11.497 34.2139 11.4788 34.2373 11.4489C34.2607 11.4202 34.2725 11.3864 34.2725 11.3486C34.2738 11.3108 34.262 11.2757 34.2386 11.2457C34.2152 11.2158 34.1839 11.1962 34.1462 11.1871Z" fill="white"/>
<path d="M34.1462 9.60425C34.1357 9.60295 34.1253 9.60295 34.1149 9.60425C34.0928 9.60425 34.0719 9.60815 34.0524 9.61727C33.9886 9.64461 33.9561 9.69409 33.9561 9.7631C33.9561 9.83341 33.9886 9.88159 34.0524 9.90894C34.0719 9.91675 34.0928 9.92065 34.1149 9.92065C34.1253 9.92196 34.1357 9.92196 34.1462 9.92065C34.1826 9.91284 34.2139 9.89461 34.2373 9.86597C34.2607 9.83732 34.2725 9.80347 34.2725 9.76571C34.2738 9.72795 34.262 9.69279 34.2386 9.66284C34.2152 9.63159 34.1839 9.61206 34.1462 9.60425Z" fill="white"/>
<path d="M35.7033 14.3481C35.6772 14.3481 35.6525 14.3547 35.629 14.3677C35.6056 14.3807 35.5874 14.3976 35.5717 14.4198C35.5574 14.4419 35.5483 14.4653 35.5457 14.4927C35.5431 14.5187 35.547 14.5435 35.5574 14.5682C35.5848 14.632 35.6342 14.6646 35.7033 14.6646C35.7736 14.6646 35.823 14.632 35.8504 14.5682C35.8582 14.5487 35.8621 14.5278 35.8621 14.507C35.8621 14.4744 35.853 14.4458 35.8348 14.4185C35.8035 14.3729 35.7605 14.3494 35.7033 14.3481Z" fill="white"/>
<path d="M35.7035 12.7649C35.6605 12.7649 35.6227 12.7805 35.5915 12.8118C35.5615 12.843 35.5459 12.8795 35.5459 12.9237C35.5459 12.9667 35.5615 13.0045 35.5915 13.0357C35.6227 13.0657 35.6605 13.0813 35.7035 13.0813C35.7477 13.0813 35.7855 13.0657 35.8167 13.0357C35.8467 13.0045 35.8623 12.9667 35.8623 12.9237C35.8623 12.8795 35.8467 12.843 35.8167 12.8118C35.7855 12.7805 35.7477 12.7649 35.7035 12.7649Z" fill="white"/>
<path d="M34.9098 13.5577C34.8669 13.5577 34.8291 13.5734 34.7979 13.6033C34.7666 13.6346 34.751 13.6723 34.751 13.7153C34.751 13.7596 34.7666 13.796 34.7979 13.8273C34.8291 13.8585 34.8669 13.8741 34.9098 13.8741C34.9541 13.8741 34.9919 13.8585 35.0218 13.8273C35.0531 13.796 35.0687 13.7596 35.0687 13.7153C35.0687 13.6723 35.0531 13.6346 35.0218 13.6033C34.9919 13.5734 34.9541 13.5577 34.9098 13.5577Z" fill="white"/>
<path d="M36.4977 13.5577C36.4535 13.5577 36.4157 13.5734 36.3844 13.6033C36.3545 13.6346 36.3389 13.6723 36.3389 13.7153C36.3389 13.7596 36.3545 13.796 36.3844 13.8273C36.4157 13.8585 36.4535 13.8741 36.4977 13.8741C36.5407 13.8741 36.5785 13.8585 36.6097 13.8273C36.641 13.796 36.6553 13.7596 36.6553 13.7153C36.6553 13.6723 36.641 13.6346 36.6097 13.6033C36.5785 13.5734 36.5407 13.5577 36.4977 13.5577Z" fill="white"/>
<path d="M34.9098 11.9751C34.8669 11.9751 34.8291 11.9907 34.7979 12.022C34.7666 12.0532 34.751 12.0897 34.751 12.134C34.751 12.1782 34.7666 12.2147 34.7979 12.2459C34.8291 12.2772 34.8669 12.2928 34.9098 12.2928C34.9541 12.2928 34.9919 12.2772 35.0218 12.2459C35.0531 12.2147 35.0687 12.1782 35.0687 12.134C35.0687 12.0897 35.0531 12.0532 35.0218 12.022C34.9919 11.9907 34.9541 11.9751 34.9098 11.9751Z" fill="white"/>
<path d="M36.4977 11.9751C36.4535 11.9751 36.4157 11.9907 36.3844 12.022C36.3545 12.0532 36.3389 12.0897 36.3389 12.134C36.3389 12.1782 36.3545 12.2147 36.3844 12.2459C36.4157 12.2772 36.4535 12.2928 36.4977 12.2928C36.5407 12.2928 36.5785 12.2772 36.6097 12.2459C36.641 12.2147 36.6553 12.1782 36.6553 12.134C36.6553 12.0897 36.641 12.0532 36.6097 12.022C36.5785 11.9907 36.5407 11.9751 36.4977 11.9751Z" fill="white"/>
<path d="M34.1462 14.3522C34.1357 14.3509 34.1253 14.3509 34.1149 14.3522C34.0928 14.3522 34.0719 14.3561 34.0524 14.3652C34.0238 14.3769 34.0003 14.3964 33.9821 14.4225C33.9639 14.4485 33.9561 14.4785 33.9561 14.5097C33.9561 14.5319 33.96 14.5514 33.9678 14.5722C33.9847 14.6113 34.0133 14.6399 34.0524 14.6569C34.0719 14.6647 34.0928 14.6686 34.1149 14.6686C34.1253 14.6699 34.1357 14.6699 34.1462 14.6686C34.1995 14.6569 34.236 14.6256 34.2568 14.5748C34.266 14.5553 34.2699 14.5345 34.2699 14.5136C34.2699 14.4811 34.2607 14.4524 34.2425 14.4251C34.2204 14.3873 34.1878 14.3639 34.1462 14.3522Z" fill="white"/>
<path d="M34.1462 12.7653C34.1357 12.764 34.1253 12.764 34.1149 12.7653C34.0928 12.7653 34.0719 12.7692 34.0524 12.7783C33.9886 12.8056 33.9561 12.8551 33.9561 12.9241C33.9561 12.9944 33.9886 13.0426 34.0524 13.0699C34.0719 13.0778 34.0928 13.0817 34.1149 13.0817C34.1253 13.083 34.1357 13.083 34.1462 13.0817C34.1826 13.0739 34.2139 13.0556 34.2373 13.027C34.2607 12.9983 34.2725 12.9645 34.2725 12.9267C34.2738 12.889 34.262 12.8538 34.2386 12.8239C34.2152 12.7926 34.1839 12.7744 34.1462 12.7653Z" fill="white"/>
<path d="M35.7035 17.5134C35.6605 17.5134 35.6227 17.5291 35.5915 17.559C35.5615 17.5903 35.5459 17.628 35.5459 17.671C35.5459 17.7153 35.5615 17.7517 35.5915 17.783C35.6227 17.8142 35.6605 17.8298 35.7035 17.8298C35.7477 17.8298 35.7855 17.8142 35.8167 17.783C35.8467 17.7517 35.8623 17.7153 35.8623 17.671C35.8623 17.628 35.8467 17.5903 35.8167 17.559C35.7855 17.5291 35.7477 17.5134 35.7035 17.5134Z" fill="white"/>
<path d="M35.7035 15.9314C35.6605 15.9314 35.6227 15.9457 35.5915 15.977C35.5615 16.0082 35.5459 16.046 35.5459 16.0889C35.5459 16.1332 35.5615 16.1697 35.5915 16.2009C35.6227 16.2322 35.6605 16.2478 35.7035 16.2478C35.7477 16.2478 35.7855 16.2322 35.8167 16.2009C35.8467 16.1697 35.8623 16.1332 35.8623 16.0889C35.8623 16.046 35.8467 16.0082 35.8167 15.977C35.7855 15.9457 35.7477 15.9314 35.7035 15.9314Z" fill="white"/>
<path d="M34.9098 16.7212C34.8669 16.7212 34.8291 16.7368 34.7979 16.7681C34.7666 16.7993 34.751 16.8358 34.751 16.88C34.751 16.923 34.7666 16.9608 34.7979 16.992C34.8291 17.022 34.8669 17.0376 34.9098 17.0376C34.9541 17.0376 34.9919 17.022 35.0218 16.992C35.0531 16.9608 35.0687 16.923 35.0687 16.88C35.0687 16.8358 35.0531 16.7993 35.0218 16.7681C34.9919 16.7368 34.9541 16.7212 34.9098 16.7212Z" fill="white"/>
<path d="M36.4977 16.7212C36.4535 16.7212 36.4157 16.7368 36.3844 16.7681C36.3545 16.7993 36.3389 16.8358 36.3389 16.88C36.3389 16.923 36.3545 16.9608 36.3844 16.992C36.4157 17.022 36.4535 17.0376 36.4977 17.0376C36.5407 17.0376 36.5785 17.022 36.6097 16.992C36.641 16.9608 36.6553 16.923 36.6553 16.88C36.6553 16.8358 36.641 16.7993 36.6097 16.7681C36.5785 16.7368 36.5407 16.7212 36.4977 16.7212Z" fill="white"/>
<path d="M34.9098 15.1398C34.8669 15.1398 34.8291 15.1554 34.7979 15.1866C34.7666 15.2166 34.751 15.2544 34.751 15.2973C34.751 15.3416 34.7666 15.3794 34.7979 15.4093C34.8291 15.4406 34.8669 15.4562 34.9098 15.4562C34.9541 15.4562 34.9919 15.4406 35.0218 15.4093C35.0531 15.3794 35.0687 15.3416 35.0687 15.2973C35.0687 15.2544 35.0531 15.2166 35.0218 15.1866C34.9919 15.1554 34.9541 15.1398 34.9098 15.1398Z" fill="white"/>
<path d="M36.4977 15.1398C36.4535 15.1398 36.4157 15.1554 36.3844 15.1866C36.3545 15.2166 36.3389 15.2544 36.3389 15.2973C36.3389 15.3416 36.3545 15.3794 36.3844 15.4093C36.4157 15.4406 36.4535 15.4562 36.4977 15.4562C36.5407 15.4562 36.5785 15.4406 36.6097 15.4093C36.641 15.3794 36.6553 15.3416 36.6553 15.2973C36.6553 15.2544 36.641 15.2166 36.6097 15.1866C36.5785 15.1554 36.5407 15.1398 36.4977 15.1398Z" fill="white"/>
<path d="M34.1462 17.5162C34.1357 17.5149 34.1253 17.5149 34.1149 17.5162C34.0928 17.5162 34.0719 17.5214 34.0524 17.5293C33.9886 17.5566 33.9561 17.6061 33.9561 17.6751C33.9561 17.7454 33.9886 17.7936 34.0524 17.8209C34.0719 17.8287 34.0928 17.8326 34.1149 17.8326C34.1253 17.8339 34.1357 17.8339 34.1462 17.8326C34.1826 17.8261 34.2139 17.8066 34.2373 17.778C34.2607 17.7493 34.2725 17.7155 34.2725 17.6777C34.2738 17.6399 34.262 17.6048 34.2386 17.5748C34.2152 17.5436 34.1839 17.5253 34.1462 17.5162Z" fill="white"/>
<path d="M34.1462 15.9342C34.1357 15.9329 34.1253 15.9329 34.1149 15.9342C34.0928 15.9342 34.0719 15.9381 34.0524 15.9472C33.9886 15.9746 33.9561 16.0227 33.9561 16.0931C33.9561 16.1634 33.9886 16.2115 34.0524 16.2389C34.0719 16.2467 34.0928 16.2506 34.1149 16.2506H34.1462C34.2295 16.2324 34.2712 16.1803 34.2712 16.0957C34.2712 16.0097 34.2295 15.9589 34.1462 15.9394V15.9342Z" fill="white"/>
<path d="M35.7033 20.6763C35.6473 20.6776 35.603 20.701 35.5718 20.7466C35.5405 20.7948 35.5353 20.8442 35.5575 20.8963C35.5848 20.9601 35.6343 20.9927 35.7033 20.9927C35.7736 20.9927 35.8231 20.9601 35.8504 20.8963C35.8583 20.8768 35.8622 20.856 35.8622 20.8351C35.8622 20.8026 35.853 20.7739 35.8348 20.7466C35.8036 20.701 35.7606 20.6776 35.7033 20.6763Z" fill="white"/>
<path d="M35.7031 19.0955C35.6589 19.0955 35.6211 19.1111 35.5898 19.141C35.5586 19.1723 35.543 19.21 35.543 19.2543C35.543 19.2986 35.5586 19.3363 35.5898 19.3676C35.6211 19.3988 35.6589 19.4145 35.7031 19.4145C35.7474 19.4145 35.7852 19.3988 35.8164 19.3663C35.8477 19.335 35.8633 19.2973 35.862 19.2543C35.862 19.21 35.8464 19.1723 35.8164 19.1423C35.7852 19.1111 35.7474 19.0955 35.7031 19.0955Z" fill="white"/>
<path d="M34.9098 19.8877C34.8669 19.8877 34.8291 19.902 34.7979 19.9333C34.7666 19.9645 34.751 20.001 34.751 20.0452C34.751 20.0882 34.7666 20.126 34.7979 20.1572C34.8278 20.1885 34.8656 20.2028 34.9098 20.2041C34.9528 20.2041 34.9906 20.1885 35.0218 20.1585C35.0531 20.1273 35.0687 20.0895 35.0687 20.0465C35.0687 20.0023 35.0544 19.9645 35.0231 19.9333C34.9919 19.9033 34.9541 19.8877 34.9098 19.8877Z" fill="white"/>
<path d="M36.4977 19.8877C36.4535 19.8877 36.4157 19.902 36.3857 19.9333C36.3545 19.9645 36.3389 20.001 36.3389 20.0452C36.3389 20.0882 36.3545 20.126 36.3844 20.1572C36.4157 20.1885 36.4521 20.2028 36.4964 20.2041C36.5407 20.2041 36.5771 20.1885 36.6084 20.1585C36.6396 20.1273 36.6553 20.0895 36.6553 20.0465C36.6566 20.0023 36.641 19.9645 36.6097 19.9333C36.5785 19.9033 36.5407 19.8877 36.4977 19.8877Z" fill="white"/>
<path d="M34.9098 18.3038C34.8669 18.3038 34.8291 18.3195 34.7979 18.3507C34.7666 18.382 34.751 18.4184 34.751 18.4627C34.751 18.5057 34.7666 18.5434 34.7979 18.5747C34.8291 18.6059 34.8669 18.6202 34.9098 18.6202C34.9541 18.6202 34.9919 18.6059 35.0218 18.5747C35.0531 18.5434 35.0687 18.5057 35.0687 18.4627C35.0687 18.4184 35.0531 18.382 35.0218 18.3507C34.9919 18.3195 34.9541 18.3038 34.9098 18.3038Z" fill="white"/>
<path d="M36.4977 18.3038C36.4535 18.3038 36.4157 18.3195 36.3844 18.3507C36.3545 18.382 36.3389 18.4184 36.3389 18.4627C36.3389 18.5057 36.3545 18.5434 36.3844 18.5747C36.4157 18.6059 36.4535 18.6202 36.4977 18.6202C36.5407 18.6202 36.5785 18.6059 36.6097 18.5747C36.641 18.5434 36.6553 18.5057 36.6553 18.4627C36.6553 18.4184 36.641 18.382 36.6097 18.3507C36.5785 18.3195 36.5407 18.3038 36.4977 18.3038Z" fill="white"/>
<path d="M34.146 20.676C34.1355 20.6747 34.1251 20.6747 34.1147 20.676C34.0874 20.6773 34.0626 20.6825 34.0392 20.6956C34.0158 20.7086 33.9975 20.7255 33.9819 20.7476C33.9676 20.7698 33.9585 20.7932 33.9559 20.8206C33.9533 20.8466 33.9572 20.8713 33.9676 20.8961C33.9845 20.9364 34.0132 20.9638 34.0522 20.9807C34.0717 20.9885 34.0926 20.9924 34.1147 20.9924C34.1251 20.9937 34.1355 20.9937 34.146 20.9924C34.1993 20.982 34.2358 20.9508 34.2566 20.9C34.2658 20.8805 34.2697 20.8596 34.2697 20.8375C34.2697 20.8062 34.2605 20.7763 34.2423 20.7502C34.2202 20.7125 34.1876 20.6877 34.146 20.676Z" fill="white"/>
<path d="M34.1462 19.1001C34.1357 19.0988 34.1253 19.0988 34.1149 19.1001C34.0928 19.0988 34.0719 19.104 34.0524 19.1131C33.9886 19.1405 33.9561 19.1886 33.9561 19.2576C33.9561 19.328 33.9886 19.3761 34.0524 19.4035C34.0719 19.4126 34.0928 19.4165 34.1149 19.4165C34.1253 19.4178 34.1357 19.4178 34.1462 19.4165C34.2295 19.3983 34.2712 19.3462 34.2712 19.2616C34.2712 19.1769 34.2295 19.1248 34.1462 19.1066V19.1001Z" fill="white"/>
<path d="M34.9098 21.4697C34.8669 21.4697 34.8291 21.4854 34.7979 21.5153C34.7666 21.5465 34.751 21.5843 34.751 21.6273C34.751 21.6715 34.7666 21.708 34.7979 21.7393C34.8278 21.7705 34.8656 21.7861 34.9098 21.7861C34.9528 21.7861 34.9906 21.7705 35.0218 21.7406C35.0531 21.7093 35.0687 21.6729 35.0687 21.6286C35.0687 21.5843 35.0544 21.5479 35.0231 21.5166C34.9919 21.4854 34.9541 21.4697 34.9098 21.4697Z" fill="white"/>
<path d="M36.4977 21.4697C36.4535 21.4697 36.4157 21.4854 36.3857 21.5153C36.3545 21.5465 36.3389 21.5843 36.3389 21.6273C36.3389 21.6715 36.3545 21.708 36.3844 21.7393C36.4157 21.7705 36.4521 21.7861 36.4964 21.7861C36.5407 21.7861 36.5771 21.7705 36.6084 21.7406C36.6396 21.7093 36.6553 21.6729 36.6553 21.6286C36.6566 21.5843 36.641 21.5479 36.6097 21.5166C36.5785 21.4854 36.5407 21.4697 36.4977 21.4697Z" fill="white"/>
<path d="M32.5309 11.1841C32.4867 11.1841 32.4489 11.1997 32.4176 11.2297C32.3877 11.2609 32.3721 11.2987 32.3721 11.3416C32.3721 11.3859 32.3877 11.4237 32.4176 11.4536C32.4489 11.4849 32.4867 11.5005 32.5309 11.5005C32.5739 11.5005 32.6117 11.4849 32.6429 11.4536C32.6742 11.4237 32.6885 11.3859 32.6885 11.3416C32.6885 11.2987 32.6742 11.2609 32.6429 11.2297C32.6117 11.1997 32.5739 11.1841 32.5309 11.1841Z" fill="white"/>
<path d="M33.3243 10.3931C33.28 10.3944 33.2436 10.41 33.2123 10.4412C33.1824 10.4725 33.1667 10.509 33.168 10.5532C33.168 10.5962 33.1837 10.634 33.2149 10.6639C33.2462 10.6951 33.2839 10.7095 33.3269 10.7095C33.3712 10.7095 33.4076 10.6938 33.4389 10.6639C33.4701 10.6326 33.4845 10.5949 33.4845 10.5519C33.4845 10.5076 33.4688 10.4699 33.4376 10.4386C33.4063 10.4074 33.3686 10.3931 33.3243 10.3931Z" fill="white"/>
<path d="M33.3243 8.8092C33.28 8.81051 33.2436 8.82613 33.2123 8.85738C33.1824 8.88863 33.1667 8.92509 33.168 8.96936C33.168 9.01233 33.1837 9.04879 33.2149 9.08004C33.2449 9.10999 33.2826 9.12561 33.3269 9.12561C33.3699 9.12561 33.4076 9.10999 33.4376 9.08004C33.4688 9.04879 33.4845 9.01233 33.4845 8.96936C33.4858 8.92509 33.4701 8.88603 33.4376 8.85478C33.4063 8.82353 33.3686 8.8092 33.3243 8.8092Z" fill="white"/>
<path d="M32.5315 14.3481C32.5042 14.3481 32.4795 14.3547 32.456 14.3677C32.4326 14.3807 32.4144 14.3976 32.3987 14.4198C32.3844 14.4419 32.3766 14.4653 32.374 14.4927C32.3714 14.5187 32.374 14.5435 32.3844 14.5682C32.4117 14.632 32.4612 14.6646 32.5315 14.6646C32.6005 14.6646 32.65 14.632 32.6774 14.5682C32.6852 14.5487 32.6904 14.5278 32.6891 14.507C32.6904 14.4744 32.6813 14.4458 32.6617 14.4185C32.6305 14.3729 32.5875 14.3494 32.5315 14.3481Z" fill="white"/>
<path d="M32.5309 12.7649C32.4867 12.7649 32.4489 12.7805 32.4176 12.8118C32.3877 12.843 32.3721 12.8795 32.3721 12.9237C32.3721 12.9667 32.3877 13.0045 32.4176 13.0357C32.4489 13.0657 32.4867 13.0813 32.5309 13.0813C32.5739 13.0813 32.6117 13.0657 32.6429 13.0357C32.6742 13.0045 32.6885 12.9667 32.6885 12.9237C32.6885 12.8795 32.6742 12.843 32.6429 12.8118C32.6117 12.7805 32.5739 12.7649 32.5309 12.7649Z" fill="white"/>
<path d="M31.7367 13.5577C31.6937 13.5577 31.6559 13.5734 31.6247 13.6033C31.5934 13.6346 31.5791 13.6723 31.5791 13.7153C31.5791 13.7596 31.5934 13.796 31.6247 13.8273C31.6559 13.8585 31.6937 13.8741 31.7367 13.8741C31.7809 13.8741 31.8187 13.8585 31.8499 13.8273C31.8799 13.796 31.8955 13.7596 31.8955 13.7153C31.8955 13.6723 31.8799 13.6346 31.8499 13.6033C31.8187 13.5734 31.7809 13.5577 31.7367 13.5577Z" fill="white"/>
<path d="M33.3239 13.5577C33.2796 13.5577 33.2419 13.5734 33.2119 13.6033C33.1807 13.6346 33.165 13.6723 33.165 13.7153C33.165 13.7596 33.1807 13.796 33.2119 13.8273C33.2419 13.8585 33.2796 13.8741 33.3239 13.8741C33.3669 13.8741 33.4046 13.8585 33.4359 13.8273C33.4671 13.796 33.4827 13.7596 33.4827 13.7153C33.4827 13.6723 33.4671 13.6346 33.4359 13.6033C33.4046 13.5734 33.3669 13.5577 33.3239 13.5577Z" fill="white"/>
<path d="M31.7367 11.9751C31.6937 11.9751 31.6559 11.9907 31.6247 12.022C31.5934 12.0532 31.5791 12.0897 31.5791 12.134C31.5791 12.1782 31.5934 12.2147 31.6247 12.2459C31.6559 12.2772 31.6937 12.2928 31.7367 12.2928C31.7809 12.2928 31.8187 12.2772 31.8499 12.2459C31.8799 12.2147 31.8955 12.1782 31.8955 12.134C31.8955 12.0897 31.8799 12.0532 31.8499 12.022C31.8187 11.9907 31.7809 11.9751 31.7367 11.9751Z" fill="white"/>
<path d="M33.3239 11.9751C33.2796 11.9751 33.2419 11.9907 33.2119 12.022C33.1807 12.0532 33.165 12.0897 33.165 12.134C33.165 12.1782 33.1807 12.2147 33.2119 12.2459C33.2419 12.2772 33.2796 12.2928 33.3239 12.2928C33.3669 12.2928 33.4046 12.2772 33.4359 12.2459C33.4671 12.2147 33.4827 12.1782 33.4827 12.134C33.4827 12.0897 33.4671 12.0532 33.4359 12.022C33.4046 11.9907 33.3669 11.9751 33.3239 11.9751Z" fill="white"/>
<path d="M31.032 14.3755C31.006 14.3573 30.976 14.3481 30.9435 14.3481C30.9174 14.3481 30.8927 14.3547 30.8693 14.3677C30.8458 14.3807 30.8263 14.3976 30.812 14.4198C30.7977 14.4419 30.7885 14.4653 30.7859 14.4927C30.7833 14.5187 30.7872 14.5435 30.7977 14.5682C30.8172 14.6138 30.851 14.6437 30.8979 14.658C30.9461 14.6724 30.9904 14.6659 31.032 14.6385C31.0581 14.6203 31.0776 14.5968 31.0906 14.5682C31.0984 14.5487 31.1023 14.5278 31.1023 14.507C31.1023 14.4744 31.0932 14.4458 31.075 14.4185C31.0646 14.4015 31.0503 14.3872 31.032 14.3755Z" fill="white"/>
<path d="M31.0331 12.7935C31.007 12.7752 30.9771 12.7661 30.9445 12.7661C30.9185 12.7661 30.8937 12.7713 30.8716 12.783C30.8482 12.7948 30.8286 12.8104 30.813 12.8312C30.7974 12.8534 30.7883 12.8755 30.7844 12.9015C30.7805 12.9276 30.7818 12.9523 30.7896 12.9771C30.7987 13.0018 30.8117 13.0226 30.8299 13.0409C30.8482 13.0591 30.8703 13.0721 30.895 13.0799C30.9198 13.0877 30.9445 13.089 30.9706 13.0851C30.9966 13.0799 31.0187 13.0708 31.0396 13.0552C31.0604 13.0396 31.076 13.02 31.0877 12.9966C31.0995 12.9731 31.1047 12.9484 31.1034 12.9224C31.1034 12.8963 31.0969 12.8716 31.0838 12.8494C31.0721 12.8273 31.0539 12.8078 31.0331 12.7935Z" fill="white"/>
<path d="M32.5309 17.5134C32.4867 17.5134 32.4489 17.5291 32.4176 17.559C32.3877 17.5903 32.3721 17.628 32.3721 17.671C32.3721 17.7153 32.3877 17.7517 32.4176 17.783C32.4489 17.8142 32.4867 17.8298 32.5309 17.8298C32.5739 17.8298 32.6117 17.8142 32.6429 17.783C32.6742 17.7517 32.6885 17.7153 32.6885 17.671C32.6885 17.628 32.6742 17.5903 32.6429 17.559C32.6117 17.5291 32.5739 17.5134 32.5309 17.5134Z" fill="white"/>
<path d="M32.5309 15.9314C32.4867 15.9314 32.4489 15.9457 32.4176 15.977C32.3877 16.0082 32.3721 16.046 32.3721 16.0889C32.3721 16.1332 32.3877 16.1697 32.4176 16.2009C32.4489 16.2322 32.4867 16.2478 32.5309 16.2478C32.5739 16.2478 32.6117 16.2322 32.6429 16.2009C32.6742 16.1697 32.6885 16.1332 32.6885 16.0889C32.6885 16.046 32.6742 16.0082 32.6429 15.977C32.6117 15.9457 32.5739 15.9314 32.5309 15.9314Z" fill="white"/>
<path d="M31.7367 16.7212C31.6937 16.7212 31.6559 16.7368 31.6247 16.7681C31.5934 16.7993 31.5791 16.8358 31.5791 16.88C31.5791 16.923 31.5934 16.9608 31.6247 16.992C31.6559 17.022 31.6937 17.0376 31.7367 17.0376C31.7809 17.0376 31.8187 17.022 31.8499 16.992C31.8799 16.9608 31.8955 16.923 31.8955 16.88C31.8955 16.8358 31.8799 16.7993 31.8499 16.7681C31.8187 16.7368 31.7809 16.7212 31.7367 16.7212Z" fill="white"/>
<path d="M33.3239 16.7212C33.2796 16.7212 33.2419 16.7368 33.2119 16.7681C33.1807 16.7993 33.165 16.8358 33.165 16.88C33.165 16.923 33.1807 16.9608 33.2119 16.992C33.2419 17.022 33.2796 17.0376 33.3239 17.0376C33.3669 17.0376 33.4046 17.022 33.4359 16.992C33.4671 16.9608 33.4827 16.923 33.4827 16.88C33.4827 16.8358 33.4671 16.7993 33.4359 16.7681C33.4046 16.7368 33.3669 16.7212 33.3239 16.7212Z" fill="white"/>
<path d="M31.7367 15.1398C31.6937 15.1398 31.6559 15.1554 31.6247 15.1866C31.5934 15.2166 31.5791 15.2544 31.5791 15.2973C31.5791 15.3416 31.5934 15.3794 31.6247 15.4093C31.6559 15.4406 31.6937 15.4562 31.7367 15.4562C31.7809 15.4562 31.8187 15.4406 31.8499 15.4093C31.8799 15.3794 31.8955 15.3416 31.8955 15.2973C31.8955 15.2544 31.8799 15.2166 31.8499 15.1866C31.8187 15.1554 31.7809 15.1398 31.7367 15.1398Z" fill="white"/>
<path d="M33.3239 15.1398C33.2796 15.1398 33.2419 15.1554 33.2119 15.1866C33.1807 15.2166 33.165 15.2544 33.165 15.2973C33.165 15.3416 33.1807 15.3794 33.2119 15.4093C33.2419 15.4406 33.2796 15.4562 33.3239 15.4562C33.3669 15.4562 33.4046 15.4406 33.4359 15.4093C33.4671 15.3794 33.4827 15.3416 33.4827 15.2973C33.4827 15.2544 33.4671 15.2166 33.4359 15.1866C33.4046 15.1554 33.3669 15.1398 33.3239 15.1398Z" fill="white"/>
<path d="M31.0331 17.5408C31.007 17.5225 30.9771 17.5134 30.9445 17.5134C30.9185 17.5134 30.8937 17.5186 30.8716 17.5304C30.8482 17.5421 30.8286 17.5577 30.813 17.5785C30.7974 17.5994 30.7883 17.6228 30.7844 17.6488C30.7805 17.6736 30.7818 17.6996 30.7896 17.7231C30.7987 17.7478 30.8117 17.7699 30.8299 17.7882C30.8482 17.8064 30.8703 17.8194 30.895 17.8272C30.9198 17.8337 30.9445 17.8363 30.9706 17.8311C30.9966 17.8272 31.0187 17.8168 31.0396 17.8012C31.0604 17.7856 31.076 17.766 31.0877 17.7426C31.0995 17.7192 31.1047 17.6957 31.1034 17.6697C31.1034 17.6436 31.0969 17.6189 31.0838 17.5968C31.0721 17.5733 31.0539 17.5551 31.0331 17.5408Z" fill="white"/>
<path d="M31.0331 15.9589C31.007 15.9394 30.9771 15.9303 30.9445 15.9316C30.9185 15.9303 30.8937 15.9368 30.8716 15.9485C30.8482 15.9589 30.8286 15.9758 30.813 15.9967C30.7974 16.0175 30.7883 16.0409 30.7844 16.0657C30.7805 16.0917 30.7818 16.1165 30.7896 16.1412C30.7987 16.1659 30.8117 16.1881 30.8299 16.2063C30.8482 16.2232 30.8703 16.2362 30.895 16.2441C30.9198 16.2519 30.9445 16.2545 30.9706 16.2493C30.9966 16.2454 31.0187 16.2349 31.0396 16.2193C31.0604 16.2037 31.076 16.1842 31.0877 16.1607C31.0995 16.1373 31.1047 16.1126 31.1034 16.0865C31.1034 16.0618 31.0969 16.037 31.0838 16.0136C31.0721 15.9915 31.0539 15.9732 31.0331 15.9589Z" fill="white"/>
<path d="M32.5311 20.6763C32.4738 20.6776 32.4295 20.701 32.3982 20.7466C32.367 20.7948 32.3618 20.8442 32.3826 20.8963C32.4113 20.9601 32.4594 20.9927 32.5298 20.9927C32.5988 20.9927 32.6482 20.9601 32.6756 20.8963C32.6847 20.8768 32.6886 20.856 32.6886 20.8351C32.6886 20.8026 32.6795 20.7739 32.66 20.7466C32.63 20.701 32.5857 20.6776 32.5311 20.6763Z" fill="white"/>
<path d="M32.5316 19.0955C32.4873 19.0955 32.4495 19.1111 32.417 19.141C32.3857 19.1723 32.3701 19.21 32.3701 19.2543C32.3701 19.2986 32.3857 19.3363 32.417 19.3676C32.4482 19.3988 32.486 19.4145 32.5303 19.4145C32.5745 19.4145 32.6123 19.3988 32.6436 19.3663C32.6748 19.335 32.6904 19.2973 32.6891 19.2543C32.6891 19.21 32.6748 19.1723 32.6436 19.1423C32.6123 19.1111 32.5745 19.0955 32.5316 19.0955Z" fill="white"/>
<path d="M31.7367 19.8877C31.6937 19.8877 31.6559 19.902 31.6247 19.9333C31.5947 19.9645 31.5791 20.001 31.5791 20.0452C31.5791 20.0882 31.5934 20.126 31.6247 20.1572C31.6559 20.1885 31.6924 20.2028 31.7367 20.2041C31.7796 20.2041 31.8174 20.1885 31.8486 20.1585C31.8799 20.1273 31.8955 20.0895 31.8955 20.0465C31.8968 20.0023 31.8812 19.9645 31.8499 19.9333C31.8187 19.9033 31.7809 19.8877 31.7367 19.8877Z" fill="white"/>
<path d="M33.3239 19.8877C33.2796 19.8877 33.2432 19.902 33.2119 19.9333C33.1807 19.9645 33.165 20.001 33.165 20.0452C33.165 20.0882 33.1807 20.126 33.2106 20.1572C33.2419 20.1885 33.2796 20.2028 33.3226 20.2041C33.3669 20.2041 33.4046 20.1885 33.4359 20.1585C33.4658 20.1273 33.4814 20.0895 33.4827 20.0465C33.4827 20.0023 33.4671 19.9645 33.4359 19.9333C33.4046 19.9033 33.3682 19.8877 33.3239 19.8877Z" fill="white"/>
<path d="M31.7367 18.3038C31.6937 18.3038 31.6559 18.3195 31.6247 18.3507C31.5934 18.382 31.5791 18.4184 31.5791 18.4627C31.5791 18.5057 31.5934 18.5434 31.6247 18.5747C31.6559 18.6059 31.6937 18.6202 31.7367 18.6202C31.7809 18.6202 31.8187 18.6059 31.8499 18.5747C31.8799 18.5434 31.8955 18.5057 31.8955 18.4627C31.8955 18.4184 31.8799 18.382 31.8499 18.3507C31.8187 18.3195 31.7809 18.3038 31.7367 18.3038Z" fill="white"/>
<path d="M33.3239 18.3038C33.2796 18.3038 33.2419 18.3195 33.2119 18.3507C33.1807 18.382 33.165 18.4184 33.165 18.4627C33.165 18.5057 33.1807 18.5434 33.2119 18.5747C33.2419 18.6059 33.2796 18.6202 33.3239 18.6202C33.3669 18.6202 33.4046 18.6059 33.4359 18.5747C33.4671 18.5434 33.4827 18.5057 33.4827 18.4627C33.4827 18.4184 33.4671 18.382 33.4359 18.3507C33.4046 18.3195 33.3669 18.3038 33.3239 18.3038Z" fill="white"/>
<path d="M31.0321 20.7051C30.9956 20.6804 30.9566 20.6726 30.9123 20.6804C30.8693 20.6895 30.8355 20.7116 30.812 20.7481C30.7808 20.7963 30.7756 20.8458 30.7977 20.8978C30.8172 20.9434 30.8511 20.9734 30.898 20.9877C30.9461 21.002 30.9904 20.9955 31.0321 20.9682C31.0581 20.9499 31.0777 20.9265 31.0907 20.8978C31.0985 20.8783 31.1024 20.8575 31.1024 20.8366C31.1024 20.8041 31.0933 20.7755 31.0751 20.7481C31.0633 20.7312 31.049 20.7169 31.0321 20.7051Z" fill="white"/>
<path d="M31.0322 19.1228C31.0049 19.1046 30.9762 19.0955 30.9437 19.0955C30.902 19.0994 30.8682 19.1163 30.8395 19.1462C30.8122 19.1762 30.7979 19.2126 30.7979 19.2543C30.7979 19.296 30.8122 19.3311 30.8395 19.3624C30.8682 19.3923 30.902 19.4093 30.9437 19.4132C30.9762 19.4132 31.0049 19.4041 31.0322 19.3858C31.0544 19.3702 31.0713 19.352 31.083 19.3285C31.096 19.3051 31.1025 19.2804 31.1025 19.2543C31.1025 19.2283 31.096 19.2035 31.083 19.1801C31.0713 19.1567 31.0544 19.1371 31.0322 19.1228Z" fill="white"/>
<path d="M31.7367 21.4697C31.6937 21.4697 31.6559 21.4854 31.6247 21.5153C31.5947 21.5465 31.5791 21.5843 31.5791 21.6273C31.5791 21.6715 31.5934 21.708 31.6247 21.7393C31.6559 21.7705 31.6924 21.7861 31.7367 21.7861C31.7796 21.7861 31.8174 21.7705 31.8486 21.7406C31.8799 21.7093 31.8955 21.6729 31.8955 21.6286C31.8968 21.5843 31.8812 21.5479 31.8499 21.5166C31.8187 21.4854 31.7809 21.4697 31.7367 21.4697Z" fill="white"/>
<path d="M33.3239 21.4697C33.2796 21.4697 33.2432 21.4854 33.2119 21.5153C33.1807 21.5465 33.165 21.5843 33.165 21.6273C33.165 21.6715 33.1807 21.708 33.2106 21.7393C33.2419 21.7705 33.2796 21.7861 33.3226 21.7861C33.3669 21.7861 33.4046 21.7705 33.4359 21.7406C33.4658 21.7093 33.4814 21.6729 33.4827 21.6286C33.4827 21.5843 33.4671 21.5479 33.4359 21.5166C33.4046 21.4854 33.3682 21.4697 33.3239 21.4697Z" fill="white"/>
<path d="M29.3581 17.5134C29.3138 17.5134 29.276 17.5291 29.2461 17.559C29.2148 17.5903 29.1992 17.628 29.1992 17.671C29.1992 17.7153 29.2148 17.7517 29.2461 17.783C29.276 17.8142 29.3138 17.8298 29.3581 17.8298C29.401 17.8298 29.4388 17.8142 29.4701 17.783C29.5013 17.7517 29.5169 17.7153 29.5169 17.671C29.5169 17.628 29.5013 17.5903 29.4701 17.559C29.4388 17.5291 29.401 17.5134 29.3581 17.5134Z" fill="white"/>
<path d="M29.3581 15.9314C29.3138 15.9314 29.276 15.9457 29.2461 15.977C29.2148 16.0082 29.1992 16.046 29.1992 16.0889C29.1992 16.1332 29.2148 16.1697 29.2461 16.2009C29.276 16.2322 29.3138 16.2478 29.3581 16.2478C29.401 16.2478 29.4388 16.2322 29.4701 16.2009C29.5013 16.1697 29.5169 16.1332 29.5169 16.0889C29.5169 16.046 29.5013 16.0082 29.4701 15.977C29.4388 15.9457 29.401 15.9314 29.3581 15.9314Z" fill="white"/>
<path d="M28.5651 16.7212C28.5208 16.7212 28.4831 16.7368 28.4518 16.7681C28.4219 16.7993 28.4062 16.8358 28.4062 16.88C28.4062 16.923 28.4219 16.9608 28.4518 16.992C28.4831 17.022 28.5208 17.0376 28.5651 17.0376C28.6081 17.0376 28.6458 17.022 28.6771 16.992C28.7083 16.9608 28.7227 16.923 28.7227 16.88C28.7227 16.8358 28.7083 16.7993 28.6771 16.7681C28.6458 16.7368 28.6081 16.7212 28.5651 16.7212Z" fill="white"/>
<path d="M30.151 16.7212C30.1068 16.7212 30.0703 16.7368 30.0391 16.7681C30.0078 16.7993 29.9922 16.8358 29.9922 16.88C29.9922 16.923 30.0078 16.9608 30.0391 16.992C30.0703 17.022 30.1068 17.0376 30.151 17.0376C30.1953 17.0376 30.2318 17.022 30.263 16.992C30.2943 16.9608 30.3099 16.923 30.3099 16.88C30.3099 16.8358 30.2943 16.7993 30.263 16.7681C30.2318 16.7368 30.1953 16.7212 30.151 16.7212Z" fill="white"/>
<path d="M30.151 15.1398C30.1068 15.1398 30.0703 15.1554 30.0391 15.1866C30.0078 15.2166 29.9922 15.2544 29.9922 15.2973C29.9922 15.3416 30.0078 15.3794 30.0391 15.4093C30.0703 15.4406 30.1068 15.4562 30.151 15.4562C30.1953 15.4562 30.2318 15.4406 30.263 15.4093C30.2943 15.3794 30.3099 15.3416 30.3099 15.2973C30.3099 15.2544 30.2943 15.2166 30.263 15.1866C30.2318 15.1554 30.1953 15.1398 30.151 15.1398Z" fill="white"/>
<path d="M29.3583 20.6763C29.3011 20.6776 29.2581 20.701 29.2255 20.7466C29.1943 20.7948 29.1904 20.8442 29.2112 20.8963C29.2399 20.9601 29.288 20.9927 29.3583 20.9927C29.4274 20.9927 29.4768 20.9601 29.5042 20.8963C29.5133 20.8768 29.5172 20.856 29.5172 20.8351C29.5172 20.8026 29.5081 20.7739 29.4899 20.7466C29.4586 20.701 29.4143 20.6776 29.3583 20.6763Z" fill="white"/>
<path d="M29.3577 19.0955C29.3135 19.0955 29.2757 19.1111 29.2445 19.141C29.2119 19.1723 29.1963 19.21 29.1963 19.2543C29.1963 19.2986 29.2119 19.3363 29.2432 19.3676C29.2744 19.3988 29.3122 19.4145 29.3564 19.4145C29.4007 19.4145 29.4385 19.3988 29.4697 19.3663C29.501 19.335 29.5166 19.2973 29.5166 19.2543C29.5166 19.21 29.501 19.1723 29.4697 19.1423C29.4385 19.1111 29.4007 19.0955 29.3577 19.0955Z" fill="white"/>
<path d="M28.5651 19.8877C28.5208 19.8877 28.4831 19.902 28.4531 19.9333C28.4219 19.9645 28.4062 20.001 28.4062 20.0452C28.4062 20.0882 28.4219 20.126 28.4518 20.1572C28.4831 20.1885 28.5195 20.2028 28.5638 20.2041C28.6081 20.2041 28.6445 20.1885 28.6758 20.1585C28.707 20.1273 28.7227 20.0895 28.7227 20.0465C28.724 20.0023 28.7083 19.9645 28.6771 19.9333C28.6458 19.9033 28.6081 19.8877 28.5651 19.8877Z" fill="white"/>
<path d="M30.151 19.8877C30.1068 19.8877 30.0703 19.902 30.0391 19.9333C30.0078 19.9645 29.9922 20.001 29.9922 20.0452C29.9922 20.0882 30.0078 20.126 30.0391 20.1572C30.069 20.1885 30.1068 20.2028 30.1497 20.2041C30.194 20.2041 30.2318 20.1885 30.263 20.1585C30.2943 20.1273 30.3099 20.0895 30.3099 20.0465C30.3099 20.0023 30.2943 19.9645 30.263 19.9333C30.2331 19.9033 30.1953 19.8877 30.151 19.8877Z" fill="white"/>
<path d="M28.5651 18.3038C28.5208 18.3038 28.4831 18.3195 28.4518 18.3507C28.4219 18.382 28.4062 18.4184 28.4062 18.4627C28.4062 18.5057 28.4219 18.5434 28.4518 18.5747C28.4831 18.6059 28.5208 18.6202 28.5651 18.6202C28.6081 18.6202 28.6458 18.6059 28.6771 18.5747C28.7083 18.5434 28.7227 18.5057 28.7227 18.4627C28.7227 18.4184 28.7083 18.382 28.6771 18.3507C28.6458 18.3195 28.6081 18.3038 28.5651 18.3038Z" fill="white"/>
<path d="M30.151 18.3038C30.1068 18.3038 30.0703 18.3195 30.0391 18.3507C30.0078 18.382 29.9922 18.4184 29.9922 18.4627C29.9922 18.5057 30.0078 18.5434 30.0391 18.5747C30.0703 18.6059 30.1068 18.6202 30.151 18.6202C30.1953 18.6202 30.2318 18.6059 30.263 18.5747C30.2943 18.5434 30.3099 18.5057 30.3099 18.4627C30.3099 18.4184 30.2943 18.382 30.263 18.3507C30.2318 18.3195 30.1953 18.3038 30.151 18.3038Z" fill="white"/>
<path d="M27.8032 20.676C27.7928 20.6747 27.7824 20.6747 27.7706 20.676C27.7446 20.6773 27.7199 20.6825 27.6964 20.6956C27.673 20.7086 27.6548 20.7255 27.6391 20.7476C27.6248 20.7698 27.6157 20.7932 27.6131 20.8206C27.6105 20.8466 27.6144 20.8713 27.6248 20.8961C27.6417 20.9364 27.6704 20.9638 27.7094 20.9807C27.729 20.9885 27.7498 20.9924 27.7706 20.9924C27.7824 20.9937 27.7928 20.9937 27.8032 20.9924C27.8566 20.9807 27.893 20.9495 27.9139 20.9C27.9217 20.8805 27.9256 20.8596 27.9256 20.8375C27.9256 20.8062 27.9165 20.7763 27.8982 20.7502C27.8761 20.7125 27.8449 20.6877 27.8032 20.676Z" fill="white"/>
<path d="M27.8034 19.1001C27.793 19.0988 27.7826 19.0988 27.7708 19.1001C27.75 19.0988 27.7292 19.104 27.7096 19.1131C27.6458 19.1405 27.6133 19.1886 27.6133 19.2576C27.6133 19.328 27.6458 19.3761 27.7096 19.4035C27.7292 19.4126 27.75 19.4165 27.7708 19.4165C27.7826 19.4178 27.793 19.4178 27.8034 19.4165C27.8867 19.3983 27.9284 19.3462 27.9284 19.2616C27.9284 19.1769 27.8867 19.1248 27.8034 19.1066V19.1001Z" fill="white"/>
<path d="M28.5651 21.4697C28.5208 21.4697 28.4831 21.4854 28.4531 21.5153C28.4219 21.5465 28.4062 21.5843 28.4062 21.6273C28.4062 21.6715 28.4219 21.708 28.4518 21.7393C28.4831 21.7705 28.5195 21.7861 28.5638 21.7861C28.6081 21.7861 28.6445 21.7705 28.6758 21.7406C28.707 21.7093 28.7227 21.6729 28.7227 21.6286C28.724 21.5843 28.7083 21.5479 28.6771 21.5166C28.6458 21.4854 28.6081 21.4697 28.5651 21.4697Z" fill="white"/>
<path d="M30.151 21.4697C30.1068 21.4697 30.0703 21.4854 30.0391 21.5153C30.0078 21.5465 29.9922 21.5843 29.9922 21.6273C29.9922 21.6715 30.0078 21.708 30.0391 21.7393C30.069 21.7705 30.1068 21.7861 30.1497 21.7861C30.194 21.7861 30.2318 21.7705 30.263 21.7406C30.2943 21.7093 30.3099 21.6729 30.3099 21.6286C30.3099 21.5843 30.2943 21.5479 30.263 21.5166C30.2331 21.4854 30.1953 21.4697 30.151 21.4697Z" fill="white"/>
<path d="M26.9782 19.8877C26.9352 19.8877 26.8975 19.902 26.8662 19.9333C26.835 19.9645 26.8193 20.001 26.8193 20.0452C26.8193 20.0882 26.835 20.126 26.8662 20.1572C26.8962 20.1885 26.9339 20.2028 26.9782 20.2041C27.0212 20.2041 27.0589 20.1885 27.0902 20.1585C27.1214 20.1273 27.137 20.0895 27.137 20.0465C27.137 20.0023 27.1227 19.9645 27.0915 19.9333C27.0602 19.9033 27.0225 19.8877 26.9782 19.8877Z" fill="white"/>
<path d="M26.9782 21.4697C26.9352 21.4697 26.8975 21.4854 26.8662 21.5153C26.835 21.5465 26.8193 21.5843 26.8193 21.6273C26.8193 21.6715 26.835 21.708 26.8662 21.7393C26.8962 21.7705 26.9339 21.7861 26.9782 21.7861C27.0212 21.7861 27.0589 21.7705 27.0902 21.7406C27.1214 21.7093 27.137 21.6729 27.137 21.6286C27.137 21.5843 27.1227 21.5479 27.0915 21.5166C27.0602 21.4854 27.0225 21.4697 26.9782 21.4697Z" fill="white"/>
</svg>
