<svg width="70" height="61" viewBox="0 0 70 61" fill="none" xmlns="http://www.w3.org/2000/svg">
<path d="M35.4639 1.3953C26.9979 1.3953 20.1101 8.28304 20.1101 16.7491C20.1101 25.2151 26.9979 32.1013 35.4639 32.1013C43.9299 32.1013 50.8162 25.2151 50.8162 16.7491C50.8162 8.28304 43.9299 1.3953 35.4639 1.3953ZM35.4639 32.9981C26.5049 32.9981 19.2148 25.708 19.2148 16.7491C19.2148 7.7901 26.5049 0.5 35.4639 0.5C44.4229 0.5 51.713 7.7901 51.713 16.7491C51.713 25.708 44.4229 32.9981 35.4639 32.9981Z" fill="white"/>
<path d="M35.4638 3.37152C28.0876 3.37152 22.0862 9.37286 22.0862 16.7491C22.0862 24.1253 28.0876 30.1266 35.4638 30.1266C42.84 30.1266 48.8414 24.1253 48.8414 16.7491C48.8414 9.37286 42.84 3.37152 35.4638 3.37152ZM35.4638 31.0219C27.5932 31.0219 21.1895 24.6197 21.1895 16.7491C21.1895 8.87844 27.5932 2.47473 35.4638 2.47473C43.3344 2.47473 49.7367 8.87844 49.7367 16.7491C49.7367 24.6197 43.3344 31.0219 35.4638 31.0219Z" fill="white"/>
<path d="M35.4642 5.34623C29.1763 5.34623 24.0613 10.4612 24.0613 16.7491C24.0613 23.037 29.1763 28.1519 35.4642 28.1519C41.7521 28.1519 46.867 23.037 46.867 16.7491C46.867 10.4612 41.7521 5.34623 35.4642 5.34623ZM35.4642 29.0472C28.6833 29.0472 23.166 23.5299 23.166 16.7491C23.166 9.96824 28.6833 4.45093 35.4642 4.45093C42.245 4.45093 47.7623 9.96824 47.7623 16.7491C47.7623 23.5299 42.245 29.0472 35.4642 29.0472Z" fill="white"/>
<path d="M35.4641 7.32096C30.266 7.32096 26.0359 11.551 26.0359 16.7491C26.0359 21.9472 30.266 26.1772 35.4641 26.1772C40.6622 26.1772 44.8922 21.9472 44.8922 16.7491C44.8922 11.551 40.6622 7.32096 35.4641 7.32096ZM35.4641 27.0725C29.7715 27.0725 25.1406 22.4416 25.1406 16.7491C25.1406 11.0566 29.7715 6.42566 35.4641 6.42566C41.1566 6.42566 45.7875 11.0566 45.7875 16.7491C45.7875 22.4416 41.1566 27.0725 35.4641 27.0725Z" fill="white"/>
<path d="M35.464 9.29718C31.3542 9.29718 28.012 12.6393 28.012 16.7491C28.012 20.8589 31.3542 24.2011 35.464 24.2011C39.5737 24.2011 42.9159 20.8589 42.9159 16.7491C42.9159 12.6393 39.5737 9.29718 35.464 9.29718ZM35.464 25.0978C30.8612 25.0978 27.1152 21.3518 27.1152 16.7491C27.1152 12.1449 30.8612 8.40039 35.464 8.40039C40.0667 8.40039 43.8127 12.1449 43.8127 16.7491C43.8127 21.3518 40.0667 25.0978 35.464 25.0978Z" fill="white"/>
<path d="M35.4643 11.2718C32.4444 11.2718 29.9871 13.729 29.9871 16.749C29.9871 19.769 32.4444 22.2262 35.4643 22.2262C38.4843 22.2262 40.9416 19.769 40.9416 16.749C40.9416 13.729 38.4843 11.2718 35.4643 11.2718ZM35.4643 23.1215C31.9499 23.1215 29.0918 20.2634 29.0918 16.749C29.0918 13.2346 31.9499 10.375 35.4643 10.375C38.9787 10.375 41.8369 13.2346 41.8369 16.749C41.8369 20.2634 38.9787 23.1215 35.4643 23.1215Z" fill="white"/>
<path d="M35.4642 13.2465C33.5326 13.2465 31.9617 14.8174 31.9617 16.749C31.9617 18.6792 33.5326 20.2515 35.4642 20.2515C37.3959 20.2515 38.9667 18.6792 38.9667 16.749C38.9667 14.8174 37.3959 13.2465 35.4642 13.2465ZM35.4642 21.1468C33.0396 21.1468 31.0664 19.1736 31.0664 16.749C31.0664 14.3244 33.0396 12.3512 35.4642 12.3512C37.8888 12.3512 39.862 14.3244 39.862 16.749C39.862 19.1736 37.8888 21.1468 35.4642 21.1468Z" fill="white"/>
<path d="M35.4641 15.2212C34.6223 15.2212 33.9363 15.9072 33.9363 16.749C33.9363 17.5909 34.6223 18.2754 35.4641 18.2754C36.306 18.2754 36.9919 17.5909 36.9919 16.749C36.9919 15.9072 36.306 15.2212 35.4641 15.2212ZM35.4641 19.1721C34.1278 19.1721 33.041 18.0853 33.041 16.749C33.041 15.4128 34.1278 14.3259 35.4641 14.3259C36.8004 14.3259 37.8872 15.4128 37.8872 16.749C37.8872 18.0853 36.8004 19.1721 35.4641 19.1721Z" fill="white"/>
<path d="M5.35104 49.6103C3.77127 49.6103 2.60871 49.2866 1.86486 48.6363C1.20266 48.0632 0.873047 47.2792 0.873047 46.2844C0.873047 45.2912 1.20266 44.5057 1.86486 43.9267C2.60871 43.2823 3.77127 42.9586 5.35104 42.9586C6.27752 42.9586 7.04365 43.0655 7.64943 43.2793C8.2552 43.4902 8.72438 43.7782 9.05697 44.1464C9.39252 44.5146 9.61672 44.9363 9.72807 45.4114H6.90705C6.62495 44.917 6.10678 44.669 5.35104 44.669C4.70072 44.669 4.22412 44.8561 3.91975 45.2273C3.67773 45.5243 3.55747 45.8776 3.55747 46.2844C3.55747 46.6928 3.67773 47.0446 3.91975 47.3416C4.22412 47.7143 4.70072 47.8999 5.35104 47.8999C6.10678 47.8999 6.62495 47.6504 6.90705 47.1515H9.72807C9.61672 47.6311 9.39252 48.0543 9.05697 48.4225C8.72438 48.7907 8.2552 49.0817 7.64943 49.2955C7.04365 49.5049 6.27752 49.6103 5.35104 49.6103Z" fill="white"/>
<path d="M19.5164 49.4737H16.9864C16.8676 49.3119 16.7844 49.1055 16.7369 48.8561C16.6968 48.666 16.636 48.4789 16.5528 48.2919C16.4697 48.1063 16.3242 47.9519 16.1193 47.8286C15.9173 47.7069 15.6159 47.6386 15.2165 47.6267H13.4764V49.4737H10.792V43.0834H15.1512C16.1965 43.0834 17.0368 43.1606 17.6753 43.315C18.3167 43.4694 18.7829 43.7159 19.0769 44.0514C19.3694 44.384 19.5164 44.8205 19.5164 45.358C19.5164 45.8064 19.4154 46.1835 19.2135 46.4924C19.0115 46.7982 18.6908 47.0387 18.2514 47.2169C18.6745 47.3921 18.9492 47.6015 19.0769 47.8464C19.2031 48.0929 19.2803 48.3616 19.3085 48.6541C19.3397 48.9155 19.4095 49.1886 19.5164 49.4737ZM13.4764 46.0529L15.0087 46.0469C15.4363 46.0469 15.7718 46.0291 16.0183 45.9935C16.2633 45.9549 16.4429 45.9014 16.5587 45.8331C16.6775 45.7663 16.7518 45.6936 16.7844 45.6134C16.8201 45.5302 16.8379 45.4456 16.8379 45.358C16.8379 45.2719 16.8201 45.1858 16.7844 45.1026C16.7518 45.0195 16.6775 44.9452 16.5587 44.8769C16.4429 44.8101 16.2633 44.7582 16.0183 44.7225C15.7718 44.6839 15.4363 44.6631 15.0087 44.6631H13.4764V46.0529Z" fill="white"/>
<path d="M28.279 49.4737H20.582V43.0834H27.9286V44.6631H23.2665V45.6668H27.204V46.8962H23.2665V47.894H28.279V49.4737Z" fill="white"/>
<path d="M39.3696 49.4737H36.6496L36.0497 48.4285H32.0172L31.4173 49.4737H28.6973L32.7892 43.0834H35.2777L39.3696 49.4737ZM35.147 46.8428L34.0364 44.9066L32.9199 46.8428H35.147Z" fill="white"/>
<path d="M44.88 49.4737H42.2016V44.6631H39.6953V43.0834H47.3863V44.6631H44.88V49.4737Z" fill="white"/>
<path d="M51.0438 49.4737H48.3594V43.0834H51.0438V49.4737Z" fill="white"/>
<path d="M57.892 49.4737H55.3976L51.8164 43.0834H54.5365L56.6448 47.6505L58.7531 43.0834H61.4732L57.892 49.4737Z" fill="white"/>
<path d="M69.942 49.4737H62.2451V43.0834H69.5916V44.6631H64.9295V45.6668H68.8671V46.8962H64.9295V47.894H69.942V49.4737Z" fill="white"/>
<path d="M14.8018 60.5C13.9377 60.5 13.2414 60.4065 12.7113 60.2209C12.1842 60.0353 11.7819 59.7799 11.5057 59.4547C11.228 59.1311 11.0424 58.7569 10.9474 58.3323H13.7981C14.0075 58.6337 14.3416 58.7836 14.8018 58.7836C15.2606 58.7836 15.5976 58.6337 15.8115 58.3323C15.8263 58.3011 15.8352 58.2729 15.8352 58.2491C15.8352 58.1704 15.7283 58.1111 15.5145 58.071C15.3037 58.0324 14.9874 58.0027 14.5643 57.9819C14.0327 57.9581 13.4745 57.9017 12.8895 57.8096C11.5859 57.6077 10.9355 57.0836 10.9355 56.2358C10.9355 56.1645 10.9385 56.0903 10.9474 56.0101C11.0424 55.587 11.228 55.2128 11.5057 54.8877C11.7819 54.564 12.1842 54.3086 12.7113 54.1215C13.2414 53.9359 13.9377 53.8424 14.8018 53.8424C15.6645 53.8424 16.3593 53.9359 16.8864 54.1215C17.4165 54.3086 17.8203 54.564 18.098 54.8877C18.3741 55.2128 18.5612 55.587 18.6562 56.0101H15.8115C15.5976 55.7102 15.2606 55.5588 14.8018 55.5588C14.3416 55.5588 14.0075 55.7102 13.7981 56.0101C13.7818 56.0339 13.7744 56.0562 13.7744 56.0755C13.7744 56.1467 13.8753 56.2002 14.0773 56.2358C14.2822 56.2715 14.5836 56.3011 14.98 56.3249C15.3749 56.3487 15.7966 56.3887 16.245 56.4437C16.6919 56.4956 17.1121 56.5862 17.5041 56.7169C17.896 56.8475 18.2004 57.0435 18.4187 57.3048C18.5924 57.5038 18.68 57.7547 18.68 58.0591C18.68 58.1467 18.6711 58.2373 18.6562 58.3323C18.5612 58.7569 18.3741 59.1311 18.098 59.4547C17.8203 59.7799 17.4165 60.0353 16.8864 60.2209C16.3593 60.4065 15.6645 60.5 14.8018 60.5Z" fill="white"/>
<path d="M24.4806 60.3634H21.8021V55.5528H19.2959V53.973H26.9869V55.5528H24.4806V60.3634Z" fill="white"/>
<path d="M31.7433 60.5C30.1829 60.5 29.0856 60.1778 28.4531 59.5319C27.9186 58.9855 27.6514 58.2001 27.6514 57.1741V53.973H30.3298V57.1741C30.3298 57.6181 30.4041 57.97 30.5555 58.2313C30.7723 58.5995 31.1687 58.7836 31.7433 58.7836C32.3209 58.7836 32.7173 58.5995 32.9311 58.2313C33.0811 57.9625 33.1568 57.6106 33.1568 57.1741V53.973H35.8412V57.2098C35.8412 58.212 35.5755 58.9855 35.0454 59.5319C34.404 60.1778 33.3023 60.5 31.7433 60.5Z" fill="white"/>
<path d="M41.2243 60.3634H36.9482V53.973H41.2243C42.9733 53.973 44.2309 54.2165 44.9956 54.7035C45.6132 55.0999 45.9651 55.6389 46.0527 56.3189C46.0913 56.6129 46.1121 56.895 46.1121 57.1682C46.1121 57.4384 46.0913 57.7205 46.0527 58.0175C46.0171 58.3144 45.9176 58.6025 45.7558 58.8786C45.5969 59.1563 45.343 59.4057 44.9956 59.6269C44.6467 59.8496 44.1671 60.0278 43.5583 60.1614C42.9526 60.2966 42.1745 60.3634 41.2243 60.3634ZM40.9689 58.7836C42.3349 58.7836 43.107 58.4391 43.2851 57.7502C43.3327 57.5572 43.3564 57.3627 43.3564 57.1682C43.3564 56.9752 43.3297 56.7822 43.2792 56.5921C43.2317 56.3991 43.1278 56.2239 42.9704 56.0695C42.8115 55.9121 42.5725 55.7874 42.2518 55.6953C41.934 55.6003 41.5064 55.5528 40.9689 55.5528H39.6327V58.7836H40.9689Z" fill="white"/>
<path d="M49.8592 60.3634H47.1748V53.973H49.8592V60.3634Z" fill="white"/>
<path d="M55.4018 60.5C53.8221 60.5 52.6595 60.1763 51.9156 59.526C51.2534 58.9484 50.9238 58.163 50.9238 57.1682C50.9238 56.1794 51.2534 55.3955 51.9156 54.8164C52.6595 54.1676 53.8221 53.8424 55.4018 53.8424C56.9816 53.8424 58.1427 54.1676 58.888 54.8164C59.5487 55.3955 59.8798 56.1794 59.8798 57.1682C59.8798 58.163 59.5487 58.9484 58.888 59.526C58.1427 60.1763 56.9816 60.5 55.4018 60.5ZM55.4018 58.7836C56.0462 58.7836 56.5213 58.5995 56.8272 58.2313C57.0677 57.9314 57.1895 57.5765 57.1895 57.1682C57.1895 56.7614 57.0677 56.408 56.8272 56.1111C56.5213 55.7399 56.0462 55.5528 55.4018 55.5528C54.7515 55.5528 54.2749 55.7399 53.9705 56.1111C53.7285 56.408 53.6082 56.7614 53.6082 57.1682C53.6082 57.5765 53.7285 57.9314 53.9705 58.2313C54.2749 58.5995 54.7515 58.7836 55.4018 58.7836Z" fill="white"/>
</svg>
