<svg width="70" height="61" viewBox="0 0 70 61" fill="none" xmlns="http://www.w3.org/2000/svg">
<path d="M2.49978 60.4221H0.81543V53.8051H2.49978V60.4221Z" fill="white"/>
<path d="M12.1017 60.4221H10.6155L7.57233 56.3528V60.4221H5.99414V53.8051H7.48033L10.5306 57.8885V53.8051H12.1017V60.4221Z" fill="white"/>
<path d="M27.2281 60.4221H25.7419L25.7349 56.1263L24.1496 59.764H23.0527L21.4674 56.1263V60.4221H19.96V53.798H21.8071L23.5976 57.7399L25.3952 53.798H27.2281V60.4221Z" fill="white"/>
<path d="M33.8737 53.7484C34.8964 53.7484 35.7492 54.0704 36.4286 54.7109C37.1115 55.3478 37.4547 56.1458 37.4547 57.103C37.4547 58.0707 37.1115 58.8793 36.4286 59.5304C35.7439 60.178 34.8893 60.5 33.8667 60.5C32.8476 60.5 31.9983 60.178 31.3189 59.5304C30.6395 58.8846 30.2998 58.0761 30.2998 57.103C30.2998 56.1405 30.6395 55.3408 31.3189 54.7038C31.9983 54.0669 32.8493 53.7484 33.8737 53.7484ZM33.8879 55.1568C33.373 55.1568 32.9325 55.3461 32.5645 55.7229C32.2 56.0962 32.0195 56.5616 32.0195 57.1171C32.0195 57.6691 32.2035 58.1362 32.5716 58.5184C32.9396 58.9005 33.3783 59.0916 33.8879 59.0916C34.3974 59.0916 34.8291 58.9005 35.183 58.5184C35.5404 58.1362 35.7209 57.6691 35.7209 57.1171C35.7209 56.5616 35.5404 56.0962 35.183 55.7229C34.8291 55.3461 34.3974 55.1568 33.8879 55.1568Z" fill="white"/>
<path d="M45.5716 55.1568H43.5759V60.4221H41.8915V55.1568H39.917V53.798H45.5716V55.1568Z" fill="white"/>
<path d="M50.1424 60.4221H48.458V53.8051H50.1424V60.4221Z" fill="white"/>
<path d="M56.779 53.7484C57.8017 53.7484 58.6544 54.0704 59.3338 54.7109C60.0168 55.3478 60.36 56.1458 60.36 57.103C60.36 58.0707 60.0168 58.8793 59.3338 59.5304C58.6491 60.178 57.7946 60.5 56.7719 60.5C55.7528 60.5 54.9036 60.178 54.2242 59.5304C53.5448 58.8846 53.2051 58.0761 53.2051 57.103C53.2051 56.1405 53.5448 55.3408 54.2242 54.7038C54.9036 54.0669 55.7546 53.7484 56.779 53.7484ZM56.7932 55.1568C56.2783 55.1568 55.8378 55.3461 55.4697 55.7229C55.1053 56.0962 54.9248 56.5616 54.9248 57.1171C54.9248 57.6691 55.1088 58.1362 55.4768 58.5184C55.8448 58.9005 56.2836 59.0916 56.7932 59.0916C57.3027 59.0916 57.7344 58.9005 58.0883 58.5184C58.4457 58.1362 58.6261 57.6691 58.6261 57.1171C58.6261 56.5616 58.4457 56.0962 58.0883 55.7229C57.7344 55.3461 57.3027 55.1568 56.7932 55.1568Z" fill="white"/>
<path d="M69.5235 60.4221H68.0374L64.9942 56.3528V60.4221H63.416V53.8051H64.9022L67.9524 57.8885V53.8051H69.5235V60.4221Z" fill="white"/>
<path d="M49.3893 42.584H14.1631V7.32764H49.3893V42.584ZM14.7257 42.0213H48.8267V7.89027H14.7257V42.0213Z" fill="white"/>
<path d="M52.5741 39.0206H17.3496V3.76428H52.5741V39.0206ZM17.9105 38.458H52.0115V4.32691H17.9105V38.458Z" fill="white"/>
<path d="M55.9462 35.7581H20.7217V0.5H55.9462V35.7581ZM21.2843 35.1955H55.3853V1.06263H21.2843V35.1955Z" fill="white"/>
<path d="M25.4609 23.4598H33.2511V31.2517H25.4609V23.4598Z" fill="white"/>
</svg>
