<svg width="74" height="61" viewBox="0 0 74 61" fill="none" xmlns="http://www.w3.org/2000/svg">
<path d="M3.71852 48.7026L0.397461 60.3369H1.54746L2.37378 57.3842H6.58168L7.40799 60.3369H8.56063L5.23957 48.7026H3.71852ZM4.47115 49.8711L6.30273 56.4237H2.63957L4.47115 49.8711Z" fill="white"/>
<path d="M13.5058 48.5261H12.4716V58.1235L12.3848 60.3367H13.24L13.3874 59.2735C13.8006 59.9525 14.5242 60.4998 15.719 60.4998C17.8611 60.4998 18.7163 58.7709 18.7163 56.6024V56.2472C18.7163 54.0761 17.8611 52.3498 15.719 52.3498C14.6269 52.3498 13.919 52.8235 13.5058 53.413V48.5261ZM13.5058 54.4893C13.8163 53.9735 14.4216 53.2788 15.4848 53.2788C16.9611 53.2788 17.6532 54.4314 17.6532 56.2472V56.6024C17.6532 58.4182 16.9611 59.5682 15.4848 59.5682C14.4216 59.5682 13.8163 58.8761 13.5058 58.3577V54.4893Z" fill="white"/>
<path d="M25.7869 59.6289C24.2369 59.6289 23.8079 58.8026 23.8079 57.9447H22.7764V58.0052C22.7764 59.2 23.5737 60.5 25.7869 60.5C27.7211 60.5 28.8001 59.5552 28.8001 58.1973V58.1237C28.8001 56.6895 27.958 56.1289 25.9948 55.9658C24.2974 55.8342 23.9132 55.3921 23.9132 54.5789C23.9132 53.7079 24.6053 53.221 25.7869 53.221C27.2501 53.221 27.6922 53.9158 27.6922 55.0368H28.7106V54.9789C28.7106 53.4421 27.929 52.35 25.7869 52.35C23.9579 52.35 22.879 53.221 22.879 54.5789V54.6684C22.879 55.8342 23.4843 56.571 25.5948 56.75C27.1158 56.8816 27.7369 57.1342 27.7369 58.1973C27.7369 59.0684 27.058 59.6289 25.7869 59.6289Z" fill="white"/>
<path d="M34.8811 52.5132V50.2974H33.8469V52.5132H32.6074V53.4421H33.8469V58.1658C33.8469 59.8632 34.8074 60.5 36.1364 60.5C36.7548 60.5 37.1101 60.3816 37.2285 60.3368V59.4368C37.1101 59.4947 36.7101 59.5684 36.3864 59.5684C35.3969 59.5684 34.8811 59.2737 34.8811 58.0342V53.4421H37.3758V52.5132H34.8811Z" fill="white"/>
<path d="M44.638 52.35C43.5906 52.35 42.867 52.8973 42.4538 53.5447L42.3064 52.5131H41.4512L41.538 54.7263V60.3368H42.5722V54.5342C42.8959 54.0184 43.4722 53.3526 44.6538 53.3526H44.8591V52.3658C44.8459 52.3658 44.7433 52.35 44.638 52.35Z" fill="white"/>
<path d="M53.8375 60.3368H54.6928L54.6033 58.1237V55.2579C54.6033 53.5316 53.9402 52.35 51.7691 52.35C49.4665 52.35 48.9507 53.7816 48.9507 54.9631V55.0947H49.9402C49.9402 54.0763 50.2796 53.221 51.756 53.221C53.1428 53.221 53.5717 53.9158 53.5717 55.2579V55.4658L51.2086 55.8342C49.9402 56.0263 48.6533 56.5131 48.6533 58.2105V58.3579C48.6533 59.6131 49.4823 60.5 50.9138 60.5C52.2717 60.5 53.156 59.9237 53.6744 59.2447L53.8375 60.3368ZM51.1796 59.6C50.1296 59.6 49.6875 58.9631 49.6875 58.271V58.1368C49.6875 57.2526 50.2928 56.7631 51.2981 56.5868L53.5717 56.2184V58.3579C53.2902 58.8158 52.627 59.6 51.1796 59.6Z" fill="white"/>
<path d="M59.8286 56.6026V56.2473C59.8286 54.4605 60.5076 53.2789 62.0576 53.2789C63.476 53.2789 64.0523 54.1816 64.0523 55.3763H65.0418V55.0816C65.0418 53.8105 64.1997 52.35 62.0444 52.35C59.7549 52.35 58.7812 54.0763 58.7812 56.2473V56.6026C58.7812 58.771 59.7549 60.5 62.0444 60.5C64.1997 60.5 65.0418 59.0974 65.0418 57.8579V57.621H64.0523C64.0523 58.6395 63.5207 59.5684 62.0576 59.5684C60.5076 59.5684 59.8286 58.3868 59.8286 56.6026Z" fill="white"/>
<path d="M71.0042 52.5132V50.2974H69.9699V52.5132H68.7305V53.4421H69.9699V58.1658C69.9699 59.8632 70.9305 60.5 72.2594 60.5C72.8778 60.5 73.2331 60.3816 73.3515 60.3368V59.4368C73.2331 59.4947 72.8331 59.5684 72.5094 59.5684C71.5199 59.5684 71.0042 59.2737 71.0042 58.0342V53.4421H73.4989V52.5132H71.0042Z" fill="white"/>
<path d="M53.1016 33.3369H54.1068V34.3395H53.1016V33.3369Z" fill="white"/>
<path d="M20.2676 1.51575H21.2834V33.3368H20.2676V1.51575Z" fill="white"/>
<path d="M20.2676 33.3369H21.2834V34.3395H20.2676V33.3369Z" fill="white"/>
<path d="M53.1016 1.51575H54.1068V33.3368H53.1016V1.51575Z" fill="white"/>
<path d="M21.2832 33.3369H53.1017V34.3395H21.2832V33.3369Z" fill="white"/>
<path d="M53.1016 0.5H54.1068V1.51579H53.1016V0.5Z" fill="white"/>
<path d="M20.2676 0.5H21.2834V1.51579H20.2676V0.5Z" fill="white"/>
<path d="M21.2832 0.5H53.1017V1.51579H21.2832V0.5Z" fill="white"/>
<path d="M24.7676 5.00269H49.3729V29.6053H24.7676V5.00269Z" fill="white"/>
<path d="M31.9746 16.1448H42.2983V18.4395H31.9746V16.1448Z" fill="#090909"/>
</svg>
