<svg width="106" height="31" viewBox="0 0 106 31" fill="none" xmlns="http://www.w3.org/2000/svg">
<path fill-rule="evenodd" clip-rule="evenodd" d="M0.373047 0.5H105.671V30.5H0.373047V0.5ZM1.80162 1.92857V29.0714H104.242V1.92857H1.80162Z" fill="white"/>
<path d="M3.89453 3.90222H53.0001V27.1165H3.89453V3.90222Z" fill="white"/>
<path d="M10.1124 19.4299H11.027L14.1256 11.6283H13.0886L11.785 14.9161L10.5697 18.0147L9.34358 14.9161L8.0508 11.6283H7.00293L10.1124 19.4299Z" fill="#090909"/>
<path d="M16.2959 19.4299H17.2771V11.6283H16.2959V19.4299Z" fill="#090909"/>
<path d="M22.9948 19.5741C24.6999 19.5741 25.8036 18.7386 25.8036 17.3791C25.8036 16.2305 25.0347 15.5407 23.0398 15.0493C21.5238 14.6819 21.0215 14.2805 21.0215 13.6341C21.0215 12.8869 21.6912 12.4188 22.8057 12.4188C23.9528 12.4188 24.6658 12.9985 24.6891 13.9348H25.6579C25.647 12.4188 24.5542 11.4825 22.8057 11.4825C21.099 11.4825 20.0186 12.3196 20.0186 13.6341C20.0186 14.8385 20.8774 15.5066 22.7933 15.9639C24.1977 16.2972 24.7883 16.6878 24.7883 17.4132C24.7883 18.1821 24.0985 18.6378 22.9948 18.6378C21.7795 18.6378 20.9332 18.0364 20.9099 17.0335H19.9287C19.9411 18.5603 21.1331 19.5741 22.9948 19.5741Z" fill="#090909"/>
<path d="M28.4531 19.4299H29.4343V11.6283H28.4531V19.4299Z" fill="#090909"/>
<path d="M36.0984 19.5741C38.4731 19.5741 40.1441 17.9031 40.1441 15.5283C40.1441 13.1551 38.4731 11.4825 36.0984 11.4825C33.7236 11.4825 32.0635 13.1551 32.0635 15.5283C32.0635 17.9031 33.7236 19.5741 36.0984 19.5741ZM33.0664 15.5283C33.0664 13.7116 34.3034 12.4638 36.0984 12.4638C37.8934 12.4638 39.1304 13.7116 39.1304 15.5283C39.1304 17.345 37.8934 18.5944 36.0984 18.5944C34.3034 18.5944 33.0664 17.345 33.0664 15.5283Z" fill="#090909"/>
<path d="M42.7598 19.4299H43.7301V13.3226L48.0441 19.4299H48.9571V11.6283H47.9991V17.7357L43.6852 11.6283H42.7598V19.4299Z" fill="#090909"/>
<path d="M60.1802 19.3597C62.1194 19.3597 63.2664 18.4452 63.2664 16.9075C63.2664 15.6147 62.4309 14.8567 60.5367 14.4335C59.5338 14.2103 59.1664 13.9654 59.1664 13.5639C59.1664 13.1841 59.4997 12.9501 60.0236 12.9501C60.6483 12.9501 61.0049 13.274 61.0049 13.8646H63.1223C63.1223 12.2603 61.8962 11.2233 59.9787 11.2233C58.1403 11.2233 57.004 12.1378 57.004 13.6089C57.004 14.9234 57.8613 15.7372 59.6222 16.072C60.5693 16.2611 61.0266 16.551 61.0266 16.9974C61.0266 17.3865 60.6933 17.6097 60.1461 17.6097C59.4997 17.6097 59.1215 17.264 59.1215 16.6626H56.9482C56.9482 18.346 58.1511 19.3597 60.1802 19.3597Z" fill="white"/>
<path d="M66.365 19.1923H68.6049V13.474H70.9796V11.3906H63.9902V13.474H66.365V19.1923Z" fill="white"/>
<path d="M75.4699 19.3597C77.5765 19.3597 78.8817 18.0778 78.8817 15.982V11.3906H76.6402V15.8379C76.6402 16.7633 76.2511 17.2531 75.4699 17.2531C74.6902 17.2531 74.2996 16.7633 74.2996 15.8379V11.3906H72.0488V15.982C72.0488 18.0778 73.3633 19.3597 75.4699 19.3597Z" fill="white"/>
<path d="M80.4746 19.1923H83.7856C86.3045 19.1923 87.9755 17.6437 87.9755 15.2907C87.9755 12.95 86.3045 11.3906 83.7856 11.3906H80.4746V19.1923ZM82.7254 17.1756V13.4073H83.7174C84.911 13.4073 85.6798 14.1436 85.6798 15.2907C85.6798 16.4393 84.911 17.1756 83.7174 17.1756H82.7254Z" fill="white"/>
<path d="M89.1787 19.1923H91.4295V11.3906H89.1787V19.1923Z" fill="white"/>
<path d="M96.8801 19.3597C99.3649 19.3597 101.126 17.6763 101.126 15.2907C101.126 12.9067 99.3649 11.2233 96.8801 11.2233C94.3953 11.2233 92.6328 12.9067 92.6328 15.2907C92.6328 17.6763 94.3953 19.3597 96.8801 19.3597ZM94.9177 15.2907C94.9177 14.1204 95.7315 13.3082 96.8801 13.3082C98.0396 13.3082 98.841 14.1204 98.841 15.2907C98.841 16.4611 98.0396 17.2749 96.8801 17.2749C95.7315 17.2749 94.9177 16.4611 94.9177 15.2907Z" fill="white"/>
</svg>
