<svg width="50" height="53" viewBox="0 0 50 53" fill="none" xmlns="http://www.w3.org/2000/svg">
<path d="M50 27.576C50 41.3616 38.7849 52.5767 25.0007 52.5767C11.2165 52.5767 0 41.3616 0 27.576C0 27.5028 0.0257727 27.4404 0.0773175 27.3875C0.130219 27.336 0.192615 27.3102 0.265864 27.3102H49.7328C49.806 27.3102 49.8698 27.336 49.9213 27.3875C49.9742 27.4404 50 27.5028 50 27.576ZM0 25.6336C0 11.848 11.2151 0.632935 24.9993 0.632935C38.7835 0.632935 50 11.848 50 25.6336C50 25.7069 49.9742 25.7693 49.9213 25.8222C49.8698 25.8737 49.806 25.8995 49.7328 25.8995H0.265864C0.192615 25.8995 0.130219 25.8737 0.0773175 25.8222C0.0257727 25.7693 0 25.7069 0 25.6336ZM47.9423 25.3664H49.4656C49.4371 22.5328 48.9298 19.7873 47.9423 17.13V25.3664ZM43.4104 25.3664H47.4092V15.8156C46.3973 13.5165 45.0652 11.4208 43.4104 9.53123V25.3664ZM38.8771 25.3664H42.8773V8.94389C41.6673 7.64848 40.3353 6.49821 38.8771 5.49037V25.3664ZM34.3452 25.3664H38.3441V5.13091C37.0771 4.30348 35.7437 3.59948 34.3452 3.01892V25.3664ZM29.8134 25.3664H33.8122V2.80461C32.5127 2.30136 31.1793 1.91342 29.8134 1.64077V25.3664ZM25.2801 25.3664H29.2789V1.53904C27.9564 1.30573 26.623 1.1823 25.2801 1.17009V25.3664ZM0.533084 25.3664H24.7321V1.16602C11.4538 1.31251 0.676867 12.0868 0.533084 25.3664Z" fill="white"/>
</svg>
