<svg width="50" height="44" viewBox="0 0 50 44" fill="none" xmlns="http://www.w3.org/2000/svg">
<path d="M49.9935 22.261V22.248C49.9974 22.2311 50 22.2142 50 22.1959C50 22.179 49.9974 22.1621 49.9935 22.1451C49.9935 22.1451 49.9935 22.136 49.9935 22.1321C49.9896 22.1191 49.9844 22.1074 49.9792 22.0957C49.9792 22.0931 49.9792 22.0892 49.9792 22.0865L37.582 0.677694V0.671183C37.5755 0.659464 37.5664 0.649048 37.5573 0.639933C37.5547 0.636027 37.5521 0.632121 37.5482 0.629517C37.5352 0.617798 37.5208 0.606079 37.5065 0.598267C37.4883 0.589152 37.4701 0.582642 37.4505 0.578735C37.4466 0.577433 37.4427 0.577433 37.4375 0.578735C37.4245 0.576131 37.4115 0.576131 37.3984 0.578735H12.5977C12.5833 0.576131 12.5703 0.576131 12.5573 0.578735C12.5534 0.577433 12.5482 0.577433 12.5443 0.578735C12.5273 0.582642 12.5117 0.589152 12.4961 0.598267C12.4805 0.606079 12.4674 0.617798 12.4544 0.629517C12.4505 0.633423 12.4479 0.636027 12.444 0.639933C12.4349 0.649048 12.4271 0.660767 12.4206 0.671183V0.677694L0.0221354 22.0865C0.0221354 22.0892 0.0221354 22.0931 0.0221354 22.0957C0.0156248 22.1074 0.0104168 22.1191 0.0078125 22.1321C0.0078125 22.1321 0.0078125 22.1399 0.0078125 22.1451C0.00260417 22.1621 0 22.179 0 22.1959C0 22.2142 0.00260417 22.2311 0.0078125 22.248V22.261C0.0104168 22.274 0.0156248 22.2871 0.0221354 22.2988C0.0221354 22.2988 0.0221354 22.304 0.0221354 22.3066L12.4141 43.7155V43.7233C12.4219 43.7337 12.4297 43.7441 12.4388 43.7545L12.4492 43.7649C12.4609 43.7767 12.4753 43.7871 12.4909 43.7962C12.5065 43.804 12.5221 43.8105 12.5391 43.8157C12.5586 43.8209 12.5768 43.8235 12.5964 43.8235H37.3854C37.4049 43.8235 37.4232 43.8209 37.4427 43.8157C37.4596 43.8105 37.4753 43.804 37.4909 43.7962C37.5065 43.7871 37.5195 43.7767 37.5326 43.7649L37.5417 43.7545C37.5508 43.7441 37.5586 43.7337 37.5664 43.7233V43.7155L49.9753 22.3066C49.9753 22.3066 49.9753 22.3014 49.9753 22.2988C49.9831 22.2871 49.9883 22.274 49.9935 22.261ZM37.3919 43.1673L25.3828 22.416H49.3997L37.3919 43.1673ZM12.6068 1.22717L24.6146 21.9772H0.595052L12.6068 1.22717ZM25.0013 21.7571L12.9935 1.00842H37.0104L25.0013 21.7571ZM25.0013 22.636L37.0104 43.386H12.9935L25.0013 22.636ZM25.3841 21.9772L26.0312 20.8587C26.0339 20.8717 26.0365 20.8847 26.0417 20.8977C26.069 20.9615 26.1185 20.9941 26.1888 20.9941C26.2578 20.9941 26.3073 20.9615 26.3346 20.8977C26.3424 20.8782 26.3464 20.8574 26.3464 20.8365C26.3464 20.804 26.3372 20.7754 26.319 20.748C26.2878 20.7011 26.2448 20.6777 26.1888 20.6777C26.1667 20.6777 26.1471 20.6829 26.1276 20.6907L27.7799 17.8339C27.7878 17.8352 27.7943 17.8352 27.8021 17.8339C27.8385 17.8261 27.8698 17.8079 27.8932 17.7793C27.9167 17.7506 27.9284 17.7168 27.9284 17.679C27.9284 17.6556 27.9219 17.6321 27.9115 17.6113L30.0794 13.8652C30.1016 13.8756 30.125 13.8808 30.1497 13.8821C30.194 13.8821 30.2318 13.8665 30.2617 13.8352C30.293 13.804 30.3086 13.7675 30.3086 13.7233C30.3086 13.6673 30.2852 13.623 30.2383 13.5918L32.3997 9.85608C32.431 9.90165 32.474 9.92379 32.5299 9.92379C32.5716 9.92249 32.6068 9.90686 32.6354 9.87821C32.6654 9.84827 32.681 9.81311 32.6823 9.77144C32.6836 9.72978 32.6719 9.69332 32.6445 9.66207C32.6172 9.63082 32.5833 9.61259 32.5417 9.60868L34.2135 6.72196C34.2461 6.69592 34.2656 6.66207 34.2708 6.6191L34.7539 5.78707C34.7539 5.79358 34.7539 5.80009 34.7539 5.8066C34.7539 5.84957 34.7695 5.88733 34.8008 5.91858C34.832 5.94853 34.8685 5.96415 34.9128 5.96415C34.957 5.96415 34.9935 5.94853 35.0247 5.91858C35.056 5.88733 35.0716 5.84957 35.0716 5.8066C35.0716 5.76233 35.056 5.72587 35.0247 5.69462C34.9935 5.66337 34.957 5.64775 34.9128 5.64775C34.8776 5.64775 34.8464 5.65816 34.8177 5.6803L36.4857 2.79879H36.4987C36.5651 2.79879 36.612 2.77014 36.6419 2.71155C36.6706 2.65426 36.6654 2.59827 36.6263 2.54618L37.3919 1.22717L38.1198 2.48629C38.1081 2.48499 38.0951 2.48499 38.0833 2.48629C38.043 2.48499 38.0065 2.49931 37.9766 2.52665C37.9453 2.554 37.9284 2.58785 37.9245 2.62821C37.9206 2.66858 37.9297 2.70504 37.9544 2.73889C37.9792 2.77144 38.0117 2.79098 38.0521 2.79879C38.0924 2.8066 38.1302 2.80009 38.1654 2.77926C38.1992 2.75712 38.2227 2.72717 38.2344 2.68811L40.4128 6.44983H40.401C40.3372 6.47848 40.3047 6.52665 40.3047 6.59696C40.3047 6.66598 40.3372 6.71545 40.401 6.7428C40.4206 6.75061 40.4414 6.75452 40.4635 6.75452C40.4948 6.75452 40.5247 6.7454 40.5508 6.72848C40.5573 6.72848 40.5625 6.71806 40.5677 6.71415L42.7266 10.4498C42.6797 10.5006 42.6706 10.5579 42.6979 10.6204C42.7253 10.6842 42.7734 10.7155 42.8424 10.7155C42.8542 10.7181 42.8659 10.7181 42.8776 10.7155L45.0677 14.4967C45.0599 14.5254 45.0625 14.5527 45.0755 14.58C45.0938 14.6191 45.1224 14.6464 45.1628 14.6634L46.8151 17.5267H46.8047C46.7826 17.5267 46.763 17.5306 46.7422 17.5397C46.6784 17.567 46.6458 17.6152 46.6458 17.6855C46.6458 17.7545 46.6784 17.804 46.7422 17.8313C46.763 17.8392 46.7826 17.8431 46.8047 17.8431C46.8359 17.8431 46.8659 17.8339 46.8932 17.817C46.9167 17.8001 46.9349 17.7793 46.9466 17.7545L49.1146 21.4993C49.0391 21.5358 49.0104 21.5957 49.0286 21.6777C49.0482 21.7584 49.1003 21.8001 49.1836 21.7988C49.2161 21.7988 49.2461 21.7897 49.2721 21.7727L49.3984 21.9928L25.3841 21.9772Z" fill="white"/>
</svg>
