<svg width="1798" height="149" viewBox="0 0 1798 149" fill="none" xmlns="http://www.w3.org/2000/svg">
<path d="M31.6151 1V0.5H31.1151H1H0.5V1V147.5V148H1H128.48H128.98V147.5V122.366V121.866H128.48H31.6151V1ZM292.224 1.26985L292.718 0.5H291.804H256.933H256.652L256.506 0.740482L212.7 72.8813L168.145 0.737277L167.999 0.5H167.72H132.85H131.935L132.429 1.26985L196.656 101.455V147.5V148H197.156H227.498H227.998V147.5V101.455L292.224 1.26985ZM461.556 1V107.053L353.494 0.643732L353.348 0.5H353.144H323.028H322.528V1V147.5V148H323.028H353.144H353.644V147.5V42.2738L461.707 147.858L461.853 148H462.056H492.171H492.671V147.5V1V0.5H492.171H462.056H461.556V1ZM675.087 1V107.053L567.025 0.643732L566.879 0.5H566.674H536.559H536.059V1V147.5V148H536.559H566.674H567.174V147.5V42.2738L675.238 147.858L675.383 148H675.587H705.702H706.202V147.5V1V0.5H705.702H675.587H675.087V1Z" stroke="white"/>
<path d="M874.602 147.283C855.909 147.283 839.897 144.385 826.566 138.588C813.379 132.647 803.236 124.243 796.135 113.375C789.18 102.507 785.702 89.4651 785.702 74.25C785.702 58.89 789.18 45.776 796.135 34.908C803.236 24.0401 813.379 15.708 826.566 9.91172C839.897 3.97058 855.909 1 874.602 1C893.44 1 909.452 3.97058 922.638 9.91172C935.825 15.708 945.896 24.0401 952.851 34.908C959.951 45.776 963.502 58.89 963.502 74.25C963.502 89.4651 959.951 102.507 952.851 113.375C945.896 124.243 935.825 132.647 922.638 138.588C909.452 144.385 893.44 147.283 874.602 147.283ZM874.602 122.286C886.194 122.286 896.338 120.548 905.032 117.07C913.871 113.592 920.754 108.303 925.681 101.203C930.753 94.1021 933.289 85.118 933.289 74.25C933.289 63.382 930.753 54.3979 925.681 47.2975C920.754 40.1971 913.871 34.908 905.032 31.4303C896.338 27.8076 886.194 25.9963 874.602 25.9963C863.154 25.9963 852.938 27.8076 843.954 31.4303C834.97 34.908 827.942 40.1971 822.87 47.2975C817.799 54.3979 815.263 63.382 815.263 74.25C815.263 85.118 817.799 94.1021 822.87 101.203C827.942 108.303 834.97 113.592 843.954 117.07C852.938 120.548 863.154 122.286 874.602 122.286Z" fill="white"/>
<path d="M1019.6 3.82567V120.33H1113.07V144.457H990.696V3.82567H1019.6Z" fill="white"/>
<path d="M1126.57 97.0727H1155.92C1156.5 102 1158.74 106.492 1162.66 110.549C1166.71 114.461 1172 117.577 1178.52 119.895C1185.04 122.069 1192.36 123.156 1200.48 123.156C1207.87 123.156 1213.95 122.359 1218.73 120.765C1223.52 119.171 1227.07 116.925 1229.39 114.027C1231.7 111.129 1232.86 107.651 1232.86 103.593C1232.86 99.681 1231.41 96.7104 1228.52 94.6818C1225.62 92.5082 1221.05 90.7693 1214.82 89.4651C1208.59 88.0161 1200.4 86.567 1190.26 85.118C1182.29 83.9587 1174.76 82.3647 1167.66 80.3361C1160.55 78.1625 1154.25 75.4093 1148.74 72.0764C1143.38 68.7436 1139.11 64.6862 1135.92 59.9043C1132.88 54.9775 1131.36 49.1813 1131.36 42.5156C1131.36 34.2559 1133.67 27.0106 1138.31 20.7797C1143.09 14.5487 1150.12 9.69436 1159.4 6.21662C1168.67 2.73887 1180.04 1 1193.52 1C1213.81 1 1229.39 5.34718 1240.25 14.0415C1251.27 22.591 1256.63 34.4008 1256.34 49.4711H1228.08C1227.5 40.9216 1223.88 34.7631 1217.21 30.9956C1210.69 27.228 1202.43 25.3442 1192.43 25.3442C1183.16 25.3442 1175.48 26.7208 1169.39 29.474C1163.45 32.2272 1160.48 36.9367 1160.48 43.6024C1160.48 46.2107 1161.21 48.5292 1162.66 50.5579C1164.1 52.4416 1166.57 54.1081 1170.05 55.5571C1173.52 57.0062 1178.23 58.3828 1184.17 59.687C1190.12 60.9911 1197.51 62.2953 1206.35 63.5994C1214.6 64.7587 1222.07 66.3526 1228.73 68.3813C1235.54 70.2651 1241.34 72.8009 1246.12 75.9889C1251.05 79.0319 1254.82 82.9444 1257.42 87.7263C1260.03 92.5082 1261.34 98.3769 1261.34 105.332C1261.34 113.882 1259.09 121.344 1254.6 127.72C1250.25 133.951 1243.44 138.806 1234.17 142.283C1225.04 145.761 1213.16 147.5 1198.52 147.5C1188.09 147.5 1178.89 146.413 1170.92 144.24C1162.95 141.921 1156.06 138.878 1150.27 135.111C1144.47 131.343 1139.76 127.213 1136.14 122.721C1132.52 118.229 1129.91 113.737 1128.31 109.245C1126.86 104.753 1126.28 100.695 1126.57 97.0727Z" fill="white"/>
<path d="M1276.47 97.0727H1305.81C1306.39 102 1308.64 106.492 1312.55 110.549C1316.61 114.461 1321.9 117.577 1328.42 119.895C1334.94 122.069 1342.26 123.156 1350.37 123.156C1357.76 123.156 1363.85 122.359 1368.63 120.765C1373.41 119.171 1376.96 116.925 1379.28 114.027C1381.6 111.129 1382.76 107.651 1382.76 103.593C1382.76 99.681 1381.31 96.7104 1378.41 94.6818C1375.51 92.5082 1370.95 90.7693 1364.72 89.4651C1358.49 88.0161 1350.3 86.567 1340.16 85.118C1332.19 83.9587 1324.65 82.3647 1317.55 80.3361C1310.45 78.1625 1304.15 75.4093 1298.64 72.0764C1293.28 68.7436 1289 64.6862 1285.82 59.9043C1282.77 54.9775 1281.25 49.1813 1281.25 42.5156C1281.25 34.2559 1283.57 27.0106 1288.21 20.7797C1292.99 14.5487 1300.02 9.69436 1309.29 6.21662C1318.56 2.73887 1329.94 1 1343.42 1C1363.7 1 1379.28 5.34718 1390.15 14.0415C1401.16 22.591 1406.52 34.4008 1406.23 49.4711H1377.98C1377.4 40.9216 1373.77 34.7631 1367.11 30.9956C1360.59 27.228 1352.33 25.3442 1342.33 25.3442C1333.05 25.3442 1325.37 26.7208 1319.29 29.474C1313.35 32.2272 1310.38 36.9367 1310.38 43.6024C1310.38 46.2107 1311.1 48.5292 1312.55 50.5579C1314 52.4416 1316.46 54.1081 1319.94 55.5571C1323.42 57.0062 1328.13 58.3828 1334.07 59.687C1340.01 60.9911 1347.4 62.2953 1356.24 63.5994C1364.5 64.7587 1371.96 66.3526 1378.63 68.3813C1385.44 70.2651 1391.23 72.8009 1396.02 75.9889C1400.94 79.0319 1404.71 82.9444 1407.32 87.7263C1409.93 92.5082 1411.23 98.3769 1411.23 105.332C1411.23 113.882 1408.99 121.344 1404.49 127.72C1400.15 133.951 1393.34 138.806 1384.06 142.283C1374.93 145.761 1363.05 147.5 1348.41 147.5C1337.98 147.5 1328.78 146.413 1320.81 144.24C1312.84 141.921 1305.96 138.878 1300.16 135.111C1294.37 131.343 1289.66 127.213 1286.03 122.721C1282.41 118.229 1279.8 113.737 1278.21 109.245C1276.76 104.753 1276.18 100.695 1276.47 97.0727Z" fill="white"/>
<path d="M1519.39 147.283C1500.7 147.283 1484.69 144.385 1471.36 138.588C1458.17 132.647 1448.03 124.243 1440.93 113.375C1433.97 102.507 1430.49 89.4651 1430.49 74.25C1430.49 58.89 1433.97 45.776 1440.93 34.908C1448.03 24.0401 1458.17 15.708 1471.36 9.91172C1484.69 3.97058 1500.7 1 1519.39 1C1538.23 1 1554.24 3.97058 1567.43 9.91172C1580.62 15.708 1590.69 24.0401 1597.64 34.908C1604.74 45.776 1608.29 58.89 1608.29 74.25C1608.29 89.4651 1604.74 102.507 1597.64 113.375C1590.69 124.243 1580.62 132.647 1567.43 138.588C1554.24 144.385 1538.23 147.283 1519.39 147.283ZM1519.39 122.286C1530.99 122.286 1541.13 120.548 1549.82 117.07C1558.66 113.592 1565.55 108.303 1570.47 101.203C1575.54 94.1021 1578.08 85.118 1578.08 74.25C1578.08 63.382 1575.54 54.3979 1570.47 47.2975C1565.55 40.1971 1558.66 34.908 1549.82 31.4303C1541.13 27.8076 1530.99 25.9963 1519.39 25.9963C1507.95 25.9963 1497.73 27.8076 1488.75 31.4303C1479.76 34.908 1472.73 40.1971 1467.66 47.2975C1462.59 54.3979 1460.05 63.382 1460.05 74.25C1460.05 85.118 1462.59 94.1021 1467.66 101.203C1472.73 108.303 1479.76 113.592 1488.75 117.07C1497.73 120.548 1507.95 122.286 1519.39 122.286Z" fill="white"/>
<path d="M1778.07 115.766L1768.95 119.461V3.82567H1797.85V144.457H1768.95L1655.27 33.3865L1664.4 29.6914V144.457H1635.49V3.82567H1664.4L1778.07 115.766Z" fill="white"/>
</svg>
