<svg width="363" height="90" viewBox="0 0 363 90" fill="none" xmlns="http://www.w3.org/2000/svg">
<path d="M67.163 87.8232V88.8232H68.163V87.8232H67.163ZM67.163 75.4072H68.163V74.4072H67.163V75.4072ZM14.299 75.4072H13.299V76.4072H14.299V75.4072ZM14.299 2.06324H15.299V1.06324H14.299V2.06324ZM0.475012 2.06324V1.06324H-0.524988V2.06324H0.475012ZM0.475012 87.8232H-0.524988V88.8232H0.475012V87.8232ZM68.163 87.8232V75.4072H66.163V87.8232H68.163ZM67.163 74.4072H14.299V76.4072H67.163V74.4072ZM15.299 75.4072V2.06324H13.299V75.4072H15.299ZM14.299 1.06324H0.475012V3.06324H14.299V1.06324ZM-0.524988 2.06324V87.8232H1.47501V2.06324H-0.524988ZM0.475012 88.8232H67.163V86.8232H0.475012V88.8232ZM151.108 87.8232V88.8232H152.108V87.8232H151.108ZM151.108 75.4072H152.108V74.4072H151.108V75.4072ZM96.324 75.4072H95.324V76.4072H96.324V75.4072ZM96.324 50.8312V49.8312H95.324V50.8312H96.324ZM149.188 50.8312V51.8312H150.188V50.8312H149.188ZM149.188 38.5432H150.188V37.5432H149.188V38.5432ZM96.324 38.5432H95.324V39.5432H96.324V38.5432ZM96.324 14.4792V13.4792H95.324V14.4792H96.324ZM151.108 14.4792V15.4792H152.108V14.4792H151.108ZM151.108 2.06324H152.108V1.06324H151.108V2.06324ZM82.5 2.06324V1.06324H81.5V2.06324H82.5ZM82.5 87.8232H81.5V88.8232H82.5V87.8232ZM152.108 87.8232V75.4072H150.108V87.8232H152.108ZM151.108 74.4072H96.324V76.4072H151.108V74.4072ZM97.324 75.4072V50.8312H95.324V75.4072H97.324ZM96.324 51.8312H149.188V49.8312H96.324V51.8312ZM150.188 50.8312V38.5432H148.188V50.8312H150.188ZM149.188 37.5432H96.324V39.5432H149.188V37.5432ZM97.324 38.5432V14.4792H95.324V38.5432H97.324ZM96.324 15.4792H151.108V13.4792H96.324V15.4792ZM152.108 14.4792V2.06324H150.108V14.4792H152.108ZM151.108 1.06324H82.5V3.06324H151.108V1.06324ZM81.5 2.06324V87.8232H83.5V2.06324H81.5ZM82.5 88.8232H151.108V86.8232H82.5V88.8232ZM210.899 87.8232V88.8232H211.899V87.8232H210.899ZM210.899 14.4792V13.4792H209.899V14.4792H210.899ZM244.563 14.4792V15.4792H245.563V14.4792H244.563ZM244.563 2.06324H245.563V1.06324H244.563V2.06324ZM163.411 2.06324V1.06324H162.411V2.06324H163.411ZM163.411 14.4792H162.411V15.4792H163.411V14.4792ZM197.203 14.4792H198.203V13.4792H197.203V14.4792ZM197.203 87.8232H196.203V88.8232H197.203V87.8232ZM211.899 87.8232V14.4792H209.899V87.8232H211.899ZM210.899 15.4792H244.563V13.4792H210.899V15.4792ZM245.563 14.4792V2.06324H243.563V14.4792H245.563ZM244.563 1.06324H163.411V3.06324H244.563V1.06324ZM162.411 2.06324V14.4792H164.411V2.06324H162.411ZM163.411 15.4792H197.203V13.4792H163.411V15.4792ZM196.203 14.4792V87.8232H198.203V14.4792H196.203ZM197.203 88.8232H210.899V86.8232H197.203V88.8232ZM273.898 2.06324H274.898V1.06324H273.898V2.06324ZM256.49 2.06324V1.06324H255.49V2.06324H256.49ZM256.49 21.9032H255.49V22.9032H256.49V21.9032ZM264.17 21.9032H265.17V20.9032H264.17V21.9032ZM256.746 27.9192V26.9192H255.746V27.9192H256.746ZM256.746 36.3672H255.746V37.3672H256.746V36.3672ZM261.354 37.3672C265.468 37.3672 268.885 36.3726 271.278 34.1759C273.686 31.9654 274.898 28.6856 274.898 24.4632H272.898C272.898 28.3049 271.806 30.9771 269.926 32.7025C268.031 34.4419 265.176 35.3672 261.354 35.3672V37.3672ZM274.898 24.4632V2.06324H272.898V24.4632H274.898ZM273.898 1.06324H256.49V3.06324H273.898V1.06324ZM255.49 2.06324V21.9032H257.49V2.06324H255.49ZM256.49 22.9032H264.17V20.9032H256.49V22.9032ZM263.17 21.9032V24.5912H265.17V21.9032H263.17ZM263.17 24.5912C263.17 25.8569 262.919 26.3298 262.701 26.5344C262.471 26.7508 262.017 26.9192 260.97 26.9192V28.9192C262.099 28.9192 263.245 28.7677 264.071 27.9921C264.909 27.2047 265.17 26.0136 265.17 24.5912H263.17ZM260.97 26.9192H256.746V28.9192H260.97V26.9192ZM255.746 27.9192V36.3672H257.746V27.9192H255.746ZM256.746 37.3672H261.354V35.3672H256.746V37.3672ZM336.911 40.5912L337.087 39.6069L337.08 39.6057L336.911 40.5912ZM316.047 37.0072L315.837 37.9849L315.857 37.9893L315.878 37.9928L316.047 37.0072ZM347.407 30.8632H346.407V31.8632H347.407V30.8632ZM361.103 30.8632V31.8632H362.103V30.8632H361.103ZM312.463 49.0392L312.289 50.024L312.301 50.026L312.463 49.0392ZM333.455 52.4952L333.64 51.5125L333.629 51.5104L333.617 51.5085L333.455 52.4952ZM301.711 59.0232H302.711V58.0232H301.711V59.0232ZM287.887 59.0232V58.0232H286.887V59.0232H287.887ZM326.543 90.1032C339.362 90.1032 348.6 87.0609 354.654 82.2374C360.728 77.3985 363.511 70.8328 363.511 64.0152H361.511C361.511 70.2537 358.982 76.232 353.408 80.6731C347.814 85.1296 339.068 88.1032 326.543 88.1032V90.1032ZM363.511 64.0152C363.511 57.492 361.302 52.1265 356.819 48.0143C352.37 43.9329 345.762 41.1606 337.087 39.6069L336.735 41.5756C345.212 43.0939 351.404 45.7616 355.467 49.4882C359.496 53.184 361.511 57.9945 361.511 64.0152H363.511ZM337.08 39.6057L316.216 36.0217L315.878 37.9928L336.742 41.5768L337.08 39.6057ZM316.257 36.0296C311.198 34.9409 307.787 33.8229 305.632 32.1664C303.581 30.5897 302.583 28.4527 302.583 24.9752H300.583C300.583 28.9218 301.761 31.7128 304.414 33.7521C306.963 35.7116 310.784 36.8976 315.837 37.9849L316.257 36.0296ZM302.583 24.9752C302.583 23.19 302.939 21.6888 303.656 20.4301C304.371 19.1744 305.481 18.0967 307.089 17.2113C310.348 15.4175 315.576 14.4552 323.343 14.4552V12.4552C315.494 12.4552 309.842 13.413 306.125 15.4592C304.245 16.4938 302.843 17.8161 301.918 19.4404C300.995 21.0616 300.583 22.9205 300.583 24.9752H302.583ZM323.343 14.4552C332.186 14.4552 337.944 15.7683 341.478 18.2136C344.921 20.5962 346.407 24.1702 346.407 29.1992H348.407C348.407 23.7323 346.757 19.4343 342.616 16.5689C338.566 13.7661 332.292 12.4552 323.343 12.4552V14.4552ZM346.407 29.1992V30.8632H348.407V29.1992H346.407ZM347.407 31.8632H361.103V29.8632H347.407V31.8632ZM362.103 30.8632V30.0952H360.103V30.8632H362.103ZM362.103 30.0952C362.103 21.475 359.167 13.8522 352.929 8.39841C346.707 2.95851 337.323 -0.216759 324.623 -0.216759V1.78324C337.011 1.78324 345.867 4.87997 351.613 9.90407C357.343 14.9143 360.103 21.9475 360.103 30.0952H362.103ZM324.623 -0.216759C311.165 -0.216759 301.703 2.95305 295.584 7.82492C289.447 12.7109 286.759 19.2442 286.759 25.7432H288.759C288.759 19.8263 291.191 13.8795 296.83 9.38956C302.487 4.88543 311.457 1.78324 324.623 1.78324V-0.216759ZM286.759 25.7432C286.759 33.0612 289.436 38.5276 294.036 42.4705C298.596 46.3786 304.97 48.7287 312.289 50.0239L312.637 48.0545C305.492 46.7898 299.514 44.5319 295.338 40.952C291.202 37.4069 288.759 32.5053 288.759 25.7432H286.759ZM312.301 50.026L333.293 53.482L333.617 51.5085L312.625 48.0525L312.301 50.026ZM333.27 53.478C338.698 54.4997 342.296 55.6843 344.54 57.4151C346.687 59.071 347.687 61.3037 347.687 64.7832H349.687C349.687 60.8387 348.511 57.9515 345.762 55.8314C343.11 53.7862 339.092 52.5387 333.64 51.5125L333.27 53.478ZM347.687 64.7832C347.687 66.6823 347.348 68.2433 346.652 69.5291C345.96 70.8065 344.879 71.8806 343.28 72.7535C340.027 74.529 334.711 75.4312 326.543 75.4312V77.4312C334.759 77.4312 340.515 76.5415 344.238 74.509C346.127 73.4779 347.51 72.144 348.41 70.4814C349.306 68.8272 349.687 66.9162 349.687 64.7832H347.687ZM326.543 75.4312C317.177 75.4312 311.223 74.1471 307.624 71.7581C304.132 69.4397 302.711 65.9725 302.711 61.0712H300.711C300.711 66.4099 302.298 70.6228 306.518 73.4244C310.632 76.1554 317.093 77.4312 326.543 77.4312V75.4312ZM302.711 61.0712V59.0232H300.711V61.0712H302.711ZM301.711 58.0232H287.887V60.0232H301.711V58.0232ZM286.887 59.0232V59.7912H288.887V59.0232H286.887ZM286.887 59.7912C286.887 69.0791 290.26 76.7152 296.998 82.002C303.701 87.2613 313.615 90.1032 326.543 90.1032V88.1032C313.871 88.1032 304.458 85.3132 298.232 80.4285C292.042 75.5713 288.887 68.5514 288.887 59.7912H286.887Z" fill="white"/>
</svg>
