<svg width="108" height="15" viewBox="0 0 108 15" fill="none" xmlns="http://www.w3.org/2000/svg">
<path d="M8.998 14.8919C7.106 14.8919 5.48533 14.5986 4.136 14.0119C2.80133 13.4106 1.77467 12.5599 1.056 11.4599C0.352 10.3599 0 9.03994 0 7.49994C0 5.94527 0.352 4.61794 1.056 3.51794C1.77467 2.41794 2.80133 1.5746 4.136 0.987937C5.48533 0.386604 7.106 0.0859375 8.998 0.0859375C10.9047 0.0859375 12.5253 0.386604 13.86 0.987937C15.1947 1.5746 16.214 2.41794 16.918 3.51794C17.6367 4.61794 17.996 5.94527 17.996 7.49994C17.996 9.03994 17.6367 10.3599 16.918 11.4599C16.214 12.5599 15.1947 13.4106 13.86 14.0119C12.5253 14.5986 10.9047 14.8919 8.998 14.8919ZM8.998 12.3619C10.1713 12.3619 11.198 12.1859 12.078 11.8339C12.9727 11.4819 13.6693 10.9466 14.168 10.2279C14.6813 9.50927 14.938 8.59994 14.938 7.49994C14.938 6.39994 14.6813 5.4906 14.168 4.77194C13.6693 4.05327 12.9727 3.51794 12.078 3.16594C11.198 2.79927 10.1713 2.61594 8.998 2.61594C7.83933 2.61594 6.80533 2.79927 5.896 3.16594C4.98667 3.51794 4.27533 4.05327 3.762 4.77194C3.24867 5.4906 2.992 6.39994 2.992 7.49994C2.992 8.59994 3.24867 9.50927 3.762 10.2279C4.27533 10.9466 4.98667 11.4819 5.896 11.8339C6.80533 12.1859 7.83933 12.3619 8.998 12.3619Z" fill="white"/>
<path d="M24.7782 0.371938V12.1639H34.2382V14.6059H21.8522V0.371938H24.7782Z" fill="white"/>
<path d="M36.709 9.80994H39.679C39.7376 10.3086 39.965 10.7633 40.361 11.1739C40.7716 11.5699 41.307 11.8853 41.967 12.1199C42.627 12.3399 43.3676 12.4499 44.189 12.4499C44.937 12.4499 45.553 12.3693 46.037 12.2079C46.521 12.0466 46.8803 11.8193 47.115 11.5259C47.3496 11.2326 47.467 10.8806 47.467 10.4699C47.467 10.0739 47.3203 9.77327 47.027 9.56794C46.7336 9.34794 46.2716 9.17194 45.641 9.03994C45.0103 8.89327 44.1816 8.7466 43.155 8.59994C42.3483 8.4826 41.5856 8.32127 40.867 8.11594C40.1483 7.89594 39.5103 7.61727 38.953 7.27994C38.4103 6.9426 37.9776 6.53194 37.655 6.04794C37.347 5.54927 37.193 4.9626 37.193 4.28794C37.193 3.45194 37.4276 2.7186 37.897 2.08794C38.381 1.45727 39.0923 0.965937 40.031 0.613937C40.9696 0.261938 42.121 0.0859375 43.485 0.0859375C45.5383 0.0859375 47.115 0.525937 48.215 1.40594C49.3296 2.27127 49.8723 3.4666 49.843 4.99194H46.983C46.9243 4.1266 46.5576 3.50327 45.883 3.12194C45.223 2.7406 44.387 2.54994 43.375 2.54994C42.4363 2.54994 41.659 2.68927 41.043 2.96794C40.4416 3.2466 40.141 3.72327 40.141 4.39794C40.141 4.66194 40.2143 4.8966 40.361 5.10194C40.5076 5.2926 40.757 5.46127 41.109 5.60794C41.461 5.7546 41.9376 5.89394 42.539 6.02594C43.1403 6.15794 43.8883 6.28994 44.783 6.42194C45.6189 6.53927 46.3743 6.7006 47.049 6.90594C47.7383 7.0966 48.325 7.35327 48.809 7.67594C49.3076 7.98394 49.689 8.37994 49.953 8.86394C50.217 9.34794 50.349 9.94194 50.349 10.6459C50.349 11.5113 50.1216 12.2666 49.667 12.9119C49.227 13.5426 48.5376 14.0339 47.599 14.3859C46.675 14.7379 45.4723 14.9139 43.991 14.9139C42.935 14.9139 42.0036 14.8039 41.197 14.5839C40.3903 14.3493 39.6936 14.0413 39.107 13.6599C38.5203 13.2786 38.0436 12.8606 37.677 12.4059C37.3103 11.9513 37.0463 11.4966 36.885 11.0419C36.7383 10.5873 36.6796 10.1766 36.709 9.80994Z" fill="white"/>
<path d="M52.9843 9.80994H55.9543C56.013 10.3086 56.2403 10.7633 56.6363 11.1739C57.047 11.5699 57.5823 11.8853 58.2423 12.1199C58.9023 12.3399 59.643 12.4499 60.4643 12.4499C61.2123 12.4499 61.8283 12.3693 62.3123 12.2079C62.7963 12.0466 63.1557 11.8193 63.3903 11.5259C63.625 11.2326 63.7423 10.8806 63.7423 10.4699C63.7423 10.0739 63.5957 9.77327 63.3023 9.56794C63.009 9.34794 62.547 9.17194 61.9163 9.03994C61.2857 8.89327 60.457 8.7466 59.4303 8.59994C58.6237 8.4826 57.861 8.32127 57.1423 8.11594C56.4237 7.89594 55.7857 7.61727 55.2283 7.27994C54.6857 6.9426 54.253 6.53194 53.9303 6.04794C53.6223 5.54927 53.4683 4.9626 53.4683 4.28794C53.4683 3.45194 53.703 2.7186 54.1723 2.08794C54.6563 1.45727 55.3677 0.965937 56.3063 0.613937C57.245 0.261938 58.3963 0.0859375 59.7603 0.0859375C61.8137 0.0859375 63.3903 0.525937 64.4903 1.40594C65.605 2.27127 66.1477 3.4666 66.1183 4.99194H63.2583C63.1997 4.1266 62.833 3.50327 62.1583 3.12194C61.4983 2.7406 60.6623 2.54994 59.6503 2.54994C58.7117 2.54994 57.9343 2.68927 57.3183 2.96794C56.717 3.2466 56.4163 3.72327 56.4163 4.39794C56.4163 4.66194 56.4897 4.8966 56.6363 5.10194C56.783 5.2926 57.0323 5.46127 57.3843 5.60794C57.7363 5.7546 58.213 5.89394 58.8143 6.02594C59.4157 6.15794 60.1637 6.28994 61.0583 6.42194C61.8943 6.53927 62.6497 6.7006 63.3243 6.90594C64.0137 7.0966 64.6003 7.35327 65.0843 7.67594C65.583 7.98394 65.9643 8.37994 66.2283 8.86394C66.4923 9.34794 66.6243 9.94194 66.6243 10.6459C66.6243 11.5113 66.397 12.2666 65.9423 12.9119C65.5023 13.5426 64.813 14.0339 63.8743 14.3859C62.9503 14.7379 61.7477 14.9139 60.2663 14.9139C59.2103 14.9139 58.279 14.8039 57.4723 14.5839C56.6657 14.3493 55.969 14.0413 55.3823 13.6599C54.7957 13.2786 54.319 12.8606 53.9523 12.4059C53.5857 11.9513 53.3217 11.4966 53.1603 11.0419C53.0137 10.5873 52.955 10.1766 52.9843 9.80994Z" fill="white"/>
<path d="M78.6757 14.8919C76.7837 14.8919 75.1631 14.5986 73.8137 14.0119C72.4791 13.4106 71.4524 12.5599 70.7337 11.4599C70.0297 10.3599 69.6777 9.03994 69.6777 7.49994C69.6777 5.94527 70.0297 4.61794 70.7337 3.51794C71.4524 2.41794 72.4791 1.5746 73.8137 0.987937C75.1631 0.386604 76.7837 0.0859375 78.6757 0.0859375C80.5824 0.0859375 82.2031 0.386604 83.5377 0.987937C84.8724 1.5746 85.8917 2.41794 86.5957 3.51794C87.3144 4.61794 87.6737 5.94527 87.6737 7.49994C87.6737 9.03994 87.3144 10.3599 86.5957 11.4599C85.8917 12.5599 84.8724 13.4106 83.5377 14.0119C82.2031 14.5986 80.5824 14.8919 78.6757 14.8919ZM78.6757 12.3619C79.8491 12.3619 80.8757 12.1859 81.7557 11.8339C82.6504 11.4819 83.3471 10.9466 83.8457 10.2279C84.3591 9.50927 84.6157 8.59994 84.6157 7.49994C84.6157 6.39994 84.3591 5.4906 83.8457 4.77194C83.3471 4.05327 82.6504 3.51794 81.7557 3.16594C80.8757 2.79927 79.8491 2.61594 78.6757 2.61594C77.5171 2.61594 76.4831 2.79927 75.5737 3.16594C74.6644 3.51794 73.9531 4.05327 73.4397 4.77194C72.9264 5.4906 72.6697 6.39994 72.6697 7.49994C72.6697 8.59994 72.9264 9.50927 73.4397 10.2279C73.9531 10.9466 74.6644 11.4819 75.5737 11.8339C76.4831 12.1859 77.5171 12.3619 78.6757 12.3619Z" fill="white"/>
<path d="M105.962 11.7019L105.038 12.0759V0.371938H107.964V14.6059H105.038L93.532 3.36394L94.456 2.98994V14.6059H91.53V0.371938H94.456L105.962 11.7019Z" fill="white"/>
</svg>
